Source-HROTd_VROTd.ufo
<glyph name="parenleft" format="2">
  <advance width="481"/>
  <unicode hex="0028"/>
  <outline>
    <contour>
      <point x="439" y="-153" type="line" smooth="yes"/>
      <point x="439" y="-158"/>
      <point x="434" y="-162"/>
      <point x="429" y="-161" type="curve" smooth="yes"/>
      <point x="246" y="-125"/>
      <point x="32" y="38"/>
      <point x="32" y="340" type="curve" smooth="yes"/>
      <point x="32" y="642"/>
      <point x="246" y="805"/>
      <point x="429" y="841" type="curve" smooth="yes"/>
      <point x="434" y="842"/>
      <point x="439" y="838"/>
      <point x="439" y="833" type="curve" smooth="yes"/>
      <point x="439" y="678" type="line" smooth="yes"/>
      <point x="439" y="674"/>
      <point x="435" y="670"/>
      <point x="431" y="670" type="curve" smooth="yes"/>
      <point x="281" y="670"/>
      <point x="206" y="564"/>
      <point x="206" y="340" type="curve" smooth="yes"/>
      <point x="206" y="116"/>
      <point x="281" y="10"/>
      <point x="431" y="10" type="curve" smooth="yes"/>
      <point x="435" y="10"/>
      <point x="439" y="6"/>
      <point x="439" y="2" type="curve" smooth="yes"/>
    </contour>
    <contour>
      <point x="423" y="-153" type="line"/>
      <point x="423" y="2" type="line"/>
      <point x="431" y="-6" type="line"/>
      <point x="273" y="-6"/>
      <point x="190" y="106"/>
      <point x="190" y="340" type="curve" smooth="yes"/>
      <point x="190" y="574"/>
      <point x="273" y="686"/>
      <point x="431" y="686" type="curve"/>
      <point x="423" y="678" type="line"/>
      <point x="423" y="833" type="line"/>
      <point x="433" y="825" type="line"/>
      <point x="254" y="791"/>
      <point x="48" y="632"/>
      <point x="48" y="340" type="curve" smooth="yes"/>
      <point x="48" y="48"/>
      <point x="254" y="-111"/>
      <point x="433" y="-145" type="curve"/>
    </contour>
  </outline>
</glyph>
<glyph name="three" format="2">
  <advance width="523"/>
  <unicode hex="0033"/>
  <outline>
    <contour>
      <point x="228" y="119" type="curve" smooth="yes"/>
      <point x="297" y="119"/>
      <point x="333" y="148"/>
      <point x="333" y="199" type="curve" smooth="yes"/>
      <point x="333" y="269"/>
      <point x="272" y="307"/>
      <point x="94" y="304" type="curve" smooth="yes"/>
      <point x="88" y="304"/>
      <point x="84" y="311"/>
      <point x="87" y="317" type="curve" smooth="yes"/>
      <point x="256" y="558" type="line"/>
      <point x="263" y="545" type="line"/>
      <point x="144" y="543"/>
      <point x="101" y="533"/>
      <point x="71" y="517" type="curve" smooth="yes"/>
      <point x="65" y="514"/>
      <point x="59" y="518"/>
      <point x="59" y="524" type="curve" smooth="yes"/>
      <point x="59" y="680" type="line" smooth="yes"/>
      <point x="59" y="684"/>
      <point x="63" y="688"/>
      <point x="67" y="688" type="curve" smooth="yes"/>
      <point x="498" y="688" type="line" smooth="yes"/>
      <point x="504" y="688"/>
      <point x="508" y="681"/>
      <point x="505" y="675" type="curve" smooth="yes"/>
      <point x="320" y="409" type="line"/>
      <point x="315" y="422" type="line"/>
      <point x="430" y="396"/>
      <point x="502" y="315"/>
      <point x="502" y="208" type="curve" smooth="yes"/>
      <point x="502" y="20"/>
      <point x="277" y="-73"/>
      <point x="55" y="6" type="curve" smooth="yes"/>
      <point x="52" y="8"/>
      <point x="50" y="11"/>
      <point x="50" y="14" type="curve" smooth="yes"/>
      <point x="50" y="177" type="line" smooth="yes"/>
      <point x="50" y="184"/>
      <point x="57" y="187"/>
      <point x="63" y="183" type="curve" smooth="yes"/>
      <point x="117" y="144"/>
      <point x="171" y="119"/>
    </contour>
    <contour>
      <point x="228" y="103" type="curve" smooth="yes"/>
      <point x="167" y="103"/>
      <point x="111" y="128"/>
      <point x="53" y="171" type="curve"/>
      <point x="66" y="177" type="line"/>
      <point x="66" y="14" type="line"/>
      <point x="61" y="22" type="line"/>
      <point x="271" y="-53"/>
      <point x="486" y="30"/>
      <point x="486" y="208" type="curve" smooth="yes"/>
      <point x="486" y="307"/>
      <point x="418" y="382"/>
      <point x="311" y="406" type="curve" smooth="yes"/>
      <point x="306" y="407"/>
      <point x="303" y="414"/>
      <point x="306" y="419" type="curve" smooth="yes"/>
      <point x="491" y="685" type="line"/>
      <point x="498" y="672" type="line"/>
      <point x="67" y="672" type="line"/>
      <point x="75" y="680" type="line"/>
      <point x="75" y="524" type="line"/>
      <point x="63" y="531" type="line"/>
      <point x="95" y="547"/>
      <point x="140" y="559"/>
      <point x="263" y="561" type="curve" smooth="yes"/>
      <point x="269" y="561"/>
      <point x="273" y="554"/>
      <point x="270" y="548" type="curve" smooth="yes"/>
      <point x="101" y="307" type="line"/>
      <point x="94" y="320" type="line"/>
      <point x="288" y="323"/>
      <point x="349" y="275"/>
      <point x="349" y="199" type="curve" smooth="yes"/>
      <point x="349" y="140"/>
      <point x="307" y="103"/>
    </contour>
  </outline>
</glyph>
<glyph name="seven" format="2">
  <advance width="503"/>
  <unicode hex="0037"/>
  <outline>
    <contour>
      <point x="71" y="-8" type="line" smooth="yes"/>
      <point x="64" y="-8"/>
      <point x="61" y="0"/>
      <point x="65" y="5" type="curve" smooth="yes"/>
      <point x="101" y="49"/>
      <point x="132" y="108"/>
      <point x="225" y="352" type="curve" smooth="yes"/>
      <point x="253" y="427"/>
      <point x="279" y="496"/>
      <point x="303" y="557" type="curve"/>
      <point x="310" y="546" type="line"/>
      <point x="123" y="546"/>
      <point x="73" y="535"/>
      <point x="39" y="517" type="curve" smooth="yes"/>
      <point x="33" y="514"/>
      <point x="27" y="518"/>
      <point x="27" y="524" type="curve"/>
      <point x="27" y="680" type="line" smooth="yes"/>
      <point x="27" y="684"/>
      <point x="31" y="688"/>
      <point x="35" y="688" type="curve" smooth="yes"/>
      <point x="503" y="688" type="line" smooth="yes"/>
      <point x="509" y="688"/>
      <point x="513" y="682"/>
      <point x="510" y="677" type="curve" smooth="yes"/>
      <point x="457" y="543"/>
      <point x="423" y="457"/>
      <point x="379" y="346" type="curve" smooth="yes"/>
      <point x="283" y="103"/>
      <point x="276" y="51"/>
      <point x="293" y="3" type="curve" smooth="yes"/>
      <point x="294" y="-3"/>
      <point x="291" y="-8"/>
      <point x="285" y="-8" type="curve" smooth="yes"/>
    </contour>
    <contour>
      <point x="71" y="8" type="line"/>
      <point x="285" y="8" type="line"/>
      <point x="277" y="-3" type="line"/>
      <point x="260" y="47"/>
      <point x="265" y="100"/>
      <point x="365" y="352" type="curve" smooth="yes"/>
      <point x="401" y="443"/>
      <point x="452" y="573"/>
      <point x="496" y="683" type="curve"/>
      <point x="503" y="672" type="line"/>
      <point x="35" y="672" type="line"/>
      <point x="43" y="680" type="line"/>
      <point x="43" y="524" type="line"/>
      <point x="31" y="531" type="line"/>
      <point x="67" y="549"/>
      <point x="117" y="562"/>
      <point x="310" y="562" type="curve" smooth="yes"/>
      <point x="316" y="562"/>
      <point x="319" y="556"/>
      <point x="317" y="551" type="curve" smooth="yes"/>
      <point x="289" y="476"/>
      <point x="263" y="407"/>
      <point x="239" y="346" type="curve" smooth="yes"/>
      <point x="146" y="100"/>
      <point x="113" y="39"/>
      <point x="77" y="-5" type="curve"/>
    </contour>
  </outline>
</glyph>
<glyph name="colon" format="2">
  <advance width="271"/>
  <unicode hex="003A"/>
  <outline>
    <contour>
      <point x="55" y="-8" type="line" smooth="yes"/>
      <point x="51" y="-8"/>
      <point x="47" y="-4"/>
      <point x="47" y="0" type="curve" smooth="yes"/>
      <point x="47" y="161" type="line" smooth="yes"/>
      <point x="47" y="165"/>
      <point x="51" y="169"/>
      <point x="55" y="169" type="curve" smooth="yes"/>
      <point x="216" y="169" type="line" smooth="yes"/>
      <point x="220" y="169"/>
      <point x="224" y="165"/>
      <point x="224" y="161" type="curve" smooth="yes"/>
      <point x="224" y="0" type="line" smooth="yes"/>
      <point x="224" y="-4"/>
      <point x="220" y="-8"/>
      <point x="216" y="-8" type="curve" smooth="yes"/>
    </contour>
    <contour>
      <point x="55" y="354" type="line" smooth="yes"/>
      <point x="51" y="354"/>
      <point x="47" y="358"/>
      <point x="47" y="362" type="curve" smooth="yes"/>
      <point x="47" y="523" type="line" smooth="yes"/>
      <point x="47" y="527"/>
      <point x="51" y="531"/>
      <point x="55" y="531" type="curve" smooth="yes"/>
      <point x="216" y="531" type="line" smooth="yes"/>
      <point x="220" y="531"/>
      <point x="224" y="527"/>
      <point x="224" y="523" type="curve" smooth="yes"/>
      <point x="224" y="362" type="line" smooth="yes"/>
      <point x="224" y="358"/>
      <point x="220" y="354"/>
      <point x="216" y="354" type="curve" smooth="yes"/>
    </contour>
    <contour>
      <point x="55" y="8" type="line"/>
      <point x="216" y="8" type="line"/>
      <point x="208" y="0" type="line"/>
      <point x="208" y="161" type="line"/>
      <point x="216" y="153" type="line"/>
      <point x="55" y="153" type="line"/>
      <point x="63" y="161" type="line"/>
      <point x="63" y="0" type="line"/>
    </contour>
    <contour>
      <point x="55" y="370" type="line"/>
      <point x="216" y="370" type="line"/>
      <point x="208" y="362" type="line"/>
      <point x="208" y="523" type="line"/>
      <point x="216" y="515" type="line"/>
      <point x="55" y="515" type="line"/>
      <point x="63" y="523" type="line"/>
      <point x="63" y="362" type="line"/>
    </contour>
  </outline>
</glyph>
<glyph name="semicolon" format="2">
  <advance width="276"/>
  <unicode hex="003B"/>
  <outline>
    <contour>
      <point x="60" y="354" type="line" smooth="yes"/>
      <point x="56" y="354"/>
      <point x="52" y="358"/>
      <point x="52" y="362" type="curve" smooth="yes"/>
      <point x="52" y="523" type="line" smooth="yes"/>
      <point x="52" y="527"/>
      <point x="56" y="531"/>
      <point x="60" y="531" type="curve" smooth="yes"/>
      <point x="221" y="531" type="line" smooth="yes"/>
      <point x="225" y="531"/>
      <point x="229" y="527"/>
      <point x="229" y="523" type="curve" smooth="yes"/>
      <point x="229" y="362" type="line" smooth="yes"/>
      <point x="229" y="358"/>
      <point x="225" y="354"/>
      <point x="221" y="354" type="curve" smooth="yes"/>
    </contour>
    <contour>
      <point x="60" y="153" type="line"/>
      <point x="68" y="163" type="line"/>
      <point x="92" y="73"/>
      <point x="91" y="-12"/>
      <point x="32" y="-134" type="curve"/>
      <point x="23" y="-122" type="line"/>
      <point x="180" y="-74"/>
      <point x="229" y="52"/>
      <point x="219" y="160" type="curve"/>
      <point x="227" y="153" type="line"/>
    </contour>
    <contour>
      <point x="60" y="370" type="line"/>
      <point x="221" y="370" type="line"/>
      <point x="213" y="362" type="line"/>
      <point x="213" y="523" type="line"/>
      <point x="221" y="515" type="line"/>
      <point x="60" y="515" type="line"/>
      <point x="68" y="523" type="line"/>
      <point x="68" y="362" type="line"/>
    </contour>
    <contour>
      <point x="60" y="169" type="curve" smooth="yes"/>
      <point x="227" y="169" type="line" smooth="yes"/>
      <point x="231" y="169"/>
      <point x="235" y="166"/>
      <point x="235" y="162" type="curve" smooth="yes"/>
      <point x="245" y="48"/>
      <point x="194" y="-86"/>
      <point x="27" y="-138" type="curve" smooth="yes"/>
      <point x="21" y="-140"/>
      <point x="15" y="-133"/>
      <point x="18" y="-126" type="curve" smooth="yes"/>
      <point x="75" y="-10"/>
      <point x="76" y="71"/>
      <point x="52" y="159" type="curve" smooth="yes"/>
      <point x="51" y="164"/>
      <point x="55" y="169"/>
    </contour>
  </outline>
</glyph>
<glyph name="K" format="2">
  <advance width="651"/>
  <unicode hex="004B"/>
  <outline>
    <contour>
      <point x="50" y="-8" type="line" smooth="yes"/>
      <point x="44" y="-8"/>
      <point x="40" y="-2"/>
      <point x="43" y="4" type="curve" smooth="yes"/>
      <point x="63" y="43"/>
      <point x="69" y="98"/>
      <point x="69" y="349" type="curve" smooth="yes"/>
      <point x="69" y="586"/>
      <point x="63" y="638"/>
      <point x="43" y="676" type="curve" smooth="yes"/>
      <point x="40" y="682"/>
      <point x="44" y="688"/>
      <point x="50" y="688" type="curve" smooth="yes"/>
      <point x="247" y="688" type="line" smooth="yes"/>
      <point x="253" y="688"/>
      <point x="257" y="682"/>
      <point x="254" y="676" type="curve" smooth="yes"/>
      <point x="236" y="642"/>
      <point x="230" y="596"/>
      <point x="228" y="417" type="curve"/>
      <point x="214" y="422" type="line"/>
      <point x="388" y="607"/>
      <point x="422" y="647"/>
      <point x="432" y="682" type="curve" smooth="yes"/>
      <point x="433" y="686"/>
      <point x="436" y="688"/>
      <point x="440" y="688" type="curve" smooth="yes"/>
      <point x="653" y="688" type="line" smooth="yes"/>
      <point x="661" y="688"/>
      <point x="664" y="678"/>
      <point x="658" y="673" type="curve" smooth="yes"/>
      <point x="601" y="635"/>
      <point x="552" y="586"/>
      <point x="323" y="343" type="curve"/>
      <point x="323" y="353" type="line"/>
      <point x="545" y="99"/>
      <point x="612" y="45"/>
      <point x="666" y="6" type="curve" smooth="yes"/>
      <point x="672" y="2"/>
      <point x="669" y="-8"/>
      <point x="661" y="-8" type="curve" smooth="yes"/>
      <point x="428" y="-8" type="line" smooth="yes"/>
      <point x="425" y="-8"/>
      <point x="421" y="-6"/>
      <point x="420" y="-2" type="curve" smooth="yes"/>
      <point x="410" y="32"/>
      <point x="372" y="79"/>
      <point x="214" y="256" type="curve"/>
      <point x="228" y="261" type="line"/>
      <point x="230" y="84"/>
      <point x="237" y="38"/>
      <point x="254" y="3" type="curve" smooth="yes"/>
      <point x="257" y="-2"/>
      <point x="253" y="-8"/>
      <point x="247" y="-8" type="curve" smooth="yes"/>
    </contour>
    <contour>
      <point x="50" y="8" type="line"/>
      <point x="247" y="8" type="line"/>
      <point x="240" y="-3" type="line"/>
      <point x="223" y="32"/>
      <point x="214" y="78"/>
      <point x="212" y="261" type="curve" smooth="yes"/>
      <point x="212" y="268"/>
      <point x="221" y="272"/>
      <point x="226" y="266" type="curve" smooth="yes"/>
      <point x="389" y="84"/>
      <point x="424" y="38"/>
      <point x="436" y="2" type="curve"/>
      <point x="428" y="8" type="line"/>
      <point x="661" y="8" type="line"/>
      <point x="656" y="-6" type="line"/>
      <point x="602" y="33"/>
      <point x="535" y="87"/>
      <point x="311" y="343" type="curve" smooth="yes"/>
      <point x="308" y="346"/>
      <point x="308" y="350"/>
      <point x="311" y="353" type="curve" smooth="yes"/>
      <point x="542" y="598"/>
      <point x="591" y="647"/>
      <point x="648" y="687" type="curve"/>
      <point x="653" y="672" type="line"/>
      <point x="440" y="672" type="line"/>
      <point x="448" y="678" type="line"/>
      <point x="436" y="641"/>
      <point x="406" y="602"/>
      <point x="226" y="412" type="curve" smooth="yes"/>
      <point x="221" y="406"/>
      <point x="212" y="410"/>
      <point x="212" y="417" type="curve" smooth="yes"/>
      <point x="214" y="602"/>
      <point x="222" y="648"/>
      <point x="240" y="684" type="curve"/>
      <point x="247" y="672" type="line"/>
      <point x="50" y="672" type="line"/>
      <point x="57" y="684" type="line"/>
      <point x="77" y="644"/>
      <point x="85" y="592"/>
      <point x="85" y="349" type="curve" smooth="yes"/>
      <point x="85" y="92"/>
      <point x="77" y="37"/>
      <point x="57" y="-4" type="curve"/>
    </contour>
  </outline>
</glyph>
<glyph name="U" format="2">
  <advance width="684"/>
  <unicode hex="0055"/>
  <outline>
    <contour>
      <point x="342" y="-24" type="curve" smooth="yes"/>
      <point x="180" y="-24"/>
      <point x="66" y="70"/>
      <point x="66" y="223" type="curve" smooth="yes"/>
      <point x="66" y="349" type="line" smooth="yes"/>
      <point x="66" y="586"/>
      <point x="60" y="638"/>
      <point x="40" y="676" type="curve" smooth="yes"/>
      <point x="37" y="682"/>
      <point x="41" y="688"/>
      <point x="47" y="688" type="curve" smooth="yes"/>
      <point x="244" y="688" type="line" smooth="yes"/>
      <point x="250" y="688"/>
      <point x="254" y="682"/>
      <point x="251" y="676" type="curve" smooth="yes"/>
      <point x="231" y="638"/>
      <point x="225" y="586"/>
      <point x="225" y="349" type="curve" smooth="yes"/>
      <point x="225" y="244" type="line" smooth="yes"/>
      <point x="225" y="170"/>
      <point x="269" y="121"/>
      <point x="342" y="121" type="curve" smooth="yes"/>
      <point x="415" y="121"/>
      <point x="459" y="170"/>
      <point x="459" y="244" type="curve" smooth="yes"/>
      <point x="459" y="349" type="line" smooth="yes"/>
      <point x="459" y="586"/>
      <point x="453" y="638"/>
      <point x="433" y="676" type="curve" smooth="yes"/>
      <point x="430" y="682"/>
      <point x="434" y="688"/>
      <point x="440" y="688" type="curve" smooth="yes"/>
      <point x="637" y="688" type="line" smooth="yes"/>
      <point x="643" y="688"/>
      <point x="647" y="682"/>
      <point x="644" y="676" type="curve" smooth="yes"/>
      <point x="624" y="638"/>
      <point x="618" y="586"/>
      <point x="618" y="349" type="curve" smooth="yes"/>
      <point x="618" y="223" type="line" smooth="yes"/>
      <point x="618" y="70"/>
      <point x="504" y="-24"/>
    </contour>
    <contour>
      <point x="342" y="-8" type="curve" smooth="yes"/>
      <point x="494" y="-8"/>
      <point x="602" y="78"/>
      <point x="602" y="223" type="curve" smooth="yes"/>
      <point x="602" y="349" type="line" smooth="yes"/>
      <point x="602" y="592"/>
      <point x="610" y="644"/>
      <point x="630" y="684" type="curve"/>
      <point x="637" y="672" type="line"/>
      <point x="440" y="672" type="line"/>
      <point x="447" y="684" type="line"/>
      <point x="467" y="644"/>
      <point x="475" y="592"/>
      <point x="475" y="349" type="curve" smooth="yes"/>
      <point x="475" y="244" type="line" smooth="yes"/>
      <point x="475" y="160"/>
      <point x="423" y="105"/>
      <point x="342" y="105" type="curve" smooth="yes"/>
      <point x="261" y="105"/>
      <point x="209" y="160"/>
      <point x="209" y="244" type="curve" smooth="yes"/>
      <point x="209" y="349" type="line" smooth="yes"/>
      <point x="209" y="592"/>
      <point x="217" y="644"/>
      <point x="237" y="684" type="curve"/>
      <point x="244" y="672" type="line"/>
      <point x="47" y="672" type="line"/>
      <point x="54" y="684" type="line"/>
      <point x="74" y="644"/>
      <point x="82" y="592"/>
      <point x="82" y="349" type="curve" smooth="yes"/>
      <point x="82" y="223" type="line" smooth="yes"/>
      <point x="82" y="78"/>
      <point x="190" y="-8"/>
    </contour>
  </outline>
</glyph>
<glyph name="W" format="2">
  <advance width="914"/>
  <unicode hex="0057"/>
  <outline>
    <contour>
      <point x="568" y="-8" type="line" smooth="yes"/>
      <point x="564" y="-8"/>
      <point x="560" y="-5"/>
      <point x="560" y="-1" type="curve" smooth="yes"/>
      <point x="556" y="41"/>
      <point x="523" y="167"/>
      <point x="449" y="387" type="curve"/>
      <point x="465" y="388" type="line"/>
      <point x="391" y="156"/>
      <point x="351" y="42"/>
      <point x="352" y="0" type="curve" smooth="yes"/>
      <point x="352" y="-4"/>
      <point x="348" y="-8"/>
      <point x="344" y="-8" type="curve" smooth="yes"/>
      <point x="232" y="-8" type="line" smooth="yes"/>
      <point x="228" y="-8"/>
      <point x="225" y="-5"/>
      <point x="224" y="-1" type="curve" smooth="yes"/>
      <point x="219" y="38"/>
      <point x="206" y="90"/>
      <point x="128" y="329" type="curve" smooth="yes"/>
      <point x="46" y="581"/>
      <point x="25" y="636"/>
      <point x="-2" y="676" type="curve" smooth="yes"/>
      <point x="-5" y="681"/>
      <point x="-1" y="688"/>
      <point x="5" y="688" type="curve" smooth="yes"/>
      <point x="224" y="688" type="line" smooth="yes"/>
      <point x="230" y="688"/>
      <point x="234" y="682"/>
      <point x="231" y="677" type="curve" smooth="yes"/>
      <point x="209" y="628"/>
      <point x="215" y="583"/>
      <point x="307" y="288" type="curve"/>
      <point x="291" y="288" type="line"/>
      <point x="384" y="586"/>
      <point x="388" y="631"/>
      <point x="385" y="680" type="curve" smooth="yes"/>
      <point x="385" y="684"/>
      <point x="388" y="688"/>
      <point x="393" y="688" type="curve" smooth="yes"/>
      <point x="537" y="688" type="line" smooth="yes"/>
      <point x="542" y="688"/>
      <point x="545" y="684"/>
      <point x="545" y="680" type="curve" smooth="yes"/>
      <point x="542" y="631"/>
      <point x="544" y="585"/>
      <point x="636" y="290" type="curve"/>
      <point x="620" y="290" type="line"/>
      <point x="711" y="581"/>
      <point x="717" y="629"/>
      <point x="695" y="677" type="curve" smooth="yes"/>
      <point x="692" y="682"/>
      <point x="696" y="688"/>
      <point x="702" y="688" type="curve" smooth="yes"/>
      <point x="909" y="688" type="line" smooth="yes"/>
      <point x="915" y="688"/>
      <point x="919" y="681"/>
      <point x="916" y="676" type="curve" smooth="yes"/>
      <point x="889" y="636"/>
      <point x="868" y="581"/>
      <point x="786" y="329" type="curve" smooth="yes"/>
      <point x="708" y="92"/>
      <point x="690" y="39"/>
      <point x="690" y="0" type="curve" smooth="yes"/>
      <point x="690" y="-4"/>
      <point x="686" y="-8"/>
      <point x="682" y="-8" type="curve" smooth="yes"/>
    </contour>
    <contour>
      <point x="568" y="8" type="line"/>
      <point x="682" y="8" type="line"/>
      <point x="674" y="0" type="line"/>
      <point x="674" y="39"/>
      <point x="692" y="92"/>
      <point x="770" y="333" type="curve" smooth="yes"/>
      <point x="854" y="589"/>
      <point x="875" y="644"/>
      <point x="902" y="684" type="curve"/>
      <point x="909" y="672" type="line"/>
      <point x="702" y="672" type="line"/>
      <point x="709" y="683" type="line"/>
      <point x="733" y="634"/>
      <point x="729" y="587"/>
      <point x="636" y="286" type="curve" smooth="yes"/>
      <point x="633" y="278"/>
      <point x="623" y="278"/>
      <point x="620" y="286" type="curve" smooth="yes"/>
      <point x="528" y="583"/>
      <point x="526" y="631"/>
      <point x="529" y="680" type="curve"/>
      <point x="537" y="672" type="line"/>
      <point x="393" y="672" type="line"/>
      <point x="401" y="680" type="line"/>
      <point x="404" y="631"/>
      <point x="400" y="584"/>
      <point x="307" y="284" type="curve" smooth="yes"/>
      <point x="304" y="276"/>
      <point x="294" y="276"/>
      <point x="291" y="284" type="curve" smooth="yes"/>
      <point x="197" y="589"/>
      <point x="193" y="634"/>
      <point x="217" y="683" type="curve"/>
      <point x="224" y="672" type="line"/>
      <point x="5" y="672" type="line"/>
      <point x="12" y="684" type="line"/>
      <point x="39" y="644"/>
      <point x="60" y="589"/>
      <point x="144" y="333" type="curve" smooth="yes"/>
      <point x="222" y="94"/>
      <point x="235" y="40"/>
      <point x="240" y="1" type="curve"/>
      <point x="232" y="8" type="line"/>
      <point x="344" y="8" type="line"/>
      <point x="336" y="0" type="line"/>
      <point x="335" y="42"/>
      <point x="375" y="156"/>
      <point x="449" y="392" type="curve" smooth="yes"/>
      <point x="452" y="400"/>
      <point x="462" y="400"/>
      <point x="465" y="393" type="curve" smooth="yes"/>
      <point x="539" y="171"/>
      <point x="572" y="43"/>
      <point x="576" y="1" type="curve"/>
    </contour>
  </outline>
</glyph>
<glyph name="Z" format="2">
  <advance width="588"/>
  <unicode hex="005A"/>
  <outline>
    <contour>
      <point x="558" y="688" type="line" smooth="yes"/>
      <point x="564" y="688"/>
      <point x="568" y="682"/>
      <point x="565" y="676" type="curve" smooth="yes"/>
      <point x="266" y="121" type="line"/>
      <point x="259" y="133" type="line"/>
      <point x="448" y="129"/>
      <point x="498" y="143"/>
      <point x="535" y="172" type="curve" smooth="yes"/>
      <point x="541" y="177"/>
      <point x="549" y="172"/>
      <point x="548" y="165" type="curve" smooth="yes"/>
      <point x="528" y="-1" type="line" smooth="yes"/>
      <point x="527" y="-5"/>
      <point x="524" y="-8"/>
      <point x="520" y="-8" type="curve" smooth="yes"/>
      <point x="30" y="-8" type="line" smooth="yes"/>
      <point x="24" y="-8"/>
      <point x="20" y="-2"/>
      <point x="23" y="4" type="curve" smooth="yes"/>
      <point x="322" y="558" type="line"/>
      <point x="329" y="546" type="line"/>
      <point x="136" y="551"/>
      <point x="94" y="535"/>
      <point x="61" y="517" type="curve" smooth="yes"/>
      <point x="55" y="514"/>
      <point x="49" y="518"/>
      <point x="49" y="524" type="curve" smooth="yes"/>
      <point x="49" y="680" type="line" smooth="yes"/>
      <point x="49" y="684"/>
      <point x="53" y="688"/>
      <point x="57" y="688" type="curve" smooth="yes"/>
    </contour>
    <contour>
      <point x="558" y="672" type="line"/>
      <point x="57" y="672" type="line"/>
      <point x="65" y="680" type="line"/>
      <point x="65" y="524" type="line"/>
      <point x="53" y="531" type="line"/>
      <point x="88" y="549"/>
      <point x="132" y="567"/>
      <point x="329" y="562" type="curve" smooth="yes"/>
      <point x="335" y="562"/>
      <point x="339" y="555"/>
      <point x="336" y="550" type="curve" smooth="yes"/>
      <point x="37" y="-4" type="line"/>
      <point x="30" y="8" type="line"/>
      <point x="520" y="8" type="line"/>
      <point x="512" y="1" type="line"/>
      <point x="532" y="167" type="line"/>
      <point x="545" y="160" type="line"/>
      <point x="506" y="129"/>
      <point x="456" y="113"/>
      <point x="259" y="117" type="curve" smooth="yes"/>
      <point x="253" y="117"/>
      <point x="249" y="124"/>
      <point x="252" y="129" type="curve" smooth="yes"/>
      <point x="551" y="684" type="line"/>
    </contour>
  </outline>
</glyph>
<glyph name="backslash" format="2">
  <advance width="469"/>
  <unicode hex="005C"/>
  <outline>
    <contour>
      <point x="463" y="-72" type="line" smooth="yes"/>
      <point x="464" y="-77"/>
      <point x="461" y="-83"/>
      <point x="455" y="-83" type="curve" smooth="yes"/>
      <point x="314" y="-83" type="line" smooth="yes"/>
      <point x="311" y="-83"/>
      <point x="308" y="-81"/>
      <point x="306" y="-78" type="curve" smooth="yes"/>
      <point x="6" y="747" type="line" smooth="yes"/>
      <point x="5" y="752"/>
      <point x="8" y="758"/>
      <point x="14" y="758" type="curve" smooth="yes"/>
      <point x="155" y="758" type="line" smooth="yes"/>
      <point x="158" y="758"/>
      <point x="161" y="756"/>
      <point x="163" y="753" type="curve" smooth="yes"/>
    </contour>
    <contour>
      <point x="447" y="-78" type="line"/>
      <point x="147" y="747" type="line"/>
      <point x="155" y="742" type="line"/>
      <point x="14" y="742" type="line"/>
      <point x="22" y="753" type="line"/>
      <point x="322" y="-72" type="line"/>
      <point x="314" y="-67" type="line"/>
      <point x="455" y="-67" type="line"/>
    </contour>
  </outline>
</glyph>
<glyph name="asciicircum" format="2">
  <advance width="560"/>
  <unicode hex="005E"/>
  <outline>
    <contour>
      <point x="186" y="259" type="line" smooth="yes"/>
      <point x="185" y="257"/>
      <point x="182" y="255"/>
      <point x="179" y="255" type="curve" smooth="yes"/>
      <point x="33" y="255" type="line" smooth="yes"/>
      <point x="27" y="255"/>
      <point x="23" y="262"/>
      <point x="26" y="267" type="curve" smooth="yes"/>
      <point x="272" y="698" type="line" smooth="yes"/>
      <point x="275" y="703"/>
      <point x="283" y="703"/>
      <point x="286" y="698" type="curve" smooth="yes"/>
      <point x="532" y="267" type="line" smooth="yes"/>
      <point x="535" y="262"/>
      <point x="531" y="255"/>
      <point x="525" y="255" type="curve" smooth="yes"/>
      <point x="379" y="255" type="line" smooth="yes"/>
      <point x="376" y="255"/>
      <point x="373" y="257"/>
      <point x="372" y="259" type="curve" smooth="yes"/>
      <point x="272" y="438" type="line"/>
      <point x="286" y="438" type="line"/>
    </contour>
    <contour>
      <point x="172" y="267" type="line"/>
      <point x="272" y="446" type="line" smooth="yes"/>
      <point x="275" y="451"/>
      <point x="283" y="451"/>
      <point x="286" y="446" type="curve" smooth="yes"/>
      <point x="386" y="267" type="line"/>
      <point x="379" y="271" type="line"/>
      <point x="525" y="271" type="line"/>
      <point x="518" y="259" type="line"/>
      <point x="272" y="690" type="line"/>
      <point x="286" y="690" type="line"/>
      <point x="40" y="259" type="line"/>
      <point x="33" y="271" type="line"/>
      <point x="179" y="271" type="line"/>
    </contour>
  </outline>
</glyph>
<glyph name="grave" format="2">
  <advance width="408"/>
  <unicode hex="0060"/>
  <outline>
    <contour>
      <point x="328" y="592" type="line"/>
      <point x="321" y="580" type="line"/>
      <point x="212" y="776" type="line"/>
      <point x="219" y="772" type="line"/>
      <point x="60" y="772" type="line"/>
      <point x="67" y="785" type="line"/>
      <point x="201" y="589" type="line"/>
      <point x="194" y="592" type="line"/>
    </contour>
    <contour>
      <point x="328" y="576" type="curve" smooth="yes"/>
      <point x="194" y="576" type="line" smooth="yes"/>
      <point x="191" y="576"/>
      <point x="189" y="577"/>
      <point x="187" y="579" type="curve" smooth="yes"/>
      <point x="53" y="775" type="line" smooth="yes"/>
      <point x="50" y="781"/>
      <point x="54" y="788"/>
      <point x="60" y="788" type="curve" smooth="yes"/>
      <point x="219" y="788" type="line" smooth="yes"/>
      <point x="222" y="788"/>
      <point x="225" y="786"/>
      <point x="226" y="784" type="curve" smooth="yes"/>
      <point x="335" y="588" type="line" smooth="yes"/>
      <point x="338" y="583"/>
      <point x="334" y="576"/>
    </contour>
  </outline>
</glyph>
<glyph name="a" format="2">
  <advance width="614"/>
  <unicode hex="0061"/>
  <outline>
    <contour>
      <point x="625" y="5" type="curve" smooth="yes"/>
      <point x="629" y="0"/>
      <point x="626" y="-8"/>
      <point x="619" y="-8" type="curve" smooth="yes"/>
      <point x="406" y="-8" type="line" smooth="yes"/>
      <point x="400" y="-8"/>
      <point x="397" y="-3"/>
      <point x="398" y="3" type="curve" smooth="yes"/>
      <point x="407" y="27"/>
      <point x="412" y="51"/>
      <point x="394" y="117" type="curve"/>
      <point x="402" y="111" type="line"/>
      <point x="198" y="111" type="line"/>
      <point x="206" y="117" type="line"/>
      <point x="188" y="51"/>
      <point x="193" y="27"/>
      <point x="202" y="3" type="curve" smooth="yes"/>
      <point x="203" y="-3"/>
      <point x="200" y="-8"/>
      <point x="194" y="-8" type="curve" smooth="yes"/>
      <point x="-5" y="-8" type="line" smooth="yes"/>
      <point x="-12" y="-8"/>
      <point x="-15" y="0"/>
      <point x="-11" y="5" type="curve" smooth="yes"/>
      <point x="16" y="40"/>
      <point x="40" y="83"/>
      <point x="125" y="302" type="curve" smooth="yes"/>
      <point x="203" y="507"/>
      <point x="222" y="548"/>
      <point x="224" y="580" type="curve" smooth="yes"/>
      <point x="224" y="585"/>
      <point x="228" y="588"/>
      <point x="232" y="588" type="curve" smooth="yes"/>
      <point x="382" y="588" type="line" smooth="yes"/>
      <point x="386" y="588"/>
      <point x="389" y="585"/>
      <point x="390" y="581" type="curve" smooth="yes"/>
      <point x="396" y="549"/>
      <point x="410" y="509"/>
      <point x="489" y="302" type="curve" smooth="yes"/>
      <point x="573" y="83"/>
      <point x="598" y="40"/>
    </contour>
    <contour>
      <point x="293" y="400" type="line"/>
      <point x="307" y="400" type="line"/>
      <point x="244" y="235" type="line"/>
      <point x="237" y="246" type="line"/>
      <point x="363" y="246" type="line"/>
      <point x="356" y="235" type="line"/>
    </contour>
    <contour>
      <point x="613" y="-5" type="line"/>
      <point x="586" y="30"/>
      <point x="559" y="75"/>
      <point x="475" y="296" type="curve" smooth="yes"/>
      <point x="394" y="505"/>
      <point x="380" y="545"/>
      <point x="374" y="579" type="curve"/>
      <point x="382" y="572" type="line"/>
      <point x="232" y="572" type="line"/>
      <point x="240" y="580" type="line"/>
      <point x="238" y="546"/>
      <point x="221" y="507"/>
      <point x="139" y="296" type="curve" smooth="yes"/>
      <point x="54" y="75"/>
      <point x="28" y="30"/>
      <point x="1" y="-5" type="curve"/>
      <point x="-5" y="8" type="line"/>
      <point x="194" y="8" type="line"/>
      <point x="186" y="-3" type="line"/>
      <point x="177" y="23"/>
      <point x="172" y="51"/>
      <point x="190" y="121" type="curve" smooth="yes"/>
      <point x="191" y="125"/>
      <point x="194" y="127"/>
      <point x="198" y="127" type="curve" smooth="yes"/>
      <point x="402" y="127" type="line" smooth="yes"/>
      <point x="406" y="127"/>
      <point x="409" y="125"/>
      <point x="410" y="121" type="curve" smooth="yes"/>
      <point x="428" y="51"/>
      <point x="423" y="23"/>
      <point x="414" y="-3" type="curve"/>
      <point x="406" y="8" type="line"/>
      <point x="619" y="8" type="line"/>
    </contour>
    <contour>
      <point x="307" y="406" type="curve" smooth="yes"/>
      <point x="370" y="241" type="line" smooth="yes"/>
      <point x="372" y="236"/>
      <point x="369" y="230"/>
      <point x="363" y="230" type="curve" smooth="yes"/>
      <point x="237" y="230" type="line" smooth="yes"/>
      <point x="231" y="230"/>
      <point x="228" y="236"/>
      <point x="230" y="241" type="curve" smooth="yes"/>
      <point x="293" y="406" type="line" smooth="yes"/>
      <point x="295" y="413"/>
      <point x="305" y="413"/>
    </contour>
  </outline>
</glyph>
<glyph name="b" format="2">
  <advance width="534"/>
  <unicode hex="0062"/>
  <outline>
    <contour>
      <point x="50" y="-8" type="line" smooth="yes"/>
      <point x="44" y="-8"/>
      <point x="40" y="-2"/>
      <point x="43" y="4" type="curve" smooth="yes"/>
      <point x="61" y="38"/>
      <point x="69" y="84"/>
      <point x="69" y="299" type="curve" smooth="yes"/>
      <point x="69" y="500"/>
      <point x="61" y="542"/>
      <point x="43" y="576" type="curve" smooth="yes"/>
      <point x="40" y="582"/>
      <point x="44" y="588"/>
      <point x="50" y="588" type="curve" smooth="yes"/>
      <point x="272" y="588" type="line" smooth="yes"/>
      <point x="408" y="588"/>
      <point x="492" y="519"/>
      <point x="492" y="419" type="curve" smooth="yes"/>
      <point x="492" y="366"/>
      <point x="469" y="325"/>
      <point x="430" y="297" type="curve"/>
      <point x="429" y="311" type="line"/>
      <point x="482" y="282"/>
      <point x="512" y="234"/>
      <point x="512" y="172" type="curve" smooth="yes"/>
      <point x="512" y="66"/>
      <point x="424" y="-8"/>
      <point x="296" y="-8" type="curve" smooth="yes"/>
    </contour>
    <contour>
      <point x="282" y="456" type="curve" smooth="yes"/>
      <point x="218" y="456" type="line"/>
      <point x="226" y="463" type="line"/>
      <point x="224" y="435"/>
      <point x="223" y="399"/>
      <point x="222" y="352" type="curve"/>
      <point x="214" y="360" type="line"/>
      <point x="282" y="360" type="line" smooth="yes"/>
      <point x="311" y="360"/>
      <point x="332" y="379"/>
      <point x="332" y="407" type="curve" smooth="yes"/>
      <point x="332" y="437"/>
      <point x="313" y="456"/>
    </contour>
    <contour>
      <point x="292" y="235" type="curve" smooth="yes"/>
      <point x="214" y="235" type="line"/>
      <point x="222" y="243" type="line"/>
      <point x="223" y="189"/>
      <point x="224" y="148"/>
      <point x="226" y="116" type="curve"/>
      <point x="218" y="124" type="line"/>
      <point x="292" y="124" type="line" smooth="yes"/>
      <point x="327" y="124"/>
      <point x="352" y="145"/>
      <point x="352" y="180" type="curve" smooth="yes"/>
      <point x="352" y="214"/>
      <point x="329" y="235"/>
    </contour>
    <contour>
      <point x="50" y="8" type="line"/>
      <point x="296" y="8" type="line" smooth="yes"/>
      <point x="414" y="8"/>
      <point x="496" y="74"/>
      <point x="496" y="172" type="curve" smooth="yes"/>
      <point x="496" y="228"/>
      <point x="470" y="270"/>
      <point x="421" y="297" type="curve" smooth="yes"/>
      <point x="416" y="300"/>
      <point x="416" y="307"/>
      <point x="420" y="311" type="curve" smooth="yes"/>
      <point x="455" y="335"/>
      <point x="476" y="372"/>
      <point x="476" y="419" type="curve" smooth="yes"/>
      <point x="476" y="511"/>
      <point x="398" y="572"/>
      <point x="272" y="572" type="curve" smooth="yes"/>
      <point x="50" y="572" type="line"/>
      <point x="57" y="584" type="line"/>
      <point x="75" y="548"/>
      <point x="85" y="506"/>
      <point x="85" y="299" type="curve" smooth="yes"/>
      <point x="85" y="78"/>
      <point x="75" y="32"/>
      <point x="57" y="-4" type="curve"/>
    </contour>
    <contour>
      <point x="282" y="472" type="line" smooth="yes"/>
      <point x="323" y="472"/>
      <point x="348" y="445"/>
      <point x="348" y="407" type="curve" smooth="yes"/>
      <point x="348" y="371"/>
      <point x="319" y="344"/>
      <point x="282" y="344" type="curve" smooth="yes"/>
      <point x="214" y="344" type="line" smooth="yes"/>
      <point x="210" y="344"/>
      <point x="206" y="348"/>
      <point x="206" y="352" type="curve" smooth="yes"/>
      <point x="207" y="399"/>
      <point x="208" y="435"/>
      <point x="210" y="465" type="curve" smooth="yes"/>
      <point x="210" y="469"/>
      <point x="214" y="472"/>
      <point x="218" y="472" type="curve" smooth="yes"/>
    </contour>
    <contour>
      <point x="292" y="251" type="line" smooth="yes"/>
      <point x="339" y="251"/>
      <point x="368" y="222"/>
      <point x="368" y="180" type="curve" smooth="yes"/>
      <point x="368" y="137"/>
      <point x="335" y="108"/>
      <point x="292" y="108" type="curve" smooth="yes"/>
      <point x="218" y="108" type="line" smooth="yes"/>
      <point x="214" y="108"/>
      <point x="210" y="111"/>
      <point x="210" y="116" type="curve" smooth="yes"/>
      <point x="208" y="148"/>
      <point x="207" y="189"/>
      <point x="206" y="243" type="curve" smooth="yes"/>
      <point x="206" y="247"/>
      <point x="210" y="251"/>
      <point x="214" y="251" type="curve" smooth="yes"/>
    </contour>
  </outline>
</glyph>
<glyph name="c" format="2">
  <advance width="541"/>
  <unicode hex="0063"/>
  <outline>
    <contour>
      <point x="183" y="290" type="curve" smooth="yes"/>
      <point x="183" y="183"/>
      <point x="240" y="119"/>
      <point x="322" y="119" type="curve" smooth="yes"/>
      <point x="381" y="119"/>
      <point x="434" y="149"/>
      <point x="481" y="190" type="curve" smooth="yes"/>
      <point x="486" y="195"/>
      <point x="494" y="191"/>
      <point x="494" y="184" type="curve" smooth="yes"/>
      <point x="494" y="22" type="line" smooth="yes"/>
      <point x="494" y="19"/>
      <point x="492" y="16"/>
      <point x="489" y="15" type="curve" smooth="yes"/>
      <point x="442" y="-6"/>
      <point x="386" y="-20"/>
      <point x="322" y="-20" type="curve" smooth="yes"/>
      <point x="140" y="-20"/>
      <point x="21" y="106"/>
      <point x="21" y="288" type="curve" smooth="yes"/>
      <point x="21" y="471"/>
      <point x="140" y="600"/>
      <point x="322" y="600" type="curve" smooth="yes"/>
      <point x="386" y="600"/>
      <point x="442" y="586"/>
      <point x="489" y="565" type="curve" smooth="yes"/>
      <point x="492" y="564"/>
      <point x="494" y="561"/>
      <point x="494" y="558" type="curve" smooth="yes"/>
      <point x="494" y="396" type="line" smooth="yes"/>
      <point x="494" y="389"/>
      <point x="486" y="385"/>
      <point x="481" y="390" type="curve" smooth="yes"/>
      <point x="436" y="428"/>
      <point x="380" y="462"/>
      <point x="321" y="462" type="curve" smooth="yes"/>
      <point x="239" y="462"/>
      <point x="183" y="397"/>
    </contour>
    <contour>
      <point x="167" y="290" type="curve" smooth="yes"/>
      <point x="167" y="407"/>
      <point x="231" y="478"/>
      <point x="321" y="478" type="curve" smooth="yes"/>
      <point x="384" y="478"/>
      <point x="444" y="442"/>
      <point x="491" y="402" type="curve"/>
      <point x="478" y="396" type="line"/>
      <point x="478" y="558" type="line"/>
      <point x="483" y="551" type="line"/>
      <point x="438" y="570"/>
      <point x="384" y="584"/>
      <point x="322" y="584" type="curve" smooth="yes"/>
      <point x="148" y="584"/>
      <point x="37" y="463"/>
      <point x="37" y="288" type="curve" smooth="yes"/>
      <point x="37" y="114"/>
      <point x="148" y="-4"/>
      <point x="322" y="-4" type="curve" smooth="yes"/>
      <point x="384" y="-4"/>
      <point x="438" y="10"/>
      <point x="483" y="29" type="curve"/>
      <point x="478" y="22" type="line"/>
      <point x="478" y="184" type="line"/>
      <point x="491" y="178" type="line"/>
      <point x="442" y="135"/>
      <point x="385" y="103"/>
      <point x="322" y="103" type="curve" smooth="yes"/>
      <point x="232" y="103"/>
      <point x="167" y="173"/>
    </contour>
  </outline>
</glyph>
<glyph name="d" format="2">
  <advance width="623"/>
  <unicode hex="0064"/>
  <outline>
    <contour>
      <point x="50" y="-8" type="line" smooth="yes"/>
      <point x="44" y="-8"/>
      <point x="40" y="-2"/>
      <point x="43" y="4" type="curve" smooth="yes"/>
      <point x="61" y="38"/>
      <point x="69" y="84"/>
      <point x="69" y="299" type="curve" smooth="yes"/>
      <point x="69" y="499"/>
      <point x="61" y="542"/>
      <point x="43" y="576" type="curve" smooth="yes"/>
      <point x="40" y="582"/>
      <point x="44" y="588"/>
      <point x="50" y="588" type="curve" smooth="yes"/>
      <point x="294" y="588" type="line" smooth="yes"/>
      <point x="473" y="588"/>
      <point x="605" y="470"/>
      <point x="605" y="291" type="curve" smooth="yes"/>
      <point x="605" y="109"/>
      <point x="473" y="-8"/>
      <point x="294" y="-8" type="curve" smooth="yes"/>
    </contour>
    <contour>
      <point x="284" y="447" type="curve" smooth="yes"/>
      <point x="223" y="447" type="line"/>
      <point x="231" y="455" type="line"/>
      <point x="229" y="417"/>
      <point x="228" y="367"/>
      <point x="228" y="299" type="curve" smooth="yes"/>
      <point x="228" y="222"/>
      <point x="229" y="166"/>
      <point x="231" y="125" type="curve"/>
      <point x="223" y="133" type="line"/>
      <point x="284" y="133" type="line" smooth="yes"/>
      <point x="379" y="133"/>
      <point x="437" y="194"/>
      <point x="437" y="291" type="curve" smooth="yes"/>
      <point x="437" y="386"/>
      <point x="379" y="447"/>
    </contour>
    <contour>
      <point x="50" y="8" type="line"/>
      <point x="294" y="8" type="line" smooth="yes"/>
      <point x="465" y="8"/>
      <point x="589" y="119"/>
      <point x="589" y="291" type="curve" smooth="yes"/>
      <point x="589" y="462"/>
      <point x="465" y="572"/>
      <point x="294" y="572" type="curve" smooth="yes"/>
      <point x="50" y="572" type="line"/>
      <point x="57" y="584" type="line"/>
      <point x="75" y="548"/>
      <point x="85" y="505"/>
      <point x="85" y="299" type="curve" smooth="yes"/>
      <point x="85" y="78"/>
      <point x="75" y="32"/>
      <point x="57" y="-4" type="curve"/>
    </contour>
    <contour>
      <point x="284" y="463" type="line" smooth="yes"/>
      <point x="387" y="463"/>
      <point x="453" y="394"/>
      <point x="453" y="291" type="curve" smooth="yes"/>
      <point x="453" y="186"/>
      <point x="387" y="117"/>
      <point x="284" y="117" type="curve" smooth="yes"/>
      <point x="223" y="117" type="line" smooth="yes"/>
      <point x="219" y="117"/>
      <point x="215" y="120"/>
      <point x="215" y="125" type="curve" smooth="yes"/>
      <point x="213" y="166"/>
      <point x="212" y="222"/>
      <point x="212" y="299" type="curve" smooth="yes"/>
      <point x="212" y="367"/>
      <point x="213" y="417"/>
      <point x="215" y="455" type="curve" smooth="yes"/>
      <point x="215" y="460"/>
      <point x="219" y="463"/>
      <point x="223" y="463" type="curve" smooth="yes"/>
    </contour>
  </outline>
</glyph>
<glyph name="e" format="2">
  <advance width="485"/>
  <unicode hex="0065"/>
  <outline>
    <contour>
      <point x="50" y="-8" type="line" smooth="yes"/>
      <point x="44" y="-8"/>
      <point x="40" y="-2"/>
      <point x="43" y="4" type="curve" smooth="yes"/>
      <point x="61" y="38"/>
      <point x="69" y="84"/>
      <point x="69" y="299" type="curve" smooth="yes"/>
      <point x="69" y="499"/>
      <point x="61" y="542"/>
      <point x="43" y="576" type="curve" smooth="yes"/>
      <point x="40" y="582"/>
      <point x="44" y="588"/>
      <point x="50" y="588" type="curve" smooth="yes"/>
      <point x="421" y="588" type="line" smooth="yes"/>
      <point x="425" y="588"/>
      <point x="429" y="584"/>
      <point x="429" y="580" type="curve" smooth="yes"/>
      <point x="429" y="424" type="line" smooth="yes"/>
      <point x="429" y="418"/>
      <point x="423" y="414"/>
      <point x="417" y="417" type="curve" smooth="yes"/>
      <point x="390" y="432"/>
      <point x="359" y="448"/>
      <point x="223" y="447" type="curve"/>
      <point x="231" y="455" type="line"/>
      <point x="230" y="429"/>
      <point x="229" y="399"/>
      <point x="228" y="360" type="curve"/>
      <point x="220" y="368" type="line"/>
      <point x="341" y="370"/>
      <point x="365" y="375"/>
      <point x="390" y="389" type="curve" smooth="yes"/>
      <point x="396" y="392"/>
      <point x="402" y="388"/>
      <point x="402" y="382" type="curve" smooth="yes"/>
      <point x="402" y="219" type="line" smooth="yes"/>
      <point x="402" y="213"/>
      <point x="396" y="209"/>
      <point x="390" y="212" type="curve" smooth="yes"/>
      <point x="366" y="225"/>
      <point x="341" y="230"/>
      <point x="220" y="232" type="curve"/>
      <point x="228" y="240" type="line"/>
      <point x="229" y="192"/>
      <point x="230" y="155"/>
      <point x="231" y="125" type="curve"/>
      <point x="223" y="133" type="line"/>
      <point x="365" y="132"/>
      <point x="403" y="147"/>
      <point x="434" y="172" type="curve" smooth="yes"/>
      <point x="440" y="177"/>
      <point x="448" y="172"/>
      <point x="447" y="165" type="curve" smooth="yes"/>
      <point x="427" y="-1" type="line" smooth="yes"/>
      <point x="426" y="-5"/>
      <point x="423" y="-8"/>
      <point x="419" y="-8" type="curve" smooth="yes"/>
    </contour>
    <contour>
      <point x="50" y="8" type="line"/>
      <point x="419" y="8" type="line"/>
      <point x="411" y="1" type="line"/>
      <point x="431" y="167" type="line"/>
      <point x="444" y="160" type="line"/>
      <point x="411" y="133"/>
      <point x="371" y="116"/>
      <point x="223" y="117" type="curve" smooth="yes"/>
      <point x="219" y="117"/>
      <point x="215" y="120"/>
      <point x="215" y="125" type="curve" smooth="yes"/>
      <point x="214" y="155"/>
      <point x="213" y="192"/>
      <point x="212" y="240" type="curve" smooth="yes"/>
      <point x="212" y="244"/>
      <point x="216" y="248"/>
      <point x="220" y="248" type="curve" smooth="yes"/>
      <point x="347" y="246"/>
      <point x="372" y="239"/>
      <point x="398" y="226" type="curve"/>
      <point x="386" y="219" type="line"/>
      <point x="386" y="382" type="line"/>
      <point x="398" y="375" type="line"/>
      <point x="371" y="361"/>
      <point x="347" y="354"/>
      <point x="220" y="352" type="curve" smooth="yes"/>
      <point x="216" y="352"/>
      <point x="212" y="356"/>
      <point x="212" y="360" type="curve" smooth="yes"/>
      <point x="213" y="399"/>
      <point x="214" y="429"/>
      <point x="215" y="455" type="curve" smooth="yes"/>
      <point x="215" y="460"/>
      <point x="219" y="463"/>
      <point x="223" y="463" type="curve" smooth="yes"/>
      <point x="363" y="464"/>
      <point x="396" y="446"/>
      <point x="425" y="431" type="curve"/>
      <point x="413" y="424" type="line"/>
      <point x="413" y="580" type="line"/>
      <point x="421" y="572" type="line"/>
      <point x="50" y="572" type="line"/>
      <point x="57" y="584" type="line"/>
      <point x="75" y="548"/>
      <point x="85" y="505"/>
      <point x="85" y="299" type="curve" smooth="yes"/>
      <point x="85" y="78"/>
      <point x="75" y="32"/>
      <point x="57" y="-4" type="curve"/>
    </contour>
  </outline>
</glyph>
<glyph name="f" format="2">
  <advance width="463"/>
  <unicode hex="0066"/>
  <outline>
    <contour>
      <point x="50" y="-8" type="line" smooth="yes"/>
      <point x="44" y="-8"/>
      <point x="40" y="-2"/>
      <point x="43" y="4" type="curve" smooth="yes"/>
      <point x="61" y="38"/>
      <point x="69" y="84"/>
      <point x="69" y="299" type="curve" smooth="yes"/>
      <point x="69" y="499"/>
      <point x="61" y="542"/>
      <point x="43" y="576" type="curve" smooth="yes"/>
      <point x="40" y="582"/>
      <point x="44" y="588"/>
      <point x="50" y="588" type="curve" smooth="yes"/>
      <point x="423" y="588" type="line" smooth="yes"/>
      <point x="427" y="588"/>
      <point x="431" y="584"/>
      <point x="431" y="580" type="curve" smooth="yes"/>
      <point x="431" y="430" type="line" smooth="yes"/>
      <point x="431" y="424"/>
      <point x="425" y="420"/>
      <point x="419" y="423" type="curve" smooth="yes"/>
      <point x="392" y="438"/>
      <point x="363" y="455"/>
      <point x="217" y="453" type="curve"/>
      <point x="225" y="461" type="line"/>
      <point x="224" y="430"/>
      <point x="222" y="390"/>
      <point x="222" y="338" type="curve"/>
      <point x="214" y="346" type="line"/>
      <point x="344" y="347"/>
      <point x="366" y="353"/>
      <point x="392" y="367" type="curve" smooth="yes"/>
      <point x="398" y="370"/>
      <point x="404" y="366"/>
      <point x="404" y="360" type="curve" smooth="yes"/>
      <point x="404" y="203" type="line" smooth="yes"/>
      <point x="404" y="197"/>
      <point x="398" y="193"/>
      <point x="392" y="196" type="curve" smooth="yes"/>
      <point x="367" y="209"/>
      <point x="344" y="215"/>
      <point x="214" y="216" type="curve"/>
      <point x="222" y="224" type="line"/>
      <point x="224" y="72"/>
      <point x="232" y="34"/>
      <point x="248" y="4" type="curve" smooth="yes"/>
      <point x="251" y="-2"/>
      <point x="247" y="-8"/>
      <point x="241" y="-8" type="curve" smooth="yes"/>
    </contour>
    <contour>
      <point x="50" y="8" type="line"/>
      <point x="241" y="8" type="line"/>
      <point x="234" y="-4" type="line"/>
      <point x="218" y="28"/>
      <point x="208" y="66"/>
      <point x="206" y="224" type="curve" smooth="yes"/>
      <point x="206" y="228"/>
      <point x="210" y="232"/>
      <point x="214" y="232" type="curve" smooth="yes"/>
      <point x="350" y="231"/>
      <point x="373" y="223"/>
      <point x="400" y="210" type="curve"/>
      <point x="388" y="203" type="line"/>
      <point x="388" y="360" type="line"/>
      <point x="400" y="353" type="line"/>
      <point x="372" y="339"/>
      <point x="350" y="331"/>
      <point x="214" y="330" type="curve" smooth="yes"/>
      <point x="210" y="330"/>
      <point x="206" y="334"/>
      <point x="206" y="338" type="curve" smooth="yes"/>
      <point x="206" y="390"/>
      <point x="208" y="430"/>
      <point x="209" y="461" type="curve" smooth="yes"/>
      <point x="209" y="466"/>
      <point x="213" y="469"/>
      <point x="217" y="469" type="curve" smooth="yes"/>
      <point x="367" y="471"/>
      <point x="398" y="452"/>
      <point x="427" y="437" type="curve"/>
      <point x="415" y="430" type="line"/>
      <point x="415" y="580" type="line"/>
      <point x="423" y="572" type="line"/>
      <point x="50" y="572" type="line"/>
      <point x="57" y="584" type="line"/>
      <point x="75" y="548"/>
      <point x="85" y="505"/>
      <point x="85" y="299" type="curve" smooth="yes"/>
      <point x="85" y="78"/>
      <point x="75" y="32"/>
      <point x="57" y="-4" type="curve"/>
    </contour>
  </outline>
</glyph>
<glyph name="g" format="2">
  <advance width="592"/>
  <unicode hex="0067"/>
  <outline>
    <contour>
      <point x="541" y="40" type="curve" smooth="yes"/>
      <point x="541" y="37"/>
      <point x="539" y="34"/>
      <point x="536" y="33" type="curve" smooth="yes"/>
      <point x="464" y="2"/>
      <point x="401" y="-23"/>
      <point x="328" y="-23" type="curve" smooth="yes"/>
      <point x="141" y="-23"/>
      <point x="21" y="110"/>
      <point x="21" y="284" type="curve" smooth="yes"/>
      <point x="21" y="469"/>
      <point x="149" y="600"/>
      <point x="334" y="600" type="curve" smooth="yes"/>
      <point x="402" y="600"/>
      <point x="460" y="581"/>
      <point x="520" y="560" type="curve" smooth="yes"/>
      <point x="523" y="558"/>
      <point x="525" y="555"/>
      <point x="525" y="552" type="curve" smooth="yes"/>
      <point x="525" y="390" type="line" smooth="yes"/>
      <point x="525" y="383"/>
      <point x="517" y="379"/>
      <point x="512" y="384" type="curve" smooth="yes"/>
      <point x="456" y="433"/>
      <point x="399" y="463"/>
      <point x="336" y="463" type="curve" smooth="yes"/>
      <point x="242" y="463"/>
      <point x="183" y="397"/>
      <point x="183" y="291" type="curve" smooth="yes"/>
      <point x="183" y="184"/>
      <point x="242" y="116"/>
      <point x="338" y="116" type="curve" smooth="yes"/>
      <point x="359" y="116"/>
      <point x="379" y="120"/>
      <point x="399" y="127" type="curve"/>
      <point x="394" y="119" type="line"/>
      <point x="389" y="240"/>
      <point x="380" y="271"/>
      <point x="366" y="296" type="curve" smooth="yes"/>
      <point x="363" y="302"/>
      <point x="367" y="308"/>
      <point x="373" y="308" type="curve" smooth="yes"/>
      <point x="545" y="308" type="line" smooth="yes"/>
      <point x="550" y="308"/>
      <point x="554" y="303"/>
      <point x="553" y="298" type="curve" smooth="yes"/>
      <point x="546" y="268"/>
      <point x="540" y="228"/>
    </contour>
    <contour>
      <point x="525" y="40" type="line"/>
      <point x="524" y="230"/>
      <point x="530" y="272"/>
      <point x="537" y="302" type="curve"/>
      <point x="545" y="292" type="line"/>
      <point x="373" y="292" type="line"/>
      <point x="380" y="304" type="line"/>
      <point x="394" y="277"/>
      <point x="405" y="246"/>
      <point x="410" y="119" type="curve" smooth="yes"/>
      <point x="410" y="116"/>
      <point x="408" y="113"/>
      <point x="405" y="111" type="curve" smooth="yes"/>
      <point x="383" y="104"/>
      <point x="361" y="100"/>
      <point x="338" y="100" type="curve" smooth="yes"/>
      <point x="234" y="100"/>
      <point x="167" y="174"/>
      <point x="167" y="291" type="curve" smooth="yes"/>
      <point x="167" y="407"/>
      <point x="234" y="479"/>
      <point x="336" y="479" type="curve" smooth="yes"/>
      <point x="403" y="479"/>
      <point x="464" y="447"/>
      <point x="522" y="396" type="curve"/>
      <point x="509" y="390" type="line"/>
      <point x="509" y="552" type="line"/>
      <point x="514" y="544" type="line"/>
      <point x="456" y="565"/>
      <point x="400" y="584"/>
      <point x="334" y="584" type="curve" smooth="yes"/>
      <point x="158" y="584"/>
      <point x="37" y="460"/>
      <point x="37" y="284" type="curve" smooth="yes"/>
      <point x="37" y="118"/>
      <point x="151" y="-7"/>
      <point x="328" y="-7" type="curve" smooth="yes"/>
      <point x="399" y="-7"/>
      <point x="460" y="18"/>
      <point x="530" y="47" type="curve"/>
    </contour>
  </outline>
</glyph>
<glyph name="h" format="2">
  <advance width="639"/>
  <unicode hex="0068"/>
  <outline>
    <contour>
      <point x="50" y="-8" type="line" smooth="yes"/>
      <point x="44" y="-8"/>
      <point x="40" y="-2"/>
      <point x="43" y="4" type="curve" smooth="yes"/>
      <point x="61" y="38"/>
      <point x="69" y="84"/>
      <point x="69" y="299" type="curve" smooth="yes"/>
      <point x="69" y="499"/>
      <point x="61" y="542"/>
      <point x="43" y="576" type="curve" smooth="yes"/>
      <point x="40" y="582"/>
      <point x="44" y="588"/>
      <point x="50" y="588" type="curve" smooth="yes"/>
      <point x="247" y="588" type="line" smooth="yes"/>
      <point x="253" y="588"/>
      <point x="257" y="582"/>
      <point x="254" y="576" type="curve" smooth="yes"/>
      <point x="238" y="546"/>
      <point x="230" y="510"/>
      <point x="228" y="368" type="curve"/>
      <point x="220" y="376" type="line"/>
      <point x="419" y="376" type="line"/>
      <point x="411" y="368" type="line"/>
      <point x="409" y="510"/>
      <point x="401" y="546"/>
      <point x="385" y="576" type="curve" smooth="yes"/>
      <point x="382" y="582"/>
      <point x="386" y="588"/>
      <point x="392" y="588" type="curve" smooth="yes"/>
      <point x="589" y="588" type="line" smooth="yes"/>
      <point x="595" y="588"/>
      <point x="599" y="582"/>
      <point x="596" y="576" type="curve" smooth="yes"/>
      <point x="578" y="542"/>
      <point x="570" y="499"/>
      <point x="570" y="299" type="curve" smooth="yes"/>
      <point x="570" y="84"/>
      <point x="578" y="38"/>
      <point x="596" y="4" type="curve" smooth="yes"/>
      <point x="599" y="-2"/>
      <point x="595" y="-8"/>
      <point x="589" y="-8" type="curve" smooth="yes"/>
      <point x="392" y="-8" type="line" smooth="yes"/>
      <point x="386" y="-8"/>
      <point x="382" y="-2"/>
      <point x="385" y="4" type="curve" smooth="yes"/>
      <point x="401" y="35"/>
      <point x="409" y="75"/>
      <point x="411" y="241" type="curve"/>
      <point x="419" y="233" type="line"/>
      <point x="220" y="233" type="line"/>
      <point x="228" y="241" type="line"/>
      <point x="230" y="75"/>
      <point x="238" y="35"/>
      <point x="254" y="4" type="curve" smooth="yes"/>
      <point x="257" y="-2"/>
      <point x="253" y="-8"/>
      <point x="247" y="-8" type="curve" smooth="yes"/>
    </contour>
    <contour>
      <point x="50" y="8" type="line"/>
      <point x="247" y="8" type="line"/>
      <point x="240" y="-4" type="line"/>
      <point x="224" y="29"/>
      <point x="214" y="69"/>
      <point x="212" y="241" type="curve" smooth="yes"/>
      <point x="212" y="245"/>
      <point x="216" y="249"/>
      <point x="220" y="249" type="curve" smooth="yes"/>
      <point x="419" y="249" type="line" smooth="yes"/>
      <point x="423" y="249"/>
      <point x="427" y="245"/>
      <point x="427" y="241" type="curve" smooth="yes"/>
      <point x="425" y="69"/>
      <point x="415" y="29"/>
      <point x="399" y="-4" type="curve"/>
      <point x="392" y="8" type="line"/>
      <point x="589" y="8" type="line"/>
      <point x="582" y="-4" type="line"/>
      <point x="564" y="32"/>
      <point x="554" y="78"/>
      <point x="554" y="299" type="curve" smooth="yes"/>
      <point x="554" y="505"/>
      <point x="564" y="548"/>
      <point x="582" y="584" type="curve"/>
      <point x="589" y="572" type="line"/>
      <point x="392" y="572" type="line"/>
      <point x="399" y="584" type="line"/>
      <point x="415" y="552"/>
      <point x="425" y="516"/>
      <point x="427" y="368" type="curve" smooth="yes"/>
      <point x="427" y="364"/>
      <point x="423" y="360"/>
      <point x="419" y="360" type="curve" smooth="yes"/>
      <point x="220" y="360" type="line" smooth="yes"/>
      <point x="216" y="360"/>
      <point x="212" y="364"/>
      <point x="212" y="368" type="curve" smooth="yes"/>
      <point x="214" y="516"/>
      <point x="224" y="552"/>
      <point x="240" y="584" type="curve"/>
      <point x="247" y="572" type="line"/>
      <point x="50" y="572" type="line"/>
      <point x="57" y="584" type="line"/>
      <point x="75" y="548"/>
      <point x="85" y="505"/>
      <point x="85" y="299" type="curve" smooth="yes"/>
      <point x="85" y="78"/>
      <point x="75" y="32"/>
      <point x="57" y="-4" type="curve"/>
    </contour>
  </outline>
</glyph>
<glyph name="i" format="2">
  <advance width="307"/>
  <unicode hex="0069"/>
  <outline>
    <contour>
      <point x="55" y="-8" type="line" smooth="yes"/>
      <point x="49" y="-8"/>
      <point x="45" y="-2"/>
      <point x="48" y="4" type="curve" smooth="yes"/>
      <point x="66" y="38"/>
      <point x="74" y="84"/>
      <point x="74" y="299" type="curve" smooth="yes"/>
      <point x="74" y="499"/>
      <point x="66" y="542"/>
      <point x="48" y="576" type="curve" smooth="yes"/>
      <point x="45" y="582"/>
      <point x="49" y="588"/>
      <point x="55" y="588" type="curve" smooth="yes"/>
      <point x="252" y="588" type="line" smooth="yes"/>
      <point x="258" y="588"/>
      <point x="262" y="582"/>
      <point x="259" y="576" type="curve" smooth="yes"/>
      <point x="241" y="542"/>
      <point x="233" y="499"/>
      <point x="233" y="299" type="curve" smooth="yes"/>
      <point x="233" y="84"/>
      <point x="241" y="38"/>
      <point x="259" y="4" type="curve" smooth="yes"/>
      <point x="262" y="-2"/>
      <point x="258" y="-8"/>
      <point x="252" y="-8" type="curve" smooth="yes"/>
    </contour>
    <contour>
      <point x="55" y="8" type="line"/>
      <point x="252" y="8" type="line"/>
      <point x="245" y="-4" type="line"/>
      <point x="227" y="32"/>
      <point x="217" y="78"/>
      <point x="217" y="299" type="curve" smooth="yes"/>
      <point x="217" y="505"/>
      <point x="227" y="548"/>
      <point x="245" y="584" type="curve"/>
      <point x="252" y="572" type="line"/>
      <point x="55" y="572" type="line"/>
      <point x="62" y="584" type="line"/>
      <point x="80" y="548"/>
      <point x="90" y="505"/>
      <point x="90" y="299" type="curve" smooth="yes"/>
      <point x="90" y="78"/>
      <point x="80" y="32"/>
      <point x="62" y="-4" type="curve"/>
    </contour>
  </outline>
</glyph>
<glyph name="k" format="2">
  <advance width="599"/>
  <unicode hex="006B"/>
  <outline>
    <contour>
      <point x="50" y="-8" type="line" smooth="yes"/>
      <point x="44" y="-8"/>
      <point x="40" y="-2"/>
      <point x="43" y="4" type="curve" smooth="yes"/>
      <point x="61" y="38"/>
      <point x="69" y="84"/>
      <point x="69" y="299" type="curve" smooth="yes"/>
      <point x="69" y="499"/>
      <point x="61" y="542"/>
      <point x="43" y="576" type="curve" smooth="yes"/>
      <point x="40" y="582"/>
      <point x="44" y="588"/>
      <point x="50" y="588" type="curve" smooth="yes"/>
      <point x="241" y="588" type="line" smooth="yes"/>
      <point x="247" y="588"/>
      <point x="251" y="582"/>
      <point x="248" y="576" type="curve" smooth="yes"/>
      <point x="231" y="545"/>
      <point x="224" y="506"/>
      <point x="222" y="345" type="curve"/>
      <point x="208" y="350" type="line"/>
      <point x="360" y="524"/>
      <point x="379" y="550"/>
      <point x="386" y="582" type="curve" smooth="yes"/>
      <point x="387" y="585"/>
      <point x="390" y="588"/>
      <point x="394" y="588" type="curve" smooth="yes"/>
      <point x="601" y="588" type="line" smooth="yes"/>
      <point x="609" y="588"/>
      <point x="612" y="578"/>
      <point x="606" y="574" type="curve" smooth="yes"/>
      <point x="558" y="539"/>
      <point x="526" y="511"/>
      <point x="347" y="305" type="curve"/>
      <point x="347" y="315" type="line"/>
      <point x="519" y="85"/>
      <point x="570" y="40"/>
      <point x="614" y="6" type="curve" smooth="yes"/>
      <point x="620" y="2"/>
      <point x="617" y="-8"/>
      <point x="609" y="-8" type="curve" smooth="yes"/>
      <point x="382" y="-8" type="line" smooth="yes"/>
      <point x="378" y="-8"/>
      <point x="375" y="-5"/>
      <point x="374" y="-2" type="curve" smooth="yes"/>
      <point x="367" y="31"/>
      <point x="346" y="73"/>
      <point x="208" y="253" type="curve"/>
      <point x="222" y="258" type="line"/>
      <point x="223" y="78"/>
      <point x="231" y="36"/>
      <point x="248" y="4" type="curve" smooth="yes"/>
      <point x="251" y="-2"/>
      <point x="247" y="-8"/>
      <point x="241" y="-8" type="curve" smooth="yes"/>
    </contour>
    <contour>
      <point x="50" y="8" type="line"/>
      <point x="241" y="8" type="line"/>
      <point x="234" y="-4" type="line"/>
      <point x="217" y="30"/>
      <point x="207" y="72"/>
      <point x="206" y="258" type="curve" smooth="yes"/>
      <point x="206" y="266"/>
      <point x="216" y="269"/>
      <point x="220" y="263" type="curve" smooth="yes"/>
      <point x="362" y="77"/>
      <point x="383" y="35"/>
      <point x="390" y="2" type="curve"/>
      <point x="382" y="8" type="line"/>
      <point x="609" y="8" type="line"/>
      <point x="604" y="-6" type="line"/>
      <point x="560" y="28"/>
      <point x="507" y="73"/>
      <point x="335" y="305" type="curve" smooth="yes"/>
      <point x="332" y="308"/>
      <point x="332" y="312"/>
      <point x="335" y="315" type="curve" smooth="yes"/>
      <point x="516" y="523"/>
      <point x="548" y="551"/>
      <point x="596" y="586" type="curve"/>
      <point x="601" y="572" type="line"/>
      <point x="394" y="572" type="line"/>
      <point x="402" y="578" type="line"/>
      <point x="395" y="546"/>
      <point x="378" y="520"/>
      <point x="220" y="340" type="curve" smooth="yes"/>
      <point x="215" y="334"/>
      <point x="206" y="338"/>
      <point x="206" y="345" type="curve" smooth="yes"/>
      <point x="208" y="512"/>
      <point x="217" y="551"/>
      <point x="234" y="584" type="curve"/>
      <point x="241" y="572" type="line"/>
      <point x="50" y="572" type="line"/>
      <point x="57" y="584" type="line"/>
      <point x="75" y="548"/>
      <point x="85" y="505"/>
      <point x="85" y="299" type="curve" smooth="yes"/>
      <point x="85" y="78"/>
      <point x="75" y="32"/>
      <point x="57" y="-4" type="curve"/>
    </contour>
  </outline>
</glyph>
<glyph name="m" format="2">
  <advance width="786"/>
  <unicode hex="006D"/>
  <outline>
    <contour>
      <point x="50" y="-8" type="line" smooth="yes"/>
      <point x="44" y="-8"/>
      <point x="40" y="-2"/>
      <point x="43" y="4" type="curve" smooth="yes"/>
      <point x="61" y="38"/>
      <point x="69" y="84"/>
      <point x="69" y="299" type="curve" smooth="yes"/>
      <point x="69" y="499"/>
      <point x="61" y="542"/>
      <point x="43" y="576" type="curve" smooth="yes"/>
      <point x="40" y="582"/>
      <point x="44" y="588"/>
      <point x="50" y="588" type="curve" smooth="yes"/>
      <point x="296" y="588" type="line" smooth="yes"/>
      <point x="301" y="588"/>
      <point x="304" y="584"/>
      <point x="304" y="580" type="curve" smooth="yes"/>
      <point x="302" y="538"/>
      <point x="313" y="499"/>
      <point x="386" y="284" type="curve" smooth="yes"/>
      <point x="403" y="233" type="line"/>
      <point x="388" y="233" type="line"/>
      <point x="406" y="284" type="line" smooth="yes"/>
      <point x="486" y="501"/>
      <point x="492" y="538"/>
      <point x="491" y="580" type="curve" smooth="yes"/>
      <point x="491" y="584"/>
      <point x="495" y="588"/>
      <point x="499" y="588" type="curve" smooth="yes"/>
      <point x="736" y="588" type="line" smooth="yes"/>
      <point x="742" y="588"/>
      <point x="746" y="582"/>
      <point x="743" y="576" type="curve" smooth="yes"/>
      <point x="725" y="542"/>
      <point x="717" y="499"/>
      <point x="717" y="299" type="curve" smooth="yes"/>
      <point x="717" y="84"/>
      <point x="725" y="38"/>
      <point x="743" y="4" type="curve" smooth="yes"/>
      <point x="746" y="-2"/>
      <point x="742" y="-8"/>
      <point x="736" y="-8" type="curve" smooth="yes"/>
      <point x="554" y="-8" type="line" smooth="yes"/>
      <point x="548" y="-8"/>
      <point x="544" y="-2"/>
      <point x="547" y="4" type="curve" smooth="yes"/>
      <point x="565" y="38"/>
      <point x="573" y="84"/>
      <point x="573" y="299" type="curve" smooth="yes"/>
      <point x="573" y="347"/>
      <point x="573" y="385"/>
      <point x="572" y="417" type="curve"/>
      <point x="587" y="414" type="line"/>
      <point x="572" y="379"/>
      <point x="556" y="334"/>
      <point x="535" y="278" type="curve" smooth="yes"/>
      <point x="459" y="74"/>
      <point x="446" y="31"/>
      <point x="437" y="-2" type="curve" smooth="yes"/>
      <point x="436" y="-6"/>
      <point x="433" y="-8"/>
      <point x="429" y="-8" type="curve" smooth="yes"/>
      <point x="344" y="-8" type="line" smooth="yes"/>
      <point x="340" y="-8"/>
      <point x="337" y="-5"/>
      <point x="336" y="-2" type="curve" smooth="yes"/>
      <point x="329" y="31"/>
      <point x="318" y="74"/>
      <point x="242" y="278" type="curve" smooth="yes"/>
      <point x="224" y="331"/>
      <point x="208" y="374"/>
      <point x="194" y="409" type="curve"/>
      <point x="209" y="412" type="line"/>
      <point x="208" y="381"/>
      <point x="208" y="344"/>
      <point x="208" y="299" type="curve" smooth="yes"/>
      <point x="208" y="84"/>
      <point x="216" y="38"/>
      <point x="234" y="4" type="curve" smooth="yes"/>
      <point x="237" y="-2"/>
      <point x="233" y="-8"/>
      <point x="227" y="-8" type="curve" smooth="yes"/>
    </contour>
    <contour>
      <point x="50" y="8" type="line"/>
      <point x="227" y="8" type="line"/>
      <point x="220" y="-4" type="line"/>
      <point x="202" y="32"/>
      <point x="192" y="78"/>
      <point x="192" y="299" type="curve" smooth="yes"/>
      <point x="192" y="344"/>
      <point x="192" y="381"/>
      <point x="193" y="412" type="curve" smooth="yes"/>
      <point x="193" y="421"/>
      <point x="205" y="423"/>
      <point x="208" y="415" type="curve" smooth="yes"/>
      <point x="222" y="380"/>
      <point x="238" y="337"/>
      <point x="258" y="284" type="curve" smooth="yes"/>
      <point x="334" y="78"/>
      <point x="345" y="35"/>
      <point x="352" y="2" type="curve"/>
      <point x="344" y="8" type="line"/>
      <point x="429" y="8" type="line"/>
      <point x="421" y="2" type="line"/>
      <point x="430" y="35"/>
      <point x="443" y="78"/>
      <point x="521" y="284" type="curve" smooth="yes"/>
      <point x="542" y="340"/>
      <point x="558" y="385"/>
      <point x="573" y="420" type="curve" smooth="yes"/>
      <point x="576" y="428"/>
      <point x="588" y="426"/>
      <point x="588" y="417" type="curve" smooth="yes"/>
      <point x="589" y="385"/>
      <point x="589" y="347"/>
      <point x="589" y="299" type="curve" smooth="yes"/>
      <point x="589" y="78"/>
      <point x="579" y="32"/>
      <point x="561" y="-4" type="curve"/>
      <point x="554" y="8" type="line"/>
      <point x="736" y="8" type="line"/>
      <point x="729" y="-4" type="line"/>
      <point x="711" y="32"/>
      <point x="701" y="78"/>
      <point x="701" y="299" type="curve" smooth="yes"/>
      <point x="701" y="505"/>
      <point x="711" y="548"/>
      <point x="729" y="584" type="curve"/>
      <point x="736" y="572" type="line"/>
      <point x="499" y="572" type="line"/>
      <point x="507" y="580" type="line"/>
      <point x="508" y="538"/>
      <point x="502" y="499"/>
      <point x="422" y="278" type="curve" smooth="yes"/>
      <point x="402" y="227" type="line" smooth="yes"/>
      <point x="400" y="220"/>
      <point x="390" y="220"/>
      <point x="387" y="227" type="curve" smooth="yes"/>
      <point x="370" y="278" type="line" smooth="yes"/>
      <point x="297" y="499"/>
      <point x="286" y="538"/>
      <point x="288" y="580" type="curve"/>
      <point x="296" y="572" type="line"/>
      <point x="50" y="572" type="line"/>
      <point x="57" y="584" type="line"/>
      <point x="75" y="548"/>
      <point x="85" y="505"/>
      <point x="85" y="299" type="curve" smooth="yes"/>
      <point x="85" y="78"/>
      <point x="75" y="32"/>
      <point x="57" y="-4" type="curve"/>
    </contour>
  </outline>
</glyph>
<glyph name="n" format="2">
  <advance width="635"/>
  <unicode hex="006E"/>
  <outline>
    <contour>
      <point x="583" y="2" type="curve" smooth="yes"/>
      <point x="584" y="-3"/>
      <point x="580" y="-8"/>
      <point x="575" y="-8" type="curve" smooth="yes"/>
      <point x="439" y="-8" type="line" smooth="yes"/>
      <point x="436" y="-8"/>
      <point x="434" y="-7"/>
      <point x="432" y="-5" type="curve" smooth="yes"/>
      <point x="203" y="320" type="line"/>
      <point x="218" y="325" type="line"/>
      <point x="218" y="94"/>
      <point x="225" y="42"/>
      <point x="244" y="4" type="curve" smooth="yes"/>
      <point x="247" y="-2"/>
      <point x="243" y="-8"/>
      <point x="237" y="-8" type="curve" smooth="yes"/>
      <point x="50" y="-8" type="line" smooth="yes"/>
      <point x="44" y="-8"/>
      <point x="40" y="-2"/>
      <point x="43" y="4" type="curve" smooth="yes"/>
      <point x="63" y="43"/>
      <point x="69" y="98"/>
      <point x="69" y="349" type="curve" smooth="yes"/>
      <point x="69" y="514"/>
      <point x="58" y="547"/>
      <point x="43" y="576" type="curve" smooth="yes"/>
      <point x="40" y="582"/>
      <point x="44" y="588"/>
      <point x="50" y="588" type="curve" smooth="yes"/>
      <point x="206" y="588" type="line" smooth="yes"/>
      <point x="209" y="588"/>
      <point x="211" y="587"/>
      <point x="213" y="585" type="curve" smooth="yes"/>
      <point x="432" y="273" type="line"/>
      <point x="417" y="268" type="line"/>
      <point x="417" y="349" type="line" smooth="yes"/>
      <point x="417" y="514"/>
      <point x="406" y="547"/>
      <point x="391" y="576" type="curve" smooth="yes"/>
      <point x="388" y="582"/>
      <point x="392" y="588"/>
      <point x="398" y="588" type="curve" smooth="yes"/>
      <point x="585" y="588" type="line" smooth="yes"/>
      <point x="591" y="588"/>
      <point x="595" y="582"/>
      <point x="592" y="576" type="curve" smooth="yes"/>
      <point x="577" y="547"/>
      <point x="566" y="514"/>
      <point x="566" y="349" type="curve" smooth="yes"/>
      <point x="566" y="96"/>
      <point x="571" y="52"/>
    </contour>
    <contour>
      <point x="567" y="-2" type="line"/>
      <point x="555" y="48"/>
      <point x="550" y="94"/>
      <point x="550" y="349" type="curve" smooth="yes"/>
      <point x="550" y="518"/>
      <point x="563" y="553"/>
      <point x="578" y="584" type="curve"/>
      <point x="585" y="572" type="line"/>
      <point x="398" y="572" type="line"/>
      <point x="405" y="584" type="line"/>
      <point x="420" y="553"/>
      <point x="433" y="518"/>
      <point x="433" y="349" type="curve" smooth="yes"/>
      <point x="433" y="268" type="line" smooth="yes"/>
      <point x="433" y="260"/>
      <point x="423" y="257"/>
      <point x="418" y="263" type="curve" smooth="yes"/>
      <point x="199" y="575" type="line"/>
      <point x="206" y="572" type="line"/>
      <point x="50" y="572" type="line"/>
      <point x="57" y="584" type="line"/>
      <point x="72" y="553"/>
      <point x="85" y="518"/>
      <point x="85" y="349" type="curve" smooth="yes"/>
      <point x="85" y="92"/>
      <point x="77" y="37"/>
      <point x="57" y="-4" type="curve"/>
      <point x="50" y="8" type="line"/>
      <point x="237" y="8" type="line"/>
      <point x="230" y="-4" type="line"/>
      <point x="211" y="36"/>
      <point x="202" y="88"/>
      <point x="202" y="325" type="curve" smooth="yes"/>
      <point x="202" y="333"/>
      <point x="212" y="336"/>
      <point x="217" y="330" type="curve" smooth="yes"/>
      <point x="446" y="5" type="line"/>
      <point x="439" y="8" type="line"/>
      <point x="575" y="8" type="line"/>
    </contour>
  </outline>
</glyph>
<glyph name="o" format="2">
  <advance width="638"/>
  <unicode hex="006F"/>
  <outline>
    <contour>
      <point x="319" y="107" type="curve" smooth="yes"/>
      <point x="231" y="107"/>
      <point x="170" y="177"/>
      <point x="170" y="291" type="curve" smooth="yes"/>
      <point x="170" y="405"/>
      <point x="231" y="473"/>
      <point x="319" y="473" type="curve" smooth="yes"/>
      <point x="407" y="473"/>
      <point x="468" y="404"/>
      <point x="468" y="291" type="curve" smooth="yes"/>
      <point x="468" y="177"/>
      <point x="407" y="107"/>
    </contour>
    <contour>
      <point x="319" y="-20" type="curve" smooth="yes"/>
      <point x="143" y="-20"/>
      <point x="18" y="109"/>
      <point x="18" y="291" type="curve" smooth="yes"/>
      <point x="18" y="471"/>
      <point x="143" y="600"/>
      <point x="319" y="600" type="curve" smooth="yes"/>
      <point x="493" y="600"/>
      <point x="620" y="471"/>
      <point x="620" y="291" type="curve" smooth="yes"/>
      <point x="620" y="109"/>
      <point x="493" y="-20"/>
    </contour>
    <contour>
      <point x="319" y="123" type="curve" smooth="yes"/>
      <point x="399" y="123"/>
      <point x="452" y="187"/>
      <point x="452" y="291" type="curve" smooth="yes"/>
      <point x="452" y="394"/>
      <point x="399" y="457"/>
      <point x="319" y="457" type="curve" smooth="yes"/>
      <point x="239" y="457"/>
      <point x="186" y="395"/>
      <point x="186" y="291" type="curve" smooth="yes"/>
      <point x="186" y="187"/>
      <point x="239" y="123"/>
    </contour>
    <contour>
      <point x="319" y="-4" type="curve" smooth="yes"/>
      <point x="485" y="-4"/>
      <point x="604" y="119"/>
      <point x="604" y="291" type="curve" smooth="yes"/>
      <point x="604" y="463"/>
      <point x="485" y="584"/>
      <point x="319" y="584" type="curve" smooth="yes"/>
      <point x="151" y="584"/>
      <point x="34" y="463"/>
      <point x="34" y="291" type="curve" smooth="yes"/>
      <point x="34" y="119"/>
      <point x="151" y="-4"/>
    </contour>
  </outline>
</glyph>
<glyph name="p" format="2">
  <advance width="546"/>
  <unicode hex="0070"/>
  <outline>
    <contour>
      <point x="50" y="-8" type="line" smooth="yes"/>
      <point x="44" y="-8"/>
      <point x="40" y="-2"/>
      <point x="43" y="4" type="curve" smooth="yes"/>
      <point x="59" y="34"/>
      <point x="69" y="71"/>
      <point x="69" y="249" type="curve" smooth="yes"/>
      <point x="69" y="486"/>
      <point x="63" y="538"/>
      <point x="43" y="576" type="curve" smooth="yes"/>
      <point x="40" y="582"/>
      <point x="44" y="588"/>
      <point x="50" y="588" type="curve" smooth="yes"/>
      <point x="295" y="588" type="line" smooth="yes"/>
      <point x="443" y="588"/>
      <point x="534" y="503"/>
      <point x="534" y="376" type="curve" smooth="yes"/>
      <point x="534" y="249"/>
      <point x="443" y="162"/>
      <point x="295" y="162" type="curve" smooth="yes"/>
      <point x="215" y="162" type="line"/>
      <point x="223" y="170" type="line"/>
      <point x="226" y="58"/>
      <point x="235" y="29"/>
      <point x="248" y="4" type="curve" smooth="yes"/>
      <point x="251" y="-2"/>
      <point x="247" y="-8"/>
      <point x="241" y="-8" type="curve" smooth="yes"/>
    </contour>
    <contour>
      <point x="377" y="374" type="curve" smooth="yes"/>
      <point x="377" y="422"/>
      <point x="348" y="453"/>
      <point x="297" y="453" type="curve" smooth="yes"/>
      <point x="218" y="453" type="line"/>
      <point x="226" y="461" type="line"/>
      <point x="224" y="421"/>
      <point x="222" y="366"/>
      <point x="222" y="289" type="curve"/>
      <point x="214" y="297" type="line"/>
      <point x="297" y="297" type="line" smooth="yes"/>
      <point x="348" y="297"/>
      <point x="377" y="326"/>
    </contour>
    <contour>
      <point x="50" y="8" type="line"/>
      <point x="241" y="8" type="line"/>
      <point x="234" y="-4" type="line"/>
      <point x="221" y="23"/>
      <point x="210" y="54"/>
      <point x="207" y="170" type="curve" smooth="yes"/>
      <point x="207" y="174"/>
      <point x="210" y="178"/>
      <point x="215" y="178" type="curve" smooth="yes"/>
      <point x="295" y="178" type="line" smooth="yes"/>
      <point x="433" y="178"/>
      <point x="518" y="257"/>
      <point x="518" y="376" type="curve" smooth="yes"/>
      <point x="518" y="495"/>
      <point x="433" y="572"/>
      <point x="295" y="572" type="curve" smooth="yes"/>
      <point x="50" y="572" type="line"/>
      <point x="57" y="584" type="line"/>
      <point x="77" y="544"/>
      <point x="85" y="492"/>
      <point x="85" y="249" type="curve" smooth="yes"/>
      <point x="85" y="65"/>
      <point x="73" y="28"/>
      <point x="57" y="-4" type="curve"/>
    </contour>
    <contour>
      <point x="393" y="374" type="curve" smooth="yes"/>
      <point x="393" y="318"/>
      <point x="358" y="281"/>
      <point x="297" y="281" type="curve" smooth="yes"/>
      <point x="214" y="281" type="line" smooth="yes"/>
      <point x="210" y="281"/>
      <point x="206" y="285"/>
      <point x="206" y="289" type="curve" smooth="yes"/>
      <point x="206" y="366"/>
      <point x="208" y="421"/>
      <point x="210" y="461" type="curve" smooth="yes"/>
      <point x="210" y="466"/>
      <point x="214" y="469"/>
      <point x="218" y="469" type="curve" smooth="yes"/>
      <point x="297" y="469" type="line" smooth="yes"/>
      <point x="358" y="469"/>
      <point x="393" y="430"/>
    </contour>
  </outline>
</glyph>
<glyph name="q" format="2">
  <advance width="638"/>
  <unicode hex="0071"/>
  <outline>
    <contour>
      <point x="319" y="-20" type="curve" smooth="yes"/>
      <point x="145" y="-20"/>
      <point x="21" y="109"/>
      <point x="21" y="291" type="curve" smooth="yes"/>
      <point x="21" y="471"/>
      <point x="145" y="600"/>
      <point x="319" y="600" type="curve" smooth="yes"/>
      <point x="491" y="600"/>
      <point x="617" y="472"/>
      <point x="617" y="291" type="curve" smooth="yes"/>
      <point x="617" y="194"/>
      <point x="581" y="112"/>
      <point x="521" y="56" type="curve"/>
      <point x="522" y="67" type="line"/>
      <point x="567" y="11"/>
      <point x="616" y="-20"/>
      <point x="721" y="-53" type="curve" smooth="yes"/>
      <point x="727" y="-55"/>
      <point x="729" y="-61"/>
      <point x="726" y="-66" type="curve" smooth="yes"/>
      <point x="656" y="-167"/>
      <point x="499" y="-154"/>
      <point x="386" y="-9" type="curve"/>
      <point x="394" y="-12" type="line"/>
      <point x="370" y="-17"/>
      <point x="345" y="-20"/>
    </contour>
    <contour>
      <point x="319" y="117" type="curve" smooth="yes"/>
      <point x="401" y="117"/>
      <point x="455" y="183"/>
      <point x="455" y="291" type="curve" smooth="yes"/>
      <point x="455" y="398"/>
      <point x="401" y="463"/>
      <point x="319" y="463" type="curve" smooth="yes"/>
      <point x="237" y="463"/>
      <point x="183" y="399"/>
      <point x="183" y="291" type="curve" smooth="yes"/>
      <point x="183" y="183"/>
      <point x="237" y="117"/>
    </contour>
    <contour>
      <point x="319" y="-4" type="curve" smooth="yes"/>
      <point x="343" y="-4"/>
      <point x="368" y="-1"/>
      <point x="390" y="4" type="curve" smooth="yes"/>
      <point x="393" y="4"/>
      <point x="396" y="3"/>
      <point x="398" y="1" type="curve" smooth="yes"/>
      <point x="503" y="-134"/>
      <point x="648" y="-151"/>
      <point x="712" y="-56" type="curve"/>
      <point x="717" y="-69" type="line"/>
      <point x="608" y="-34"/>
      <point x="557" y="-1"/>
      <point x="510" y="57" type="curve" smooth="yes"/>
      <point x="507" y="60"/>
      <point x="507" y="65"/>
      <point x="511" y="68" type="curve" smooth="yes"/>
      <point x="567" y="120"/>
      <point x="601" y="198"/>
      <point x="601" y="291" type="curve" smooth="yes"/>
      <point x="601" y="462"/>
      <point x="483" y="584"/>
      <point x="319" y="584" type="curve" smooth="yes"/>
      <point x="153" y="584"/>
      <point x="37" y="463"/>
      <point x="37" y="291" type="curve" smooth="yes"/>
      <point x="37" y="119"/>
      <point x="153" y="-4"/>
    </contour>
    <contour>
      <point x="319" y="101" type="curve" smooth="yes"/>
      <point x="229" y="101"/>
      <point x="167" y="173"/>
      <point x="167" y="291" type="curve" smooth="yes"/>
      <point x="167" y="409"/>
      <point x="229" y="479"/>
      <point x="319" y="479" type="curve" smooth="yes"/>
      <point x="409" y="479"/>
      <point x="471" y="408"/>
      <point x="471" y="291" type="curve" smooth="yes"/>
      <point x="471" y="173"/>
      <point x="409" y="101"/>
    </contour>
  </outline>
</glyph>
<glyph name="r" format="2">
  <advance width="574"/>
  <unicode hex="0072"/>
  <outline>
    <contour>
      <point x="50" y="-8" type="line" smooth="yes"/>
      <point x="44" y="-8"/>
      <point x="40" y="-2"/>
      <point x="43" y="4" type="curve" smooth="yes"/>
      <point x="61" y="38"/>
      <point x="69" y="84"/>
      <point x="69" y="299" type="curve" smooth="yes"/>
      <point x="69" y="499"/>
      <point x="61" y="542"/>
      <point x="43" y="576" type="curve" smooth="yes"/>
      <point x="40" y="582"/>
      <point x="44" y="588"/>
      <point x="50" y="588" type="curve" smooth="yes"/>
      <point x="276" y="588" type="line" smooth="yes"/>
      <point x="424" y="588"/>
      <point x="515" y="508"/>
      <point x="515" y="392" type="curve" smooth="yes"/>
      <point x="515" y="319"/>
      <point x="478" y="260"/>
      <point x="419" y="226" type="curve"/>
      <point x="422" y="237" type="line"/>
      <point x="534" y="70"/>
      <point x="565" y="40"/>
      <point x="604" y="6" type="curve" smooth="yes"/>
      <point x="610" y="1"/>
      <point x="606" y="-8"/>
      <point x="599" y="-8" type="curve" smooth="yes"/>
      <point x="379" y="-8" type="line" smooth="yes"/>
      <point x="375" y="-8"/>
      <point x="371" y="-5"/>
      <point x="371" y="-1" type="curve" smooth="yes"/>
      <point x="369" y="28"/>
      <point x="360" y="60"/>
      <point x="275" y="199" type="curve"/>
      <point x="282" y="195" type="line"/>
      <point x="215" y="195" type="line"/>
      <point x="223" y="203" type="line"/>
      <point x="225" y="69"/>
      <point x="233" y="32"/>
      <point x="248" y="4" type="curve" smooth="yes"/>
      <point x="251" y="-2"/>
      <point x="247" y="-8"/>
      <point x="241" y="-8" type="curve" smooth="yes"/>
    </contour>
    <contour>
      <point x="278" y="453" type="curve" smooth="yes"/>
      <point x="217" y="453" type="line"/>
      <point x="225" y="461" type="line"/>
      <point x="223" y="426"/>
      <point x="222" y="380"/>
      <point x="222" y="317" type="curve"/>
      <point x="214" y="325" type="line"/>
      <point x="288" y="325" type="line" smooth="yes"/>
      <point x="329" y="325"/>
      <point x="357" y="349"/>
      <point x="357" y="389" type="curve" smooth="yes"/>
      <point x="357" y="429"/>
      <point x="328" y="453"/>
    </contour>
    <contour>
      <point x="50" y="8" type="line"/>
      <point x="241" y="8" type="line"/>
      <point x="234" y="-4" type="line"/>
      <point x="219" y="26"/>
      <point x="209" y="63"/>
      <point x="207" y="203" type="curve" smooth="yes"/>
      <point x="207" y="207"/>
      <point x="211" y="211"/>
      <point x="215" y="211" type="curve" smooth="yes"/>
      <point x="282" y="211" type="line" smooth="yes"/>
      <point x="285" y="211"/>
      <point x="287" y="210"/>
      <point x="289" y="207" type="curve" smooth="yes"/>
      <point x="376" y="64"/>
      <point x="385" y="30"/>
      <point x="387" y="1" type="curve"/>
      <point x="379" y="8" type="line"/>
      <point x="599" y="8" type="line"/>
      <point x="594" y="-6" type="line"/>
      <point x="555" y="28"/>
      <point x="522" y="60"/>
      <point x="408" y="229" type="curve" smooth="yes"/>
      <point x="406" y="232"/>
      <point x="407" y="238"/>
      <point x="411" y="240" type="curve" smooth="yes"/>
      <point x="466" y="272"/>
      <point x="499" y="325"/>
      <point x="499" y="392" type="curve" smooth="yes"/>
      <point x="499" y="500"/>
      <point x="414" y="572"/>
      <point x="276" y="572" type="curve" smooth="yes"/>
      <point x="50" y="572" type="line"/>
      <point x="57" y="584" type="line"/>
      <point x="75" y="548"/>
      <point x="85" y="505"/>
      <point x="85" y="299" type="curve" smooth="yes"/>
      <point x="85" y="78"/>
      <point x="75" y="32"/>
      <point x="57" y="-4" type="curve"/>
    </contour>
    <contour>
      <point x="278" y="469" type="line" smooth="yes"/>
      <point x="338" y="469"/>
      <point x="373" y="437"/>
      <point x="373" y="389" type="curve" smooth="yes"/>
      <point x="373" y="341"/>
      <point x="337" y="309"/>
      <point x="288" y="309" type="curve" smooth="yes"/>
      <point x="214" y="309" type="line" smooth="yes"/>
      <point x="210" y="309"/>
      <point x="206" y="313"/>
      <point x="206" y="317" type="curve" smooth="yes"/>
      <point x="206" y="380"/>
      <point x="207" y="426"/>
      <point x="209" y="461" type="curve" smooth="yes"/>
      <point x="209" y="466"/>
      <point x="213" y="469"/>
      <point x="217" y="469" type="curve" smooth="yes"/>
    </contour>
  </outline>
</glyph>
<glyph name="s" format="2">
  <advance width="495"/>
  <unicode hex="0073"/>
  <outline>
    <contour>
      <point x="306" y="164" type="curve" smooth="yes"/>
      <point x="306" y="189"/>
      <point x="255" y="205"/>
      <point x="209" y="224" type="curve" smooth="yes"/>
      <point x="131" y="255"/>
      <point x="40" y="300"/>
      <point x="40" y="414" type="curve" smooth="yes"/>
      <point x="40" y="525"/>
      <point x="137" y="598"/>
      <point x="283" y="598" type="curve" smooth="yes"/>
      <point x="332" y="598"/>
      <point x="381" y="587"/>
      <point x="436" y="572" type="curve" smooth="yes"/>
      <point x="440" y="571"/>
      <point x="442" y="568"/>
      <point x="442" y="564" type="curve" smooth="yes"/>
      <point x="442" y="400" type="line" smooth="yes"/>
      <point x="442" y="393"/>
      <point x="434" y="390"/>
      <point x="429" y="394" type="curve" smooth="yes"/>
      <point x="380" y="433"/>
      <point x="321" y="458"/>
      <point x="270" y="458" type="curve" smooth="yes"/>
      <point x="228" y="458"/>
      <point x="207" y="441"/>
      <point x="207" y="418" type="curve" smooth="yes"/>
      <point x="207" y="393"/>
      <point x="258" y="375"/>
      <point x="303" y="356" type="curve" smooth="yes"/>
      <point x="380" y="324"/>
      <point x="471" y="280"/>
      <point x="471" y="169" type="curve" smooth="yes"/>
      <point x="471" y="49"/>
      <point x="367" y="-22"/>
      <point x="222" y="-21" type="curve"/>
      <point x="222" y="-21" type="line"/>
      <point x="167" y="-21"/>
      <point x="111" y="-9"/>
      <point x="50" y="7" type="curve" smooth="yes"/>
      <point x="46" y="8"/>
      <point x="44" y="11"/>
      <point x="44" y="15" type="curve" smooth="yes"/>
      <point x="44" y="181" type="line" smooth="yes"/>
      <point x="44" y="188"/>
      <point x="52" y="191"/>
      <point x="57" y="187" type="curve" smooth="yes"/>
      <point x="110" y="146"/>
      <point x="177" y="121"/>
      <point x="234" y="121" type="curve" smooth="yes"/>
      <point x="281" y="121"/>
      <point x="306" y="139"/>
    </contour>
    <contour>
      <point x="322" y="164" type="curve" smooth="yes"/>
      <point x="322" y="132"/>
      <point x="294" y="105"/>
      <point x="234" y="105" type="curve" smooth="yes"/>
      <point x="173" y="105"/>
      <point x="104" y="130"/>
      <point x="47" y="175" type="curve"/>
      <point x="60" y="181" type="line"/>
      <point x="60" y="15" type="line"/>
      <point x="54" y="23" type="line"/>
      <point x="113" y="7"/>
      <point x="169" y="-5"/>
      <point x="222" y="-5" type="curve" smooth="yes"/>
      <point x="222" y="-5"/>
      <point x="222" y="-5"/>
      <point x="222" y="-5" type="curve" smooth="yes"/>
      <point x="357" y="-6"/>
      <point x="455" y="57"/>
      <point x="455" y="169" type="curve" smooth="yes"/>
      <point x="455" y="272"/>
      <point x="368" y="312"/>
      <point x="297" y="342" type="curve" smooth="yes"/>
      <point x="235" y="367"/>
      <point x="191" y="384"/>
      <point x="191" y="418" type="curve" smooth="yes"/>
      <point x="191" y="448"/>
      <point x="216" y="474"/>
      <point x="270" y="474" type="curve" smooth="yes"/>
      <point x="325" y="474"/>
      <point x="386" y="449"/>
      <point x="439" y="406" type="curve"/>
      <point x="426" y="400" type="line"/>
      <point x="426" y="564" type="line"/>
      <point x="432" y="556" type="line"/>
      <point x="379" y="571"/>
      <point x="330" y="582"/>
      <point x="283" y="582" type="curve" smooth="yes"/>
      <point x="147" y="582"/>
      <point x="56" y="517"/>
      <point x="56" y="414" type="curve" smooth="yes"/>
      <point x="56" y="308"/>
      <point x="143" y="267"/>
      <point x="215" y="238" type="curve" smooth="yes"/>
      <point x="278" y="213"/>
      <point x="322" y="199"/>
    </contour>
  </outline>
</glyph>
<glyph name="v" format="2">
  <advance width="604"/>
  <unicode hex="0076"/>
  <outline>
    <contour>
      <point x="282" y="284" type="curve"/>
      <point x="282" y="284" type="line"/>
      <point x="317" y="189" type="line"/>
      <point x="301" y="189" type="line"/>
      <point x="336" y="284" type="line" smooth="yes"/>
      <point x="414" y="496"/>
      <point x="412" y="537"/>
      <point x="397" y="577" type="curve" smooth="yes"/>
      <point x="396" y="582"/>
      <point x="399" y="588"/>
      <point x="405" y="588" type="curve" smooth="yes"/>
      <point x="604" y="588" type="line" smooth="yes"/>
      <point x="611" y="588"/>
      <point x="614" y="580"/>
      <point x="610" y="575" type="curve" smooth="yes"/>
      <point x="583" y="540"/>
      <point x="563" y="496"/>
      <point x="479" y="278" type="curve" smooth="yes"/>
      <point x="401" y="73"/>
      <point x="387" y="32"/>
      <point x="385" y="0" type="curve" smooth="yes"/>
      <point x="385" y="-5"/>
      <point x="381" y="-8"/>
      <point x="377" y="-8" type="curve" smooth="yes"/>
      <point x="227" y="-8" type="line" smooth="yes"/>
      <point x="223" y="-8"/>
      <point x="220" y="-5"/>
      <point x="219" y="-1" type="curve" smooth="yes"/>
      <point x="213" y="31"/>
      <point x="203" y="72"/>
      <point x="125" y="278" type="curve" smooth="yes"/>
      <point x="42" y="496"/>
      <point x="21" y="540"/>
      <point x="-6" y="575" type="curve" smooth="yes"/>
      <point x="-10" y="580"/>
      <point x="-7" y="588"/>
      <point x="0" y="588" type="curve" smooth="yes"/>
      <point x="213" y="588" type="line" smooth="yes"/>
      <point x="219" y="588"/>
      <point x="222" y="582"/>
      <point x="221" y="577" type="curve" smooth="yes"/>
      <point x="206" y="537"/>
      <point x="204" y="496"/>
    </contour>
    <contour>
      <point x="266" y="278" type="line" smooth="yes"/>
      <point x="186" y="498"/>
      <point x="190" y="541"/>
      <point x="205" y="583" type="curve"/>
      <point x="213" y="572" type="line"/>
      <point x="0" y="572" type="line"/>
      <point x="6" y="585" type="line"/>
      <point x="33" y="550"/>
      <point x="56" y="504"/>
      <point x="139" y="284" type="curve" smooth="yes"/>
      <point x="219" y="76"/>
      <point x="229" y="35"/>
      <point x="235" y="1" type="curve"/>
      <point x="227" y="8" type="line"/>
      <point x="377" y="8" type="line"/>
      <point x="369" y="0" type="line"/>
      <point x="371" y="34"/>
      <point x="385" y="75"/>
      <point x="465" y="284" type="curve" smooth="yes"/>
      <point x="549" y="504"/>
      <point x="571" y="550"/>
      <point x="598" y="585" type="curve"/>
      <point x="604" y="572" type="line"/>
      <point x="405" y="572" type="line"/>
      <point x="413" y="583" type="line"/>
      <point x="428" y="541"/>
      <point x="432" y="498"/>
      <point x="352" y="278" type="curve" smooth="yes"/>
      <point x="317" y="183" type="line" smooth="yes"/>
      <point x="314" y="176"/>
      <point x="304" y="176"/>
      <point x="301" y="183" type="curve" smooth="yes"/>
      <point x="266" y="278" type="line"/>
    </contour>
  </outline>
</glyph>
<glyph name="w" format="2">
  <advance width="795"/>
  <unicode hex="0077"/>
  <outline>
    <contour>
      <point x="314" y="0" type="curve" smooth="yes"/>
      <point x="314" y="-4"/>
      <point x="311" y="-8"/>
      <point x="306" y="-8" type="curve" smooth="yes"/>
      <point x="198" y="-8" type="line" smooth="yes"/>
      <point x="194" y="-8"/>
      <point x="191" y="-5"/>
      <point x="190" y="-1" type="curve" smooth="yes"/>
      <point x="186" y="32"/>
      <point x="174" y="76"/>
      <point x="108" y="280" type="curve" smooth="yes"/>
      <point x="38" y="495"/>
      <point x="21" y="542"/>
      <point x="-2" y="576" type="curve" smooth="yes"/>
      <point x="-5" y="581"/>
      <point x="-1" y="588"/>
      <point x="5" y="588" type="curve" smooth="yes"/>
      <point x="205" y="588" type="line" smooth="yes"/>
      <point x="211" y="588"/>
      <point x="215" y="582"/>
      <point x="212" y="577" type="curve" smooth="yes"/>
      <point x="193" y="536"/>
      <point x="199" y="495"/>
      <point x="270" y="268" type="curve"/>
      <point x="254" y="268" type="line"/>
      <point x="327" y="500"/>
      <point x="334" y="538"/>
      <point x="335" y="580" type="curve" smooth="yes"/>
      <point x="335" y="585"/>
      <point x="339" y="588"/>
      <point x="343" y="588" type="curve" smooth="yes"/>
      <point x="462" y="588" type="line" smooth="yes"/>
      <point x="466" y="588"/>
      <point x="470" y="585"/>
      <point x="470" y="580" type="curve" smooth="yes"/>
      <point x="471" y="538"/>
      <point x="477" y="497"/>
      <point x="553" y="274" type="curve"/>
      <point x="537" y="273" type="line"/>
      <point x="598" y="493"/>
      <point x="612" y="536"/>
      <point x="592" y="576" type="curve" smooth="yes"/>
      <point x="589" y="582"/>
      <point x="593" y="588"/>
      <point x="599" y="588" type="curve" smooth="yes"/>
      <point x="790" y="588" type="line" smooth="yes"/>
      <point x="796" y="588"/>
      <point x="800" y="581"/>
      <point x="797" y="576" type="curve" smooth="yes"/>
      <point x="774" y="542"/>
      <point x="756" y="495"/>
      <point x="686" y="280" type="curve" smooth="yes"/>
      <point x="621" y="79"/>
      <point x="604" y="33"/>
      <point x="605" y="0" type="curve" smooth="yes"/>
      <point x="605" y="-4"/>
      <point x="602" y="-8"/>
      <point x="597" y="-8" type="curve" smooth="yes"/>
      <point x="490" y="-8" type="line" smooth="yes"/>
      <point x="486" y="-8"/>
      <point x="482" y="-5"/>
      <point x="482" y="-1" type="curve" smooth="yes"/>
      <point x="479" y="34"/>
      <point x="457" y="116"/>
      <point x="390" y="313" type="curve"/>
      <point x="406" y="313" type="line"/>
      <point x="341" y="120"/>
      <point x="313" y="35"/>
    </contour>
    <contour>
      <point x="298" y="0" type="line"/>
      <point x="297" y="35"/>
      <point x="323" y="119"/>
      <point x="390" y="319" type="curve" smooth="yes"/>
      <point x="393" y="326"/>
      <point x="403" y="326"/>
      <point x="406" y="319" type="curve" smooth="yes"/>
      <point x="473" y="120"/>
      <point x="495" y="36"/>
      <point x="498" y="1" type="curve"/>
      <point x="490" y="8" type="line"/>
      <point x="597" y="8" type="line"/>
      <point x="589" y="0" type="line"/>
      <point x="588" y="33"/>
      <point x="603" y="77"/>
      <point x="670" y="284" type="curve" smooth="yes"/>
      <point x="742" y="503"/>
      <point x="760" y="550"/>
      <point x="783" y="584" type="curve"/>
      <point x="790" y="572" type="line"/>
      <point x="599" y="572" type="line"/>
      <point x="606" y="584" type="line"/>
      <point x="628" y="540"/>
      <point x="618" y="508"/>
      <point x="553" y="269" type="curve" smooth="yes"/>
      <point x="551" y="261"/>
      <point x="540" y="261"/>
      <point x="537" y="268" type="curve" smooth="yes"/>
      <point x="461" y="495"/>
      <point x="455" y="538"/>
      <point x="454" y="580" type="curve"/>
      <point x="462" y="572" type="line"/>
      <point x="343" y="572" type="line"/>
      <point x="351" y="580" type="line"/>
      <point x="350" y="538"/>
      <point x="343" y="498"/>
      <point x="270" y="264" type="curve" smooth="yes"/>
      <point x="267" y="256"/>
      <point x="257" y="256"/>
      <point x="254" y="264" type="curve" smooth="yes"/>
      <point x="179" y="503"/>
      <point x="177" y="540"/>
      <point x="198" y="583" type="curve"/>
      <point x="205" y="572" type="line"/>
      <point x="5" y="572" type="line"/>
      <point x="12" y="584" type="line"/>
      <point x="35" y="550"/>
      <point x="52" y="503"/>
      <point x="124" y="284" type="curve" smooth="yes"/>
      <point x="190" y="80"/>
      <point x="202" y="34"/>
      <point x="206" y="1" type="curve"/>
      <point x="198" y="8" type="line"/>
      <point x="306" y="8" type="line"/>
    </contour>
  </outline>
</glyph>
<glyph name="x" format="2">
  <advance width="595"/>
  <unicode hex="0078"/>
  <outline>
    <contour>
      <point x="378" y="-8" type="line" smooth="yes"/>
      <point x="373" y="-8"/>
      <point x="370" y="-4"/>
      <point x="370" y="0" type="curve" smooth="yes"/>
      <point x="372" y="31"/>
      <point x="356" y="65"/>
      <point x="282" y="181" type="curve"/>
      <point x="296" y="181" type="line"/>
      <point x="217" y="64"/>
      <point x="205" y="31"/>
      <point x="207" y="0" type="curve" smooth="yes"/>
      <point x="207" y="-4"/>
      <point x="204" y="-8"/>
      <point x="199" y="-8" type="curve" smooth="yes"/>
      <point x="0" y="-8" type="line" smooth="yes"/>
      <point x="-7" y="-8"/>
      <point x="-11" y="1"/>
      <point x="-5" y="6" type="curve" smooth="yes"/>
      <point x="33" y="40"/>
      <point x="69" y="85"/>
      <point x="214" y="295" type="curve"/>
      <point x="214" y="286" type="line"/>
      <point x="79" y="495"/>
      <point x="40" y="540"/>
      <point x="4" y="574" type="curve" smooth="yes"/>
      <point x="-2" y="579"/>
      <point x="2" y="588"/>
      <point x="9" y="588" type="curve" smooth="yes"/>
      <point x="226" y="588" type="line" smooth="yes"/>
      <point x="231" y="588"/>
      <point x="234" y="584"/>
      <point x="234" y="579" type="curve" smooth="yes"/>
      <point x="232" y="551"/>
      <point x="246" y="519"/>
      <point x="310" y="415" type="curve"/>
      <point x="296" y="415" type="line"/>
      <point x="367" y="519"/>
      <point x="378" y="550"/>
      <point x="376" y="579" type="curve" smooth="yes"/>
      <point x="376" y="584"/>
      <point x="379" y="588"/>
      <point x="384" y="588" type="curve" smooth="yes"/>
      <point x="583" y="588" type="line" smooth="yes"/>
      <point x="590" y="588"/>
      <point x="594" y="579"/>
      <point x="588" y="574" type="curve" smooth="yes"/>
      <point x="551" y="541"/>
      <point x="514" y="497"/>
      <point x="379" y="298" type="curve"/>
      <point x="379" y="307" type="line"/>
      <point x="520" y="90"/>
      <point x="563" y="40"/>
      <point x="600" y="6" type="curve" smooth="yes"/>
      <point x="606" y="1"/>
      <point x="602" y="-8"/>
      <point x="595" y="-8" type="curve" smooth="yes"/>
    </contour>
    <contour>
      <point x="378" y="8" type="line"/>
      <point x="595" y="8" type="line"/>
      <point x="590" y="-6" type="line"/>
      <point x="552" y="28"/>
      <point x="508" y="80"/>
      <point x="365" y="299" type="curve" smooth="yes"/>
      <point x="364" y="301"/>
      <point x="364" y="305"/>
      <point x="365" y="308" type="curve" smooth="yes"/>
      <point x="502" y="507"/>
      <point x="541" y="553"/>
      <point x="578" y="586" type="curve"/>
      <point x="583" y="572" type="line"/>
      <point x="384" y="572" type="line"/>
      <point x="392" y="581" type="line"/>
      <point x="394" y="548"/>
      <point x="385" y="518"/>
      <point x="310" y="407" type="curve" smooth="yes"/>
      <point x="306" y="402"/>
      <point x="299" y="402"/>
      <point x="296" y="407" type="curve" smooth="yes"/>
      <point x="227" y="519"/>
      <point x="216" y="549"/>
      <point x="218" y="581" type="curve"/>
      <point x="226" y="572" type="line"/>
      <point x="9" y="572" type="line"/>
      <point x="14" y="586" type="line"/>
      <point x="52" y="552"/>
      <point x="91" y="505"/>
      <point x="228" y="294" type="curve" smooth="yes"/>
      <point x="229" y="292"/>
      <point x="229" y="288"/>
      <point x="228" y="285" type="curve" smooth="yes"/>
      <point x="81" y="75"/>
      <point x="43" y="28"/>
      <point x="5" y="-6" type="curve"/>
      <point x="0" y="8" type="line"/>
      <point x="199" y="8" type="line"/>
      <point x="191" y="0" type="line"/>
      <point x="189" y="33"/>
      <point x="199" y="64"/>
      <point x="282" y="189" type="curve" smooth="yes"/>
      <point x="286" y="194"/>
      <point x="293" y="194"/>
      <point x="296" y="189" type="curve" smooth="yes"/>
      <point x="376" y="64"/>
      <point x="388" y="33"/>
      <point x="386" y="0" type="curve"/>
    </contour>
  </outline>
</glyph>
<glyph name="y" format="2">
  <advance width="563"/>
  <unicode hex="0079"/>
  <outline>
    <contour>
      <point x="568" y="588" type="line" smooth="yes"/>
      <point x="575" y="588"/>
      <point x="579" y="580"/>
      <point x="574" y="575" type="curve" smooth="yes"/>
      <point x="540" y="538"/>
      <point x="511" y="488"/>
      <point x="367" y="228" type="curve"/>
      <point x="368" y="232" type="line"/>
      <point x="369" y="74"/>
      <point x="375" y="33"/>
      <point x="390" y="4" type="curve" smooth="yes"/>
      <point x="393" y="-2"/>
      <point x="389" y="-8"/>
      <point x="383" y="-8" type="curve" smooth="yes"/>
      <point x="193" y="-8" type="line" smooth="yes"/>
      <point x="187" y="-8"/>
      <point x="183" y="-2"/>
      <point x="186" y="4" type="curve" smooth="yes"/>
      <point x="201" y="33"/>
      <point x="207" y="74"/>
      <point x="208" y="232" type="curve"/>
      <point x="209" y="228" type="line"/>
      <point x="64" y="487"/>
      <point x="23" y="538"/>
      <point x="-11" y="575" type="curve" smooth="yes"/>
      <point x="-16" y="580"/>
      <point x="-12" y="588"/>
      <point x="-5" y="588" type="curve" smooth="yes"/>
      <point x="196" y="588" type="line" smooth="yes"/>
      <point x="201" y="588"/>
      <point x="205" y="583"/>
      <point x="204" y="578" type="curve" smooth="yes"/>
      <point x="195" y="542"/>
      <point x="203" y="510"/>
      <point x="296" y="352" type="curve"/>
      <point x="282" y="352" type="line"/>
      <point x="375" y="509"/>
      <point x="383" y="542"/>
      <point x="374" y="578" type="curve" smooth="yes"/>
      <point x="373" y="583"/>
      <point x="377" y="588"/>
      <point x="382" y="588" type="curve" smooth="yes"/>
    </contour>
    <contour>
      <point x="568" y="572" type="line"/>
      <point x="382" y="572" type="line"/>
      <point x="390" y="582" type="line"/>
      <point x="399" y="544"/>
      <point x="395" y="512"/>
      <point x="296" y="344" type="curve" smooth="yes"/>
      <point x="293" y="339"/>
      <point x="285" y="339"/>
      <point x="282" y="344" type="curve" smooth="yes"/>
      <point x="183" y="513"/>
      <point x="179" y="544"/>
      <point x="188" y="582" type="curve"/>
      <point x="196" y="572" type="line"/>
      <point x="-5" y="572" type="line"/>
      <point x="1" y="585" type="line"/>
      <point x="35" y="548"/>
      <point x="76" y="497"/>
      <point x="223" y="236" type="curve" smooth="yes"/>
      <point x="224" y="235"/>
      <point x="224" y="233"/>
      <point x="224" y="232" type="curve" smooth="yes"/>
      <point x="223" y="68"/>
      <point x="215" y="27"/>
      <point x="200" y="-4" type="curve"/>
      <point x="193" y="8" type="line"/>
      <point x="383" y="8" type="line"/>
      <point x="376" y="-4" type="line"/>
      <point x="361" y="27"/>
      <point x="353" y="68"/>
      <point x="352" y="232" type="curve" smooth="yes"/>
      <point x="352" y="233"/>
      <point x="352" y="235"/>
      <point x="353" y="236" type="curve" smooth="yes"/>
      <point x="499" y="498"/>
      <point x="528" y="548"/>
      <point x="562" y="585" type="curve"/>
    </contour>
  </outline>
</glyph>
<glyph name="z" format="2">
  <advance width="516"/>
  <unicode hex="007A"/>
  <outline>
    <contour>
      <point x="494" y="588" type="line" smooth="yes"/>
      <point x="500" y="588"/>
      <point x="504" y="581"/>
      <point x="501" y="576" type="curve" smooth="yes"/>
      <point x="249" y="116" type="line"/>
      <point x="242" y="128" type="line"/>
      <point x="400" y="124"/>
      <point x="438" y="140"/>
      <point x="471" y="166" type="curve" smooth="yes"/>
      <point x="477" y="171"/>
      <point x="485" y="166"/>
      <point x="484" y="159" type="curve" smooth="yes"/>
      <point x="464" y="-1" type="line" smooth="yes"/>
      <point x="463" y="-5"/>
      <point x="460" y="-8"/>
      <point x="456" y="-8" type="curve" smooth="yes"/>
      <point x="22" y="-8" type="line" smooth="yes"/>
      <point x="16" y="-8"/>
      <point x="12" y="-1"/>
      <point x="15" y="4" type="curve" smooth="yes"/>
      <point x="267" y="464" type="line"/>
      <point x="274" y="452" type="line"/>
      <point x="114" y="456"/>
      <point x="81" y="439"/>
      <point x="53" y="423" type="curve" smooth="yes"/>
      <point x="48" y="420"/>
      <point x="41" y="424"/>
      <point x="41" y="430" type="curve" smooth="yes"/>
      <point x="41" y="580" type="line" smooth="yes"/>
      <point x="41" y="584"/>
      <point x="45" y="588"/>
      <point x="49" y="588" type="curve" smooth="yes"/>
    </contour>
    <contour>
      <point x="494" y="572" type="line"/>
      <point x="49" y="572" type="line"/>
      <point x="57" y="580" type="line"/>
      <point x="57" y="430" type="line"/>
      <point x="45" y="437" type="line"/>
      <point x="75" y="453"/>
      <point x="110" y="472"/>
      <point x="274" y="468" type="curve" smooth="yes"/>
      <point x="280" y="468"/>
      <point x="284" y="461"/>
      <point x="281" y="456" type="curve" smooth="yes"/>
      <point x="29" y="-4" type="line"/>
      <point x="22" y="8" type="line"/>
      <point x="456" y="8" type="line"/>
      <point x="448" y="1" type="line"/>
      <point x="468" y="161" type="line"/>
      <point x="481" y="154" type="line"/>
      <point x="446" y="126"/>
      <point x="406" y="108"/>
      <point x="242" y="112" type="curve" smooth="yes"/>
      <point x="236" y="112"/>
      <point x="232" y="119"/>
      <point x="235" y="124" type="curve" smooth="yes"/>
      <point x="487" y="584" type="line"/>
    </contour>
  </outline>
</glyph>
<glyph name="bar" format="2">
  <advance width="385"/>
  <unicode hex="007C"/>
  <outline>
    <contour>
      <point x="123" y="-83" type="line" smooth="yes"/>
      <point x="119" y="-83"/>
      <point x="115" y="-79"/>
      <point x="115" y="-75" type="curve" smooth="yes"/>
      <point x="115" y="750" type="line" smooth="yes"/>
      <point x="115" y="754"/>
      <point x="119" y="758"/>
      <point x="123" y="758" type="curve" smooth="yes"/>
      <point x="262" y="758" type="line" smooth="yes"/>
      <point x="266" y="758"/>
      <point x="270" y="754"/>
      <point x="270" y="750" type="curve" smooth="yes"/>
      <point x="270" y="-75" type="line" smooth="yes"/>
      <point x="270" y="-79"/>
      <point x="266" y="-83"/>
      <point x="262" y="-83" type="curve" smooth="yes"/>
    </contour>
    <contour>
      <point x="123" y="-67" type="line"/>
      <point x="262" y="-67" type="line"/>
      <point x="254" y="-75" type="line"/>
      <point x="254" y="750" type="line"/>
      <point x="262" y="742" type="line"/>
      <point x="123" y="742" type="line"/>
      <point x="131" y="750" type="line"/>
      <point x="131" y="-75" type="line"/>
    </contour>
  </outline>
</glyph>
<glyph name="cent" format="2">
  <advance width="469"/>
  <unicode hex="00A2"/>
  <outline>
    <contour>
      <point x="169" y="-58" type="line" smooth="yes"/>
      <point x="164" y="-58"/>
      <point x="161" y="-54"/>
      <point x="161" y="-50" type="curve" smooth="yes"/>
      <point x="169" y="80" type="line"/>
      <point x="174" y="73" type="line"/>
      <point x="79" y="111"/>
      <point x="20" y="200"/>
      <point x="20" y="313" type="curve" smooth="yes"/>
      <point x="20" y="439"/>
      <point x="90" y="532"/>
      <point x="201" y="564" type="curve"/>
      <point x="195" y="557" type="line"/>
      <point x="203" y="681" type="line" smooth="yes"/>
      <point x="203" y="685"/>
      <point x="207" y="688"/>
      <point x="211" y="688" type="curve" smooth="yes"/>
      <point x="336" y="688" type="line" smooth="yes"/>
      <point x="341" y="688"/>
      <point x="344" y="684"/>
      <point x="344" y="680" type="curve" smooth="yes"/>
      <point x="337" y="565" type="line"/>
      <point x="330" y="573" type="line"/>
      <point x="363" y="569"/>
      <point x="396" y="562"/>
      <point x="422" y="549" type="curve" smooth="yes"/>
      <point x="425" y="548"/>
      <point x="427" y="545"/>
      <point x="427" y="542" type="curve" smooth="yes"/>
      <point x="427" y="400" type="line" smooth="yes"/>
      <point x="427" y="393"/>
      <point x="419" y="390"/>
      <point x="414" y="394" type="curve" smooth="yes"/>
      <point x="379" y="422"/>
      <point x="333" y="445"/>
      <point x="289" y="445" type="curve" smooth="yes"/>
      <point x="224" y="445"/>
      <point x="182" y="395"/>
      <point x="182" y="313" type="curve" smooth="yes"/>
      <point x="182" y="231"/>
      <point x="224" y="181"/>
      <point x="289" y="181" type="curve" smooth="yes"/>
      <point x="333" y="181"/>
      <point x="379" y="204"/>
      <point x="414" y="232" type="curve" smooth="yes"/>
      <point x="419" y="236"/>
      <point x="427" y="233"/>
      <point x="427" y="226" type="curve" smooth="yes"/>
      <point x="427" y="84" type="line" smooth="yes"/>
      <point x="427" y="81"/>
      <point x="425" y="78"/>
      <point x="422" y="77" type="curve" smooth="yes"/>
      <point x="387" y="61"/>
      <point x="344" y="53"/>
      <point x="301" y="51" type="curve"/>
      <point x="309" y="58" type="line"/>
      <point x="302" y="-51" type="line" smooth="yes"/>
      <point x="302" y="-55"/>
      <point x="298" y="-58"/>
      <point x="294" y="-58" type="curve" smooth="yes"/>
    </contour>
    <contour>
      <point x="169" y="-42" type="line"/>
      <point x="294" y="-42" type="line"/>
      <point x="286" y="-49" type="line"/>
      <point x="293" y="60" type="line" smooth="yes"/>
      <point x="293" y="64"/>
      <point x="297" y="67"/>
      <point x="301" y="67" type="curve" smooth="yes"/>
      <point x="342" y="69"/>
      <point x="383" y="77"/>
      <point x="416" y="91" type="curve"/>
      <point x="411" y="84" type="line"/>
      <point x="411" y="226" type="line"/>
      <point x="424" y="220" type="line"/>
      <point x="387" y="190"/>
      <point x="337" y="165"/>
      <point x="289" y="165" type="curve" smooth="yes"/>
      <point x="216" y="165"/>
      <point x="166" y="221"/>
      <point x="166" y="313" type="curve" smooth="yes"/>
      <point x="166" y="405"/>
      <point x="216" y="461"/>
      <point x="289" y="461" type="curve" smooth="yes"/>
      <point x="337" y="461"/>
      <point x="387" y="436"/>
      <point x="424" y="406" type="curve"/>
      <point x="411" y="400" type="line"/>
      <point x="411" y="542" type="line"/>
      <point x="416" y="535" type="line"/>
      <point x="390" y="546"/>
      <point x="359" y="553"/>
      <point x="328" y="557" type="curve" smooth="yes"/>
      <point x="324" y="558"/>
      <point x="321" y="561"/>
      <point x="321" y="565" type="curve" smooth="yes"/>
      <point x="328" y="680" type="line"/>
      <point x="336" y="672" type="line"/>
      <point x="211" y="672" type="line"/>
      <point x="219" y="679" type="line"/>
      <point x="211" y="555" type="line" smooth="yes"/>
      <point x="211" y="552"/>
      <point x="208" y="549"/>
      <point x="205" y="548" type="curve" smooth="yes"/>
      <point x="102" y="518"/>
      <point x="36" y="431"/>
      <point x="36" y="313" type="curve" smooth="yes"/>
      <point x="36" y="206"/>
      <point x="91" y="123"/>
      <point x="180" y="87" type="curve" smooth="yes"/>
      <point x="183" y="86"/>
      <point x="185" y="83"/>
      <point x="185" y="80" type="curve" smooth="yes"/>
      <point x="177" y="-50" type="line"/>
    </contour>
  </outline>
</glyph>
<glyph name="currency" format="2">
  <advance width="646"/>
  <unicode hex="00A4"/>
  <outline>
    <contour>
      <point x="535" y="38" type="line" smooth="yes"/>
      <point x="532" y="35"/>
      <point x="527" y="35"/>
      <point x="523" y="38" type="curve" smooth="yes"/>
      <point x="428" y="132" type="line"/>
      <point x="437" y="131" type="line"/>
      <point x="370" y="100"/>
      <point x="278" y="99"/>
      <point x="210" y="132" type="curve"/>
      <point x="220" y="133" type="line"/>
      <point x="125" y="38" type="line" smooth="yes"/>
      <point x="122" y="35"/>
      <point x="116" y="35"/>
      <point x="113" y="38" type="curve" smooth="yes"/>
      <point x="17" y="134" type="line" smooth="yes"/>
      <point x="14" y="137"/>
      <point x="14" y="143"/>
      <point x="17" y="146" type="curve" smooth="yes"/>
      <point x="112" y="241" type="line"/>
      <point x="111" y="231" type="line"/>
      <point x="78" y="299"/>
      <point x="76" y="391"/>
      <point x="109" y="457" type="curve"/>
      <point x="110" y="447" type="line"/>
      <point x="16" y="542" type="line" smooth="yes"/>
      <point x="13" y="546"/>
      <point x="13" y="551"/>
      <point x="16" y="554" type="curve" smooth="yes"/>
      <point x="112" y="650" type="line" smooth="yes"/>
      <point x="115" y="653"/>
      <point x="120" y="653"/>
      <point x="124" y="650" type="curve" smooth="yes"/>
      <point x="219" y="556" type="line"/>
      <point x="210" y="557" type="line"/>
      <point x="277" y="588"/>
      <point x="369" y="589"/>
      <point x="437" y="556" type="curve"/>
      <point x="427" y="555" type="line"/>
      <point x="522" y="650" type="line" smooth="yes"/>
      <point x="525" y="653"/>
      <point x="531" y="653"/>
      <point x="534" y="650" type="curve" smooth="yes"/>
      <point x="630" y="554" type="line" smooth="yes"/>
      <point x="633" y="551"/>
      <point x="633" y="545"/>
      <point x="630" y="542" type="curve" smooth="yes"/>
      <point x="535" y="447" type="line"/>
      <point x="536" y="457" type="line"/>
      <point x="569" y="389"/>
      <point x="571" y="297"/>
      <point x="538" y="231" type="curve"/>
      <point x="537" y="241" type="line"/>
      <point x="631" y="146" type="line" smooth="yes"/>
      <point x="634" y="142"/>
      <point x="634" y="137"/>
      <point x="631" y="134" type="curve" smooth="yes"/>
    </contour>
    <contour>
      <point x="325" y="229" type="curve" smooth="yes"/>
      <point x="259" y="229"/>
      <point x="214" y="274"/>
      <point x="214" y="344" type="curve" smooth="yes"/>
      <point x="214" y="414"/>
      <point x="256" y="459"/>
      <point x="322" y="459" type="curve" smooth="yes"/>
      <point x="388" y="459"/>
      <point x="433" y="414"/>
      <point x="433" y="344" type="curve" smooth="yes"/>
      <point x="433" y="274"/>
      <point x="391" y="229"/>
    </contour>
    <contour>
      <point x="523" y="50" type="line"/>
      <point x="619" y="146" type="line"/>
      <point x="619" y="134" type="line"/>
      <point x="525" y="229" type="line" smooth="yes"/>
      <point x="523" y="232"/>
      <point x="522" y="236"/>
      <point x="524" y="239" type="curve" smooth="yes"/>
      <point x="555" y="299"/>
      <point x="553" y="387"/>
      <point x="522" y="449" type="curve" smooth="yes"/>
      <point x="520" y="453"/>
      <point x="521" y="456"/>
      <point x="523" y="459" type="curve" smooth="yes"/>
      <point x="618" y="554" type="line"/>
      <point x="618" y="542" type="line"/>
      <point x="522" y="638" type="line"/>
      <point x="534" y="638" type="line"/>
      <point x="439" y="543" type="line" smooth="yes"/>
      <point x="436" y="541"/>
      <point x="433" y="540"/>
      <point x="429" y="542" type="curve" smooth="yes"/>
      <point x="367" y="573"/>
      <point x="279" y="572"/>
      <point x="216" y="543" type="curve" smooth="yes"/>
      <point x="213" y="541"/>
      <point x="210" y="542"/>
      <point x="207" y="544" type="curve" smooth="yes"/>
      <point x="112" y="638" type="line"/>
      <point x="124" y="638" type="line"/>
      <point x="28" y="542" type="line"/>
      <point x="28" y="554" type="line"/>
      <point x="122" y="459" type="line" smooth="yes"/>
      <point x="124" y="456"/>
      <point x="125" y="452"/>
      <point x="123" y="449" type="curve" smooth="yes"/>
      <point x="92" y="389"/>
      <point x="94" y="301"/>
      <point x="125" y="239" type="curve" smooth="yes"/>
      <point x="127" y="235"/>
      <point x="126" y="232"/>
      <point x="124" y="229" type="curve" smooth="yes"/>
      <point x="29" y="134" type="line"/>
      <point x="29" y="146" type="line"/>
      <point x="125" y="50" type="line"/>
      <point x="113" y="50" type="line"/>
      <point x="208" y="145" type="line" smooth="yes"/>
      <point x="211" y="147"/>
      <point x="214" y="148"/>
      <point x="218" y="146" type="curve" smooth="yes"/>
      <point x="280" y="115"/>
      <point x="368" y="116"/>
      <point x="431" y="145" type="curve" smooth="yes"/>
      <point x="434" y="147"/>
      <point x="437" y="146"/>
      <point x="440" y="144" type="curve" smooth="yes"/>
      <point x="535" y="50" type="line"/>
    </contour>
    <contour>
      <point x="325" y="245" type="curve" smooth="yes"/>
      <point x="383" y="245"/>
      <point x="417" y="284"/>
      <point x="417" y="344" type="curve" smooth="yes"/>
      <point x="417" y="404"/>
      <point x="380" y="443"/>
      <point x="322" y="443" type="curve" smooth="yes"/>
      <point x="264" y="443"/>
      <point x="230" y="404"/>
      <point x="230" y="344" type="curve" smooth="yes"/>
      <point x="230" y="284"/>
      <point x="267" y="245"/>
    </contour>
  </outline>
</glyph>
<glyph name="registered" format="2">
  <advance width="614"/>
  <unicode hex="00AE"/>
  <outline>
    <contour>
      <point x="307" y="178" type="curve" smooth="yes"/>
      <point x="154" y="178"/>
      <point x="42" y="290"/>
      <point x="42" y="443" type="curve" smooth="yes"/>
      <point x="42" y="596"/>
      <point x="154" y="708"/>
      <point x="307" y="708" type="curve" smooth="yes"/>
      <point x="460" y="708"/>
      <point x="572" y="596"/>
      <point x="572" y="443" type="curve" smooth="yes"/>
      <point x="572" y="290"/>
      <point x="460" y="178"/>
    </contour>
    <contour>
      <point x="190" y="305" type="line" smooth="yes"/>
      <point x="184" y="305"/>
      <point x="180" y="311"/>
      <point x="183" y="317" type="curve" smooth="yes"/>
      <point x="190" y="332"/>
      <point x="194" y="357"/>
      <point x="194" y="453" type="curve" smooth="yes"/>
      <point x="194" y="547"/>
      <point x="191" y="571"/>
      <point x="183" y="585" type="curve" smooth="yes"/>
      <point x="180" y="591"/>
      <point x="184" y="597"/>
      <point x="190" y="597" type="curve" smooth="yes"/>
      <point x="311" y="597" type="line" smooth="yes"/>
      <point x="383" y="597"/>
      <point x="428" y="556"/>
      <point x="428" y="495" type="curve" smooth="yes"/>
      <point x="428" y="459"/>
      <point x="412" y="430"/>
      <point x="384" y="411" type="curve"/>
      <point x="387" y="422" type="line"/>
      <point x="425" y="361"/>
      <point x="452" y="334"/>
      <point x="468" y="319" type="curve" smooth="yes"/>
      <point x="474" y="314"/>
      <point x="470" y="305"/>
      <point x="463" y="305" type="curve" smooth="yes"/>
      <point x="354" y="305" type="line" smooth="yes"/>
      <point x="350" y="305"/>
      <point x="346" y="308"/>
      <point x="346" y="312" type="curve" smooth="yes"/>
      <point x="345" y="325"/>
      <point x="341" y="343"/>
      <point x="306" y="397" type="curve"/>
      <point x="313" y="393" type="line"/>
      <point x="276" y="393" type="line"/>
      <point x="284" y="401" type="line"/>
      <point x="285" y="346"/>
      <point x="289" y="329"/>
      <point x="294" y="316" type="curve" smooth="yes"/>
      <point x="297" y="311"/>
      <point x="293" y="305"/>
      <point x="287" y="305" type="curve" smooth="yes"/>
    </contour>
    <contour>
      <point x="303" y="519" type="curve" smooth="yes"/>
      <point x="277" y="519" type="line"/>
      <point x="285" y="527" type="line"/>
      <point x="284" y="509"/>
      <point x="284" y="485"/>
      <point x="284" y="461" type="curve"/>
      <point x="276" y="469" type="line"/>
      <point x="307" y="469" type="line" smooth="yes"/>
      <point x="324" y="469"/>
      <point x="336" y="477"/>
      <point x="336" y="494" type="curve" smooth="yes"/>
      <point x="336" y="510"/>
      <point x="324" y="519"/>
    </contour>
    <contour>
      <point x="307" y="194" type="curve" smooth="yes"/>
      <point x="452" y="194"/>
      <point x="556" y="298"/>
      <point x="556" y="443" type="curve" smooth="yes"/>
      <point x="556" y="588"/>
      <point x="452" y="692"/>
      <point x="307" y="692" type="curve" smooth="yes"/>
      <point x="162" y="692"/>
      <point x="58" y="588"/>
      <point x="58" y="443" type="curve" smooth="yes"/>
      <point x="58" y="298"/>
      <point x="162" y="194"/>
    </contour>
    <contour>
      <point x="190" y="321" type="line"/>
      <point x="287" y="321" type="line"/>
      <point x="280" y="310" type="line"/>
      <point x="273" y="323"/>
      <point x="269" y="340"/>
      <point x="268" y="401" type="curve" smooth="yes"/>
      <point x="268" y="405"/>
      <point x="272" y="409"/>
      <point x="276" y="409" type="curve" smooth="yes"/>
      <point x="313" y="409" type="line" smooth="yes"/>
      <point x="316" y="409"/>
      <point x="318" y="408"/>
      <point x="320" y="405" type="curve" smooth="yes"/>
      <point x="357" y="347"/>
      <point x="361" y="327"/>
      <point x="362" y="314" type="curve"/>
      <point x="354" y="321" type="line"/>
      <point x="463" y="321" type="line"/>
      <point x="458" y="307" type="line"/>
      <point x="440" y="322"/>
      <point x="413" y="351"/>
      <point x="373" y="414" type="curve" smooth="yes"/>
      <point x="371" y="417"/>
      <point x="372" y="422"/>
      <point x="376" y="425" type="curve" smooth="yes"/>
      <point x="398" y="440"/>
      <point x="412" y="465"/>
      <point x="412" y="495" type="curve" smooth="yes"/>
      <point x="412" y="548"/>
      <point x="373" y="581"/>
      <point x="311" y="581" type="curve" smooth="yes"/>
      <point x="190" y="581" type="line"/>
      <point x="197" y="593" type="line"/>
      <point x="205" y="577"/>
      <point x="210" y="557"/>
      <point x="210" y="453" type="curve" smooth="yes"/>
      <point x="210" y="348"/>
      <point x="205" y="326"/>
      <point x="197" y="309" type="curve"/>
    </contour>
    <contour>
      <point x="303" y="535" type="line" smooth="yes"/>
      <point x="334" y="535"/>
      <point x="352" y="518"/>
      <point x="352" y="494" type="curve" smooth="yes"/>
      <point x="352" y="469"/>
      <point x="334" y="453"/>
      <point x="307" y="453" type="curve" smooth="yes"/>
      <point x="276" y="453" type="line" smooth="yes"/>
      <point x="272" y="453"/>
      <point x="268" y="457"/>
      <point x="268" y="461" type="curve" smooth="yes"/>
      <point x="268" y="485"/>
      <point x="268" y="509"/>
      <point x="269" y="527" type="curve" smooth="yes"/>
      <point x="269" y="532"/>
      <point x="273" y="535"/>
      <point x="277" y="535" type="curve" smooth="yes"/>
    </contour>
  </outline>
</glyph>
<glyph name="acute" format="2">
  <advance width="408"/>
  <unicode hex="00B4"/>
  <outline>
    <contour>
      <point x="87" y="580" type="line"/>
      <point x="80" y="592" type="line"/>
      <point x="214" y="592" type="line"/>
      <point x="207" y="589" type="line"/>
      <point x="341" y="785" type="line"/>
      <point x="348" y="772" type="line"/>
      <point x="189" y="772" type="line"/>
      <point x="196" y="776" type="line"/>
    </contour>
    <contour>
      <point x="73" y="588" type="curve" smooth="yes"/>
      <point x="182" y="784" type="line" smooth="yes"/>
      <point x="183" y="786"/>
      <point x="186" y="788"/>
      <point x="189" y="788" type="curve" smooth="yes"/>
      <point x="348" y="788" type="line" smooth="yes"/>
      <point x="354" y="788"/>
      <point x="358" y="781"/>
      <point x="355" y="775" type="curve" smooth="yes"/>
      <point x="221" y="579" type="line" smooth="yes"/>
      <point x="219" y="577"/>
      <point x="217" y="576"/>
      <point x="214" y="576" type="curve" smooth="yes"/>
      <point x="80" y="576" type="line" smooth="yes"/>
      <point x="74" y="576"/>
      <point x="70" y="583"/>
    </contour>
  </outline>
</glyph>
<glyph name="onehalf" format="2">
  <advance width="940"/>
  <unicode hex="00BD"/>
  <outline>
    <contour>
      <point x="108" y="263" type="line" smooth="yes"/>
      <point x="101" y="263"/>
      <point x="98" y="270"/>
      <point x="102" y="276" type="curve" smooth="yes"/>
      <point x="121" y="302"/>
      <point x="125" y="335"/>
      <point x="125" y="484" type="curve" smooth="yes"/>
      <point x="125" y="526"/>
      <point x="125" y="546"/>
      <point x="124" y="567" type="curve"/>
      <point x="134" y="559" type="line"/>
      <point x="95" y="550"/>
      <point x="66" y="537"/>
      <point x="45" y="522" type="curve" smooth="yes"/>
      <point x="39" y="519"/>
      <point x="32" y="523"/>
      <point x="32" y="529" type="curve"/>
      <point x="32" y="653" type="line" smooth="yes"/>
      <point x="32" y="657"/>
      <point x="35" y="660"/>
      <point x="39" y="661" type="curve" smooth="yes"/>
      <point x="264" y="702" type="line" smooth="yes"/>
      <point x="269" y="703"/>
      <point x="274" y="698"/>
      <point x="273" y="692" type="curve" smooth="yes"/>
      <point x="265" y="657"/>
      <point x="262" y="628"/>
      <point x="262" y="484" type="curve" smooth="yes"/>
      <point x="262" y="334"/>
      <point x="265" y="299"/>
      <point x="279" y="275" type="curve" smooth="yes"/>
      <point x="282" y="270"/>
      <point x="278" y="263"/>
      <point x="272" y="263" type="curve" smooth="yes"/>
    </contour>
    <contour>
      <point x="155" y="-8" type="line" smooth="yes"/>
      <point x="149" y="-8"/>
      <point x="145" y="-1"/>
      <point x="148" y="4" type="curve" smooth="yes"/>
      <point x="560" y="684" type="line" smooth="yes"/>
      <point x="562" y="687"/>
      <point x="564" y="688"/>
      <point x="567" y="688" type="curve" smooth="yes"/>
      <point x="693" y="688" type="line" smooth="yes"/>
      <point x="699" y="688"/>
      <point x="703" y="681"/>
      <point x="700" y="676" type="curve" smooth="yes"/>
      <point x="288" y="-4" type="line" smooth="yes"/>
      <point x="286" y="-7"/>
      <point x="284" y="-8"/>
      <point x="281" y="-8" type="curve" smooth="yes"/>
    </contour>
    <contour>
      <point x="552" y="-8" type="line" smooth="yes"/>
      <point x="547" y="-8"/>
      <point x="543" y="-3"/>
      <point x="544" y="2" type="curve" smooth="yes"/>
      <point x="576" y="164"/>
      <point x="731" y="204"/>
      <point x="731" y="281" type="curve" smooth="yes"/>
      <point x="731" y="302"/>
      <point x="712" y="314"/>
      <point x="678" y="314" type="curve" smooth="yes"/>
      <point x="643" y="314"/>
      <point x="606" y="301"/>
      <point x="573" y="278" type="curve" smooth="yes"/>
      <point x="567" y="275"/>
      <point x="560" y="279"/>
      <point x="560" y="285" type="curve" smooth="yes"/>
      <point x="560" y="405" type="line" smooth="yes"/>
      <point x="560" y="409"/>
      <point x="562" y="412"/>
      <point x="566" y="413" type="curve" smooth="yes"/>
      <point x="610" y="424"/>
      <point x="650" y="429"/>
      <point x="692" y="429" type="curve" smooth="yes"/>
      <point x="799" y="429"/>
      <point x="871" y="387"/>
      <point x="871" y="300" type="curve" smooth="yes"/>
      <point x="871" y="196"/>
      <point x="786" y="164"/>
      <point x="724" y="91" type="curve"/>
      <point x="718" y="104" type="line"/>
      <point x="807" y="104"/>
      <point x="842" y="112"/>
      <point x="864" y="128" type="curve" smooth="yes"/>
      <point x="870" y="132"/>
      <point x="878" y="127"/>
      <point x="877" y="120" type="curve" smooth="yes"/>
      <point x="863" y="-1" type="line" smooth="yes"/>
      <point x="862" y="-5"/>
      <point x="859" y="-8"/>
      <point x="855" y="-8" type="curve" smooth="yes"/>
    </contour>
    <contour>
      <point x="108" y="279" type="line"/>
      <point x="272" y="279" type="line"/>
      <point x="265" y="267" type="line"/>
      <point x="251" y="293"/>
      <point x="246" y="324"/>
      <point x="246" y="484" type="curve" smooth="yes"/>
      <point x="246" y="630"/>
      <point x="249" y="661"/>
      <point x="257" y="696" type="curve"/>
      <point x="266" y="686" type="line"/>
      <point x="41" y="645" type="line"/>
      <point x="48" y="653" type="line"/>
      <point x="48" y="529" type="line"/>
      <point x="35" y="536" type="line"/>
      <point x="58" y="551"/>
      <point x="89" y="564"/>
      <point x="130" y="575" type="curve" smooth="yes"/>
      <point x="135" y="576"/>
      <point x="140" y="572"/>
      <point x="140" y="567" type="curve" smooth="yes"/>
      <point x="141" y="546"/>
      <point x="141" y="526"/>
      <point x="141" y="484" type="curve" smooth="yes"/>
      <point x="141" y="323"/>
      <point x="135" y="294"/>
      <point x="114" y="266" type="curve"/>
    </contour>
    <contour>
      <point x="155" y="8" type="line"/>
      <point x="281" y="8" type="line"/>
      <point x="274" y="4" type="line"/>
      <point x="686" y="684" type="line"/>
      <point x="693" y="672" type="line"/>
      <point x="567" y="672" type="line"/>
      <point x="574" y="676" type="line"/>
      <point x="162" y="-4" type="line"/>
    </contour>
    <contour>
      <point x="552" y="8" type="line"/>
      <point x="855" y="8" type="line"/>
      <point x="847" y="1" type="line"/>
      <point x="861" y="122" type="line"/>
      <point x="874" y="114" type="line"/>
      <point x="850" y="98"/>
      <point x="815" y="88"/>
      <point x="718" y="88" type="curve" smooth="yes"/>
      <point x="711" y="88"/>
      <point x="707" y="96"/>
      <point x="712" y="101" type="curve" smooth="yes"/>
      <point x="768" y="168"/>
      <point x="855" y="204"/>
      <point x="855" y="300" type="curve" smooth="yes"/>
      <point x="855" y="379"/>
      <point x="789" y="413"/>
      <point x="692" y="413" type="curve" smooth="yes"/>
      <point x="652" y="413"/>
      <point x="612" y="408"/>
      <point x="570" y="397" type="curve"/>
      <point x="576" y="405" type="line"/>
      <point x="576" y="285" type="line"/>
      <point x="563" y="292" type="line"/>
      <point x="600" y="317"/>
      <point x="641" y="330"/>
      <point x="678" y="330" type="curve" smooth="yes"/>
      <point x="724" y="330"/>
      <point x="747" y="310"/>
      <point x="747" y="281" type="curve" smooth="yes"/>
      <point x="747" y="198"/>
      <point x="590" y="150"/>
      <point x="560" y="-2" type="curve"/>
    </contour>
  </outline>
</glyph>
<glyph name="threequarters" format="2">
  <advance width="960"/>
  <unicode hex="00BE"/>
  <outline>
    <contour>
      <point x="216" y="-8" type="line" smooth="yes"/>
      <point x="210" y="-8"/>
      <point x="206" y="-1"/>
      <point x="209" y="4" type="curve" smooth="yes"/>
      <point x="621" y="684" type="line" smooth="yes"/>
      <point x="623" y="687"/>
      <point x="625" y="688"/>
      <point x="628" y="688" type="curve" smooth="yes"/>
      <point x="754" y="688" type="line" smooth="yes"/>
      <point x="760" y="688"/>
      <point x="764" y="681"/>
      <point x="761" y="676" type="curve" smooth="yes"/>
      <point x="349" y="-4" type="line" smooth="yes"/>
      <point x="347" y="-7"/>
      <point x="345" y="-8"/>
      <point x="342" y="-8" type="curve" smooth="yes"/>
    </contour>
    <contour>
      <point x="541" y="87" type="line" smooth="yes"/>
      <point x="535" y="87"/>
      <point x="531" y="93"/>
      <point x="534" y="99" type="curve" smooth="yes"/>
      <point x="703" y="413" type="line" smooth="yes"/>
      <point x="704" y="415"/>
      <point x="707" y="417"/>
      <point x="710" y="417" type="curve" smooth="yes"/>
      <point x="889" y="417" type="line" smooth="yes"/>
      <point x="895" y="417"/>
      <point x="899" y="410"/>
      <point x="896" y="405" type="curve" smooth="yes"/>
      <point x="881" y="381"/>
      <point x="878" y="345"/>
      <point x="878" y="186" type="curve"/>
      <point x="869" y="194" type="line"/>
      <point x="898" y="196"/>
      <point x="909" y="199"/>
      <point x="924" y="205" type="curve" smooth="yes"/>
      <point x="929" y="208"/>
      <point x="935" y="204"/>
      <point x="935" y="198" type="curve" smooth="yes"/>
      <point x="935" y="82" type="line" smooth="yes"/>
      <point x="935" y="76"/>
      <point x="929" y="72"/>
      <point x="924" y="75" type="curve" smooth="yes"/>
      <point x="910" y="80"/>
      <point x="898" y="83"/>
      <point x="871" y="85" type="curve"/>
      <point x="880" y="93" type="line"/>
      <point x="882" y="38"/>
      <point x="886" y="20"/>
      <point x="896" y="4" type="curve" smooth="yes"/>
      <point x="899" y="-1"/>
      <point x="895" y="-8"/>
      <point x="889" y="-8" type="curve" smooth="yes"/>
      <point x="736" y="-8" type="line" smooth="yes"/>
      <point x="730" y="-8"/>
      <point x="726" y="-1"/>
      <point x="729" y="4" type="curve" smooth="yes"/>
      <point x="739" y="20"/>
      <point x="743" y="38"/>
      <point x="745" y="95" type="curve"/>
      <point x="753" y="87" type="line"/>
    </contour>
    <contour>
      <point x="68" y="268" type="curve" smooth="yes"/>
      <point x="64" y="269"/>
      <point x="62" y="272"/>
      <point x="62" y="276" type="curve" smooth="yes"/>
      <point x="62" y="395" type="line" smooth="yes"/>
      <point x="62" y="401"/>
      <point x="69" y="405"/>
      <point x="74" y="402" type="curve" smooth="yes"/>
      <point x="112" y="378"/>
      <point x="148" y="363"/>
      <point x="189" y="363" type="curve" smooth="yes"/>
      <point x="221" y="363"/>
      <point x="240" y="374"/>
      <point x="240" y="395" type="curve" smooth="yes"/>
      <point x="240" y="425"/>
      <point x="198" y="439"/>
      <point x="95" y="438" type="curve" smooth="yes"/>
      <point x="89" y="438"/>
      <point x="85" y="445"/>
      <point x="89" y="451" type="curve" smooth="yes"/>
      <point x="184" y="582" type="line"/>
      <point x="190" y="569" type="line"/>
      <point x="124" y="567"/>
      <point x="98" y="561"/>
      <point x="79" y="553" type="curve" smooth="yes"/>
      <point x="74" y="550"/>
      <point x="68" y="554"/>
      <point x="68" y="560" type="curve" smooth="yes"/>
      <point x="68" y="680" type="line" smooth="yes"/>
      <point x="68" y="684"/>
      <point x="72" y="688"/>
      <point x="76" y="688" type="curve" smooth="yes"/>
      <point x="373" y="688" type="line" smooth="yes"/>
      <point x="380" y="688"/>
      <point x="383" y="680"/>
      <point x="379" y="675" type="curve" smooth="yes"/>
      <point x="259" y="515" type="line"/>
      <point x="254" y="528" type="line"/>
      <point x="334" y="514"/>
      <point x="383" y="465"/>
      <point x="383" y="404" type="curve" smooth="yes"/>
      <point x="383" y="278"/>
      <point x="226" y="219"/>
    </contour>
    <contour>
      <point x="700" y="181" type="line"/>
      <point x="693" y="192" type="line"/>
      <point x="755" y="192" type="line"/>
      <point x="747" y="184" type="line"/>
      <point x="747" y="230"/>
      <point x="747" y="281"/>
      <point x="745" y="311" type="curve"/>
      <point x="760" y="309" type="line"/>
    </contour>
    <contour>
      <point x="216" y="8" type="line"/>
      <point x="342" y="8" type="line"/>
      <point x="335" y="4" type="line"/>
      <point x="747" y="684" type="line"/>
      <point x="754" y="672" type="line"/>
      <point x="628" y="672" type="line"/>
      <point x="635" y="676" type="line"/>
      <point x="223" y="-4" type="line"/>
    </contour>
    <contour>
      <point x="541" y="103" type="line"/>
      <point x="753" y="103" type="line" smooth="yes"/>
      <point x="758" y="103"/>
      <point x="761" y="99"/>
      <point x="761" y="95" type="curve" smooth="yes"/>
      <point x="759" y="32"/>
      <point x="753" y="14"/>
      <point x="743" y="-4" type="curve"/>
      <point x="736" y="8" type="line"/>
      <point x="889" y="8" type="line"/>
      <point x="882" y="-4" type="line"/>
      <point x="872" y="14"/>
      <point x="866" y="32"/>
      <point x="864" y="93" type="curve" smooth="yes"/>
      <point x="864" y="97"/>
      <point x="868" y="101"/>
      <point x="873" y="101" type="curve" smooth="yes"/>
      <point x="902" y="99"/>
      <point x="916" y="96"/>
      <point x="930" y="89" type="curve"/>
      <point x="919" y="82" type="line"/>
      <point x="919" y="198" type="line"/>
      <point x="930" y="191" type="line"/>
      <point x="915" y="183"/>
      <point x="902" y="180"/>
      <point x="871" y="178" type="curve" smooth="yes"/>
      <point x="866" y="178"/>
      <point x="862" y="181"/>
      <point x="862" y="186" type="curve" smooth="yes"/>
      <point x="862" y="357"/>
      <point x="867" y="387"/>
      <point x="882" y="413" type="curve"/>
      <point x="889" y="401" type="line"/>
      <point x="710" y="401" type="line"/>
      <point x="717" y="405" type="line"/>
      <point x="548" y="91" type="line"/>
    </contour>
    <contour>
      <point x="72" y="284" type="line"/>
      <point x="218" y="239"/>
      <point x="367" y="288"/>
      <point x="367" y="404" type="curve" smooth="yes"/>
      <point x="367" y="459"/>
      <point x="322" y="500"/>
      <point x="252" y="512" type="curve" smooth="yes"/>
      <point x="246" y="513"/>
      <point x="243" y="520"/>
      <point x="247" y="525" type="curve" smooth="yes"/>
      <point x="367" y="685" type="line"/>
      <point x="373" y="672" type="line"/>
      <point x="76" y="672" type="line"/>
      <point x="84" y="680" type="line"/>
      <point x="84" y="560" type="line"/>
      <point x="73" y="567" type="line"/>
      <point x="92" y="577"/>
      <point x="120" y="583"/>
      <point x="190" y="585" type="curve" smooth="yes"/>
      <point x="196" y="585"/>
      <point x="200" y="578"/>
      <point x="196" y="572" type="curve" smooth="yes"/>
      <point x="101" y="441" type="line"/>
      <point x="95" y="454" type="line"/>
      <point x="221" y="455"/>
      <point x="256" y="432"/>
      <point x="256" y="395" type="curve" smooth="yes"/>
      <point x="256" y="366"/>
      <point x="233" y="347"/>
      <point x="189" y="347" type="curve" smooth="yes"/>
      <point x="146" y="347"/>
      <point x="106" y="362"/>
      <point x="66" y="388" type="curve"/>
      <point x="78" y="395" type="line"/>
      <point x="78" y="276" type="line"/>
    </contour>
    <contour>
      <point x="686" y="187" type="curve" smooth="yes"/>
      <point x="746" y="315" type="line" smooth="yes"/>
      <point x="749" y="323"/>
      <point x="760" y="321"/>
      <point x="761" y="313" type="curve" smooth="yes"/>
      <point x="763" y="281"/>
      <point x="763" y="230"/>
      <point x="763" y="184" type="curve" smooth="yes"/>
      <point x="763" y="180"/>
      <point x="759" y="176"/>
      <point x="755" y="176" type="curve" smooth="yes"/>
      <point x="693" y="176" type="line" smooth="yes"/>
      <point x="687" y="176"/>
      <point x="683" y="182"/>
    </contour>
  </outline>
</glyph>
<glyph name="germandbls" format="2">
  <advance width="588"/>
  <unicode hex="00DF"/>
  <outline>
    <contour>
      <point x="230" y="4" type="curve" smooth="yes"/>
      <point x="233" y="-2"/>
      <point x="229" y="-8"/>
      <point x="223" y="-8" type="curve" smooth="yes"/>
      <point x="40" y="-8" type="line" smooth="yes"/>
      <point x="34" y="-8"/>
      <point x="30" y="-2"/>
      <point x="33" y="4" type="curve" smooth="yes"/>
      <point x="50" y="36"/>
      <point x="55" y="83"/>
      <point x="55" y="364" type="curve" smooth="yes"/>
      <point x="55" y="501"/>
      <point x="134" y="588"/>
      <point x="272" y="588" type="curve" smooth="yes"/>
      <point x="555" y="588" type="line" smooth="yes"/>
      <point x="561" y="588"/>
      <point x="565" y="582"/>
      <point x="562" y="576" type="curve" smooth="yes"/>
      <point x="429" y="331" type="line"/>
      <point x="424" y="343" type="line"/>
      <point x="509" y="316"/>
      <point x="564" y="267"/>
      <point x="564" y="171" type="curve" smooth="yes"/>
      <point x="564" y="35"/>
      <point x="448" y="-44"/>
      <point x="249" y="-5" type="curve" smooth="yes"/>
      <point x="246" y="-4"/>
      <point x="243" y="-1"/>
      <point x="243" y="3" type="curve" smooth="yes"/>
      <point x="243" y="149" type="line" smooth="yes"/>
      <point x="243" y="155"/>
      <point x="250" y="159"/>
      <point x="255" y="156" type="curve" smooth="yes"/>
      <point x="340" y="101"/>
      <point x="414" y="112"/>
      <point x="414" y="164" type="curve" smooth="yes"/>
      <point x="414" y="213"/>
      <point x="361" y="238"/>
      <point x="244" y="257" type="curve" smooth="yes"/>
      <point x="238" y="258"/>
      <point x="235" y="264"/>
      <point x="238" y="269" type="curve" smooth="yes"/>
      <point x="342" y="467" type="line"/>
      <point x="349" y="455" type="line"/>
      <point x="273" y="455" type="line" smooth="yes"/>
      <point x="227" y="455"/>
      <point x="208" y="417"/>
      <point x="208" y="360" type="curve" smooth="yes"/>
      <point x="208" y="83"/>
      <point x="213" y="36"/>
    </contour>
    <contour>
      <point x="216" y="-4" type="line"/>
      <point x="199" y="30"/>
      <point x="192" y="75"/>
      <point x="192" y="360" type="curve" smooth="yes"/>
      <point x="192" y="427"/>
      <point x="219" y="471"/>
      <point x="273" y="471" type="curve" smooth="yes"/>
      <point x="349" y="471" type="line" smooth="yes"/>
      <point x="355" y="471"/>
      <point x="359" y="465"/>
      <point x="356" y="459" type="curve" smooth="yes"/>
      <point x="252" y="261" type="line"/>
      <point x="246" y="273" type="line"/>
      <point x="380" y="252"/>
      <point x="430" y="219"/>
      <point x="430" y="164" type="curve" smooth="yes"/>
      <point x="430" y="102"/>
      <point x="348" y="77"/>
      <point x="247" y="142" type="curve"/>
      <point x="259" y="149" type="line"/>
      <point x="259" y="3" type="line"/>
      <point x="253" y="11" type="line"/>
      <point x="440" y="-26"/>
      <point x="548" y="43"/>
      <point x="548" y="171" type="curve" smooth="yes"/>
      <point x="548" y="259"/>
      <point x="497" y="302"/>
      <point x="420" y="327" type="curve" smooth="yes"/>
      <point x="415" y="329"/>
      <point x="413" y="334"/>
      <point x="415" y="339" type="curve" smooth="yes"/>
      <point x="548" y="584" type="line"/>
      <point x="555" y="572" type="line"/>
      <point x="272" y="572" type="line" smooth="yes"/>
      <point x="142" y="572"/>
      <point x="71" y="493"/>
      <point x="71" y="364" type="curve" smooth="yes"/>
      <point x="71" y="75"/>
      <point x="64" y="30"/>
      <point x="47" y="-4" type="curve"/>
      <point x="40" y="8" type="line"/>
      <point x="223" y="8" type="line"/>
    </contour>
  </outline>
</glyph>
<glyph name="ccedilla" format="2">
  <advance width="541"/>
  <unicode hex="00E7"/>
  <outline>
    <contour>
      <point x="183" y="290" type="curve" smooth="yes"/>
      <point x="183" y="183"/>
      <point x="240" y="119"/>
      <point x="322" y="119" type="curve" smooth="yes"/>
      <point x="381" y="119"/>
      <point x="434" y="149"/>
      <point x="481" y="190" type="curve" smooth="yes"/>
      <point x="486" y="195"/>
      <point x="494" y="191"/>
      <point x="494" y="184" type="curve" smooth="yes"/>
      <point x="494" y="22" type="line" smooth="yes"/>
      <point x="494" y="19"/>
      <point x="492" y="16"/>
      <point x="489" y="15" type="curve" smooth="yes"/>
      <point x="444" y="-5"/>
      <point x="390" y="-19"/>
      <point x="329" y="-20" type="curve"/>
      <point x="335" y="-7" type="line"/>
      <point x="363" y="-43"/>
      <point x="444" y="-46"/>
      <point x="444" y="-134" type="curve" smooth="yes"/>
      <point x="444" y="-253"/>
      <point x="320" y="-301"/>
      <point x="138" y="-248" type="curve" smooth="yes"/>
      <point x="134" y="-247"/>
      <point x="132" y="-244"/>
      <point x="132" y="-240" type="curve" smooth="yes"/>
      <point x="132" y="-114" type="line" smooth="yes"/>
      <point x="132" y="-107"/>
      <point x="139" y="-104"/>
      <point x="145" y="-108" type="curve" smooth="yes"/>
      <point x="221" y="-162"/>
      <point x="296" y="-179"/>
      <point x="296" y="-141" type="curve" smooth="yes"/>
      <point x="296" y="-95"/>
      <point x="206" y="-113"/>
      <point x="195" y="8" type="curve"/>
      <point x="200" y="2" type="line"/>
      <point x="88" y="45"/>
      <point x="21" y="150"/>
      <point x="21" y="288" type="curve" smooth="yes"/>
      <point x="21" y="471"/>
      <point x="140" y="600"/>
      <point x="322" y="600" type="curve" smooth="yes"/>
      <point x="386" y="600"/>
      <point x="442" y="586"/>
      <point x="489" y="565" type="curve" smooth="yes"/>
      <point x="492" y="564"/>
      <point x="494" y="561"/>
      <point x="494" y="558" type="curve" smooth="yes"/>
      <point x="494" y="396" type="line" smooth="yes"/>
      <point x="494" y="389"/>
      <point x="486" y="385"/>
      <point x="481" y="390" type="curve" smooth="yes"/>
      <point x="436" y="428"/>
      <point x="380" y="462"/>
      <point x="321" y="462" type="curve" smooth="yes"/>
      <point x="239" y="462"/>
      <point x="183" y="397"/>
    </contour>
    <contour>
      <point x="167" y="290" type="curve" smooth="yes"/>
      <point x="167" y="407"/>
      <point x="231" y="478"/>
      <point x="321" y="478" type="curve" smooth="yes"/>
      <point x="384" y="478"/>
      <point x="444" y="442"/>
      <point x="491" y="402" type="curve"/>
      <point x="478" y="396" type="line"/>
      <point x="478" y="558" type="line"/>
      <point x="483" y="551" type="line"/>
      <point x="438" y="570"/>
      <point x="384" y="584"/>
      <point x="322" y="584" type="curve" smooth="yes"/>
      <point x="148" y="584"/>
      <point x="37" y="463"/>
      <point x="37" y="288" type="curve" smooth="yes"/>
      <point x="37" y="158"/>
      <point x="100" y="57"/>
      <point x="206" y="16" type="curve" smooth="yes"/>
      <point x="209" y="15"/>
      <point x="211" y="13"/>
      <point x="211" y="10" type="curve" smooth="yes"/>
      <point x="220" y="-97"/>
      <point x="312" y="-89"/>
      <point x="312" y="-141" type="curve" smooth="yes"/>
      <point x="312" y="-192"/>
      <point x="236" y="-193"/>
      <point x="135" y="-120" type="curve"/>
      <point x="148" y="-114" type="line"/>
      <point x="148" y="-240" type="line"/>
      <point x="142" y="-232" type="line"/>
      <point x="310" y="-281"/>
      <point x="428" y="-243"/>
      <point x="428" y="-134" type="curve" smooth="yes"/>
      <point x="428" y="-56"/>
      <point x="353" y="-57"/>
      <point x="323" y="-17" type="curve" smooth="yes"/>
      <point x="319" y="-12"/>
      <point x="322" y="-4"/>
      <point x="329" y="-4" type="curve" smooth="yes"/>
      <point x="388" y="-3"/>
      <point x="440" y="11"/>
      <point x="483" y="29" type="curve"/>
      <point x="478" y="22" type="line"/>
      <point x="478" y="184" type="line"/>
      <point x="491" y="178" type="line"/>
      <point x="442" y="135"/>
      <point x="385" y="103"/>
      <point x="322" y="103" type="curve" smooth="yes"/>
      <point x="232" y="103"/>
      <point x="167" y="173"/>
    </contour>
  </outline>
</glyph>
<glyph name="divide" format="2">
  <advance width="540"/>
  <unicode hex="00F7"/>
  <outline>
    <contour>
      <point x="48" y="247" type="line"/>
      <point x="40" y="255" type="line"/>
      <point x="500" y="255" type="line"/>
      <point x="492" y="247" type="line"/>
      <point x="492" y="374" type="line"/>
      <point x="500" y="366" type="line"/>
      <point x="40" y="366" type="line"/>
      <point x="48" y="374" type="line"/>
    </contour>
    <contour>
      <point x="194" y="37" type="line" smooth="yes"/>
      <point x="190" y="37"/>
      <point x="186" y="41"/>
      <point x="186" y="45" type="curve" smooth="yes"/>
      <point x="186" y="196" type="line" smooth="yes"/>
      <point x="186" y="200"/>
      <point x="190" y="204"/>
      <point x="194" y="204" type="curve" smooth="yes"/>
      <point x="345" y="204" type="line" smooth="yes"/>
      <point x="349" y="204"/>
      <point x="353" y="200"/>
      <point x="353" y="196" type="curve" smooth="yes"/>
      <point x="353" y="45" type="line" smooth="yes"/>
      <point x="353" y="41"/>
      <point x="349" y="37"/>
      <point x="345" y="37" type="curve" smooth="yes"/>
    </contour>
    <contour>
      <point x="194" y="417" type="line" smooth="yes"/>
      <point x="190" y="417"/>
      <point x="186" y="421"/>
      <point x="186" y="425" type="curve" smooth="yes"/>
      <point x="186" y="576" type="line" smooth="yes"/>
      <point x="186" y="580"/>
      <point x="190" y="584"/>
      <point x="194" y="584" type="curve" smooth="yes"/>
      <point x="345" y="584" type="line" smooth="yes"/>
      <point x="349" y="584"/>
      <point x="353" y="580"/>
      <point x="353" y="576" type="curve" smooth="yes"/>
      <point x="353" y="425" type="line" smooth="yes"/>
      <point x="353" y="421"/>
      <point x="349" y="417"/>
      <point x="345" y="417" type="curve" smooth="yes"/>
    </contour>
    <contour>
      <point x="32" y="247" type="curve" smooth="yes"/>
      <point x="32" y="374" type="line" smooth="yes"/>
      <point x="32" y="378"/>
      <point x="36" y="382"/>
      <point x="40" y="382" type="curve" smooth="yes"/>
      <point x="500" y="382" type="line" smooth="yes"/>
      <point x="504" y="382"/>
      <point x="508" y="378"/>
      <point x="508" y="374" type="curve" smooth="yes"/>
      <point x="508" y="247" type="line" smooth="yes"/>
      <point x="508" y="243"/>
      <point x="504" y="239"/>
      <point x="500" y="239" type="curve" smooth="yes"/>
      <point x="40" y="239" type="line" smooth="yes"/>
      <point x="36" y="239"/>
      <point x="32" y="243"/>
    </contour>
    <contour>
      <point x="194" y="53" type="line"/>
      <point x="345" y="53" type="line"/>
      <point x="337" y="45" type="line"/>
      <point x="337" y="196" type="line"/>
      <point x="345" y="188" type="line"/>
      <point x="194" y="188" type="line"/>
      <point x="202" y="196" type="line"/>
      <point x="202" y="45" type="line"/>
    </contour>
    <contour>
      <point x="194" y="433" type="line"/>
      <point x="345" y="433" type="line"/>
      <point x="337" y="425" type="line"/>
      <point x="337" y="576" type="line"/>
      <point x="345" y="568" type="line"/>
      <point x="194" y="568" type="line"/>
      <point x="202" y="576" type="line"/>
      <point x="202" y="425" type="line"/>
    </contour>
  </outline>
</glyph>
<glyph name="thorn" format="2">
  <advance width="541"/>
  <unicode hex="00FE"/>
  <outline>
    <contour>
      <point x="50" y="-8" type="line" smooth="yes"/>
      <point x="44" y="-8"/>
      <point x="40" y="-2"/>
      <point x="43" y="4" type="curve" smooth="yes"/>
      <point x="59" y="34"/>
      <point x="69" y="71"/>
      <point x="69" y="249" type="curve" smooth="yes"/>
      <point x="69" y="486"/>
      <point x="63" y="538"/>
      <point x="43" y="576" type="curve" smooth="yes"/>
      <point x="40" y="582"/>
      <point x="44" y="588"/>
      <point x="50" y="588" type="curve" smooth="yes"/>
      <point x="241" y="588" type="line" smooth="yes"/>
      <point x="247" y="588"/>
      <point x="251" y="582"/>
      <point x="248" y="577" type="curve" smooth="yes"/>
      <point x="239" y="558"/>
      <point x="233" y="538"/>
      <point x="229" y="496" type="curve"/>
      <point x="221" y="505" type="line"/>
      <point x="295" y="505" type="line" smooth="yes"/>
      <point x="443" y="505"/>
      <point x="534" y="420"/>
      <point x="534" y="293" type="curve" smooth="yes"/>
      <point x="534" y="166"/>
      <point x="443" y="79"/>
      <point x="295" y="79" type="curve" smooth="yes"/>
      <point x="219" y="79" type="line"/>
      <point x="227" y="88" type="line"/>
      <point x="232" y="40"/>
      <point x="239" y="21"/>
      <point x="248" y="4" type="curve" smooth="yes"/>
      <point x="251" y="-2"/>
      <point x="247" y="-8"/>
      <point x="241" y="-8" type="curve" smooth="yes"/>
    </contour>
    <contour>
      <point x="222" y="206" type="line"/>
      <point x="214" y="214" type="line"/>
      <point x="297" y="214" type="line" smooth="yes"/>
      <point x="348" y="214"/>
      <point x="377" y="243"/>
      <point x="377" y="291" type="curve" smooth="yes"/>
      <point x="377" y="339"/>
      <point x="348" y="370"/>
      <point x="297" y="370" type="curve" smooth="yes"/>
      <point x="215" y="370" type="line"/>
      <point x="223" y="378" type="line"/>
    </contour>
    <contour>
      <point x="50" y="8" type="line"/>
      <point x="241" y="8" type="line"/>
      <point x="234" y="-4" type="line"/>
      <point x="225" y="15"/>
      <point x="216" y="36"/>
      <point x="211" y="86" type="curve" smooth="yes"/>
      <point x="211" y="91"/>
      <point x="214" y="95"/>
      <point x="219" y="95" type="curve" smooth="yes"/>
      <point x="295" y="95" type="line" smooth="yes"/>
      <point x="433" y="95"/>
      <point x="518" y="174"/>
      <point x="518" y="293" type="curve" smooth="yes"/>
      <point x="518" y="412"/>
      <point x="433" y="489"/>
      <point x="295" y="489" type="curve" smooth="yes"/>
      <point x="221" y="489" type="line" smooth="yes"/>
      <point x="216" y="489"/>
      <point x="213" y="493"/>
      <point x="213" y="498" type="curve" smooth="yes"/>
      <point x="217" y="542"/>
      <point x="225" y="564"/>
      <point x="234" y="583" type="curve"/>
      <point x="241" y="572" type="line"/>
      <point x="50" y="572" type="line"/>
      <point x="57" y="584" type="line"/>
      <point x="77" y="544"/>
      <point x="85" y="492"/>
      <point x="85" y="249" type="curve" smooth="yes"/>
      <point x="85" y="65"/>
      <point x="73" y="28"/>
      <point x="57" y="-4" type="curve"/>
    </contour>
    <contour>
      <point x="206" y="206" type="curve" smooth="yes"/>
      <point x="207" y="378" type="line" smooth="yes"/>
      <point x="207" y="382"/>
      <point x="211" y="386"/>
      <point x="215" y="386" type="curve" smooth="yes"/>
      <point x="297" y="386" type="line" smooth="yes"/>
      <point x="358" y="386"/>
      <point x="393" y="347"/>
      <point x="393" y="291" type="curve" smooth="yes"/>
      <point x="393" y="235"/>
      <point x="358" y="198"/>
      <point x="297" y="198" type="curve" smooth="yes"/>
      <point x="214" y="198" type="line" smooth="yes"/>
      <point x="210" y="198"/>
      <point x="206" y="202"/>
    </contour>
  </outline>
</glyph>
<glyph name="Aogonek" format="2">
  <advance width="670"/>
  <unicode hex="0104"/>
  <outline>
    <contour>
      <point x="210" y="138" type="line"/>
      <point x="218" y="144" type="line"/>
      <point x="195" y="62"/>
      <point x="196" y="33"/>
      <point x="207" y="3" type="curve" smooth="yes"/>
      <point x="209" y="-2"/>
      <point x="206" y="-8"/>
      <point x="200" y="-8" type="curve" smooth="yes"/>
      <point x="-5" y="-8" type="line" smooth="yes"/>
      <point x="-12" y="-8"/>
      <point x="-15" y="0"/>
      <point x="-11" y="5" type="curve" smooth="yes"/>
      <point x="18" y="45"/>
      <point x="42" y="99"/>
      <point x="138" y="352" type="curve" smooth="yes"/>
      <point x="223" y="579"/>
      <point x="248" y="641"/>
      <point x="250" y="680" type="curve" smooth="yes"/>
      <point x="250" y="685"/>
      <point x="254" y="688"/>
      <point x="258" y="688" type="curve" smooth="yes"/>
      <point x="412" y="688" type="line" smooth="yes"/>
      <point x="416" y="688"/>
      <point x="419" y="685"/>
      <point x="420" y="681" type="curve" smooth="yes"/>
      <point x="427" y="643"/>
      <point x="443" y="590"/>
      <point x="532" y="352" type="curve" smooth="yes"/>
      <point x="628" y="99"/>
      <point x="652" y="45"/>
      <point x="681" y="5" type="curve" smooth="yes"/>
      <point x="685" y="0"/>
      <point x="683" y="-6"/>
      <point x="677" y="-8" type="curve" smooth="yes"/>
      <point x="621" y="-25"/>
      <point x="586" y="-39"/>
      <point x="586" y="-62" type="curve" smooth="yes"/>
      <point x="586" y="-88"/>
      <point x="624" y="-86"/>
      <point x="671" y="-59" type="curve" smooth="yes"/>
      <point x="677" y="-56"/>
      <point x="684" y="-60"/>
      <point x="683" y="-67" type="curve" smooth="yes"/>
      <point x="673" y="-180" type="line" smooth="yes"/>
      <point x="673" y="-183"/>
      <point x="671" y="-186"/>
      <point x="668" y="-187" type="curve" smooth="yes"/>
      <point x="525" y="-235"/>
      <point x="442" y="-181"/>
      <point x="442" y="-98" type="curve" smooth="yes"/>
      <point x="442" y="-64"/>
      <point x="458" y="-27"/>
      <point x="490" y="1" type="curve"/>
      <point x="487" y="-7" type="line"/>
      <point x="438" y="144" type="line"/>
      <point x="446" y="138" type="line"/>
    </contour>
    <contour>
      <point x="320" y="480" type="line"/>
      <point x="336" y="480" type="line"/>
      <point x="259" y="268" type="line"/>
      <point x="251" y="279" type="line"/>
      <point x="405" y="279" type="line"/>
      <point x="397" y="268" type="line"/>
    </contour>
    <contour>
      <point x="210" y="154" type="curve" smooth="yes"/>
      <point x="446" y="154" type="line" smooth="yes"/>
      <point x="449" y="154"/>
      <point x="453" y="152"/>
      <point x="454" y="148" type="curve" smooth="yes"/>
      <point x="503" y="-3" type="line" smooth="yes"/>
      <point x="504" y="-6"/>
      <point x="503" y="-9"/>
      <point x="500" y="-11" type="curve" smooth="yes"/>
      <point x="472" y="-35"/>
      <point x="458" y="-68"/>
      <point x="458" y="-98" type="curve" smooth="yes"/>
      <point x="458" y="-173"/>
      <point x="535" y="-215"/>
      <point x="662" y="-171" type="curve"/>
      <point x="657" y="-178" type="line"/>
      <point x="667" y="-65" type="line"/>
      <point x="679" y="-73" type="line"/>
      <point x="613" y="-111"/>
      <point x="570" y="-99"/>
      <point x="570" y="-62" type="curve" smooth="yes"/>
      <point x="570" y="-32"/>
      <point x="598" y="-15"/>
      <point x="673" y="8" type="curve"/>
      <point x="669" y="-5" type="line"/>
      <point x="638" y="35"/>
      <point x="614" y="91"/>
      <point x="518" y="346" type="curve" smooth="yes"/>
      <point x="427" y="586"/>
      <point x="411" y="639"/>
      <point x="404" y="679" type="curve"/>
      <point x="412" y="672" type="line"/>
      <point x="258" y="672" type="line"/>
      <point x="266" y="680" type="line"/>
      <point x="264" y="639"/>
      <point x="239" y="579"/>
      <point x="152" y="346" type="curve" smooth="yes"/>
      <point x="56" y="91"/>
      <point x="32" y="35"/>
      <point x="1" y="-5" type="curve"/>
      <point x="-5" y="8" type="line"/>
      <point x="200" y="8" type="line"/>
      <point x="193" y="-3" type="line"/>
      <point x="180" y="29"/>
      <point x="178" y="60"/>
      <point x="202" y="148" type="curve" smooth="yes"/>
      <point x="203" y="152"/>
      <point x="206" y="154"/>
    </contour>
    <contour>
      <point x="336" y="486" type="curve" smooth="yes"/>
      <point x="413" y="274" type="line" smooth="yes"/>
      <point x="414" y="269"/>
      <point x="411" y="263"/>
      <point x="405" y="263" type="curve" smooth="yes"/>
      <point x="251" y="263" type="line" smooth="yes"/>
      <point x="245" y="263"/>
      <point x="242" y="269"/>
      <point x="243" y="274" type="curve" smooth="yes"/>
      <point x="320" y="486" type="line" smooth="yes"/>
      <point x="323" y="493"/>
      <point x="333" y="493"/>
    </contour>
  </outline>
</glyph>
<glyph name="aogonek" format="2">
  <advance width="614"/>
  <unicode hex="0105"/>
  <outline>
    <contour>
      <point x="617" y="-180" type="line" smooth="yes"/>
      <point x="617" y="-183"/>
      <point x="615" y="-186"/>
      <point x="612" y="-187" type="curve" smooth="yes"/>
      <point x="469" y="-235"/>
      <point x="386" y="-181"/>
      <point x="386" y="-98" type="curve" smooth="yes"/>
      <point x="386" y="-62"/>
      <point x="399" y="-27"/>
      <point x="437" y="1" type="curve"/>
      <point x="434" y="-7" type="line"/>
      <point x="394" y="117" type="line"/>
      <point x="402" y="111" type="line"/>
      <point x="198" y="111" type="line"/>
      <point x="206" y="117" type="line"/>
      <point x="188" y="51"/>
      <point x="193" y="27"/>
      <point x="202" y="3" type="curve" smooth="yes"/>
      <point x="203" y="-3"/>
      <point x="200" y="-8"/>
      <point x="194" y="-8" type="curve" smooth="yes"/>
      <point x="-5" y="-8" type="line" smooth="yes"/>
      <point x="-12" y="-8"/>
      <point x="-15" y="0"/>
      <point x="-11" y="5" type="curve" smooth="yes"/>
      <point x="16" y="40"/>
      <point x="40" y="83"/>
      <point x="125" y="302" type="curve" smooth="yes"/>
      <point x="203" y="507"/>
      <point x="222" y="548"/>
      <point x="224" y="580" type="curve" smooth="yes"/>
      <point x="224" y="585"/>
      <point x="228" y="588"/>
      <point x="232" y="588" type="curve" smooth="yes"/>
      <point x="382" y="588" type="line" smooth="yes"/>
      <point x="386" y="588"/>
      <point x="389" y="585"/>
      <point x="390" y="581" type="curve" smooth="yes"/>
      <point x="396" y="549"/>
      <point x="410" y="509"/>
      <point x="489" y="302" type="curve" smooth="yes"/>
      <point x="573" y="83"/>
      <point x="598" y="40"/>
      <point x="625" y="5" type="curve" smooth="yes"/>
      <point x="629" y="0"/>
      <point x="627" y="-6"/>
      <point x="621" y="-8" type="curve" smooth="yes"/>
      <point x="565" y="-25"/>
      <point x="530" y="-39"/>
      <point x="530" y="-62" type="curve" smooth="yes"/>
      <point x="530" y="-88"/>
      <point x="568" y="-86"/>
      <point x="615" y="-59" type="curve" smooth="yes"/>
      <point x="621" y="-56"/>
      <point x="628" y="-60"/>
      <point x="627" y="-67" type="curve" smooth="yes"/>
    </contour>
    <contour>
      <point x="293" y="400" type="line"/>
      <point x="307" y="400" type="line"/>
      <point x="244" y="235" type="line"/>
      <point x="237" y="246" type="line"/>
      <point x="363" y="246" type="line"/>
      <point x="356" y="235" type="line"/>
    </contour>
    <contour>
      <point x="601" y="-178" type="line"/>
      <point x="611" y="-65" type="line"/>
      <point x="623" y="-73" type="line"/>
      <point x="557" y="-111"/>
      <point x="514" y="-99"/>
      <point x="514" y="-62" type="curve" smooth="yes"/>
      <point x="514" y="-32"/>
      <point x="542" y="-15"/>
      <point x="617" y="8" type="curve"/>
      <point x="613" y="-5" type="line"/>
      <point x="586" y="30"/>
      <point x="559" y="75"/>
      <point x="475" y="296" type="curve" smooth="yes"/>
      <point x="394" y="505"/>
      <point x="380" y="545"/>
      <point x="374" y="579" type="curve"/>
      <point x="382" y="572" type="line"/>
      <point x="232" y="572" type="line"/>
      <point x="240" y="580" type="line"/>
      <point x="238" y="546"/>
      <point x="221" y="507"/>
      <point x="139" y="296" type="curve" smooth="yes"/>
      <point x="54" y="75"/>
      <point x="28" y="30"/>
      <point x="1" y="-5" type="curve"/>
      <point x="-5" y="8" type="line"/>
      <point x="194" y="8" type="line"/>
      <point x="186" y="-3" type="line"/>
      <point x="177" y="23"/>
      <point x="172" y="51"/>
      <point x="190" y="121" type="curve" smooth="yes"/>
      <point x="191" y="125"/>
      <point x="194" y="127"/>
      <point x="198" y="127" type="curve" smooth="yes"/>
      <point x="402" y="127" type="line" smooth="yes"/>
      <point x="405" y="127"/>
      <point x="409" y="125"/>
      <point x="410" y="121" type="curve" smooth="yes"/>
      <point x="450" y="-3" type="line" smooth="yes"/>
      <point x="451" y="-6"/>
      <point x="450" y="-9"/>
      <point x="447" y="-11" type="curve" smooth="yes"/>
      <point x="413" y="-37"/>
      <point x="402" y="-66"/>
      <point x="402" y="-98" type="curve" smooth="yes"/>
      <point x="402" y="-173"/>
      <point x="479" y="-215"/>
      <point x="606" y="-171" type="curve"/>
    </contour>
    <contour>
      <point x="307" y="406" type="curve" smooth="yes"/>
      <point x="370" y="241" type="line" smooth="yes"/>
      <point x="372" y="236"/>
      <point x="369" y="230"/>
      <point x="363" y="230" type="curve" smooth="yes"/>
      <point x="237" y="230" type="line" smooth="yes"/>
      <point x="231" y="230"/>
      <point x="228" y="236"/>
      <point x="230" y="241" type="curve" smooth="yes"/>
      <point x="293" y="406" type="line" smooth="yes"/>
      <point x="295" y="413"/>
      <point x="305" y="413"/>
    </contour>
  </outline>
</glyph>
<glyph name="Eogonek" format="2">
  <advance width="549"/>
  <unicode hex="0118"/>
  <outline>
    <contour>
      <point x="57" y="-8" type="line" smooth="yes"/>
      <point x="51" y="-8"/>
      <point x="47" y="-2"/>
      <point x="50" y="4" type="curve" smooth="yes"/>
      <point x="70" y="43"/>
      <point x="76" y="98"/>
      <point x="76" y="349" type="curve" smooth="yes"/>
      <point x="76" y="586"/>
      <point x="70" y="638"/>
      <point x="50" y="676" type="curve" smooth="yes"/>
      <point x="47" y="682"/>
      <point x="51" y="688"/>
      <point x="57" y="688" type="curve" smooth="yes"/>
      <point x="476" y="688" type="line" smooth="yes"/>
      <point x="480" y="688"/>
      <point x="484" y="684"/>
      <point x="484" y="680" type="curve" smooth="yes"/>
      <point x="484" y="524" type="line" smooth="yes"/>
      <point x="484" y="518"/>
      <point x="478" y="514"/>
      <point x="472" y="517" type="curve" smooth="yes"/>
      <point x="440" y="534"/>
      <point x="401" y="550"/>
      <point x="231" y="547" type="curve"/>
      <point x="239" y="555" type="line"/>
      <point x="237" y="519"/>
      <point x="236" y="472"/>
      <point x="235" y="410" type="curve"/>
      <point x="227" y="418" type="line"/>
      <point x="383" y="419"/>
      <point x="416" y="423"/>
      <point x="445" y="439" type="curve" smooth="yes"/>
      <point x="451" y="442"/>
      <point x="457" y="438"/>
      <point x="457" y="432" type="curve" smooth="yes"/>
      <point x="457" y="269" type="line" smooth="yes"/>
      <point x="457" y="263"/>
      <point x="451" y="259"/>
      <point x="445" y="262" type="curve" smooth="yes"/>
      <point x="416" y="277"/>
      <point x="384" y="281"/>
      <point x="227" y="282" type="curve"/>
      <point x="235" y="290" type="line"/>
      <point x="236" y="218"/>
      <point x="237" y="165"/>
      <point x="239" y="125" type="curve"/>
      <point x="231" y="133" type="line"/>
      <point x="405" y="130"/>
      <point x="454" y="144"/>
      <point x="489" y="172" type="curve" smooth="yes"/>
      <point x="495" y="177"/>
      <point x="503" y="172"/>
      <point x="502" y="165" type="curve" smooth="yes"/>
      <point x="482" y="-1" type="line" smooth="yes"/>
      <point x="482" y="-5"/>
      <point x="479" y="-7"/>
      <point x="475" y="-8" type="curve" smooth="yes"/>
      <point x="417" y="-17"/>
      <point x="385" y="-38"/>
      <point x="385" y="-62" type="curve" smooth="yes"/>
      <point x="385" y="-88"/>
      <point x="423" y="-86"/>
      <point x="470" y="-59" type="curve" smooth="yes"/>
      <point x="476" y="-56"/>
      <point x="483" y="-60"/>
      <point x="482" y="-67" type="curve" smooth="yes"/>
      <point x="472" y="-180" type="line" smooth="yes"/>
      <point x="472" y="-183"/>
      <point x="470" y="-186"/>
      <point x="467" y="-187" type="curve" smooth="yes"/>
      <point x="324" y="-235"/>
      <point x="241" y="-181"/>
      <point x="241" y="-98" type="curve" smooth="yes"/>
      <point x="241" y="-59"/>
      <point x="251" y="-27"/>
      <point x="270" y="4" type="curve"/>
      <point x="277" y="-8" type="line"/>
    </contour>
    <contour>
      <point x="57" y="8" type="line"/>
      <point x="277" y="8" type="line" smooth="yes"/>
      <point x="283" y="8"/>
      <point x="287" y="1"/>
      <point x="284" y="-4" type="curve" smooth="yes"/>
      <point x="267" y="-33"/>
      <point x="257" y="-62"/>
      <point x="257" y="-98" type="curve" smooth="yes"/>
      <point x="257" y="-173"/>
      <point x="334" y="-215"/>
      <point x="461" y="-171" type="curve"/>
      <point x="456" y="-178" type="line"/>
      <point x="466" y="-65" type="line"/>
      <point x="478" y="-73" type="line"/>
      <point x="412" y="-111"/>
      <point x="369" y="-99"/>
      <point x="369" y="-62" type="curve" smooth="yes"/>
      <point x="369" y="-32"/>
      <point x="400" y="-3"/>
      <point x="473" y="8" type="curve"/>
      <point x="466" y="1" type="line"/>
      <point x="486" y="167" type="line"/>
      <point x="499" y="160" type="line"/>
      <point x="462" y="130"/>
      <point x="413" y="114"/>
      <point x="231" y="117" type="curve" smooth="yes"/>
      <point x="227" y="117"/>
      <point x="223" y="120"/>
      <point x="223" y="125" type="curve" smooth="yes"/>
      <point x="221" y="165"/>
      <point x="220" y="218"/>
      <point x="219" y="290" type="curve" smooth="yes"/>
      <point x="219" y="294"/>
      <point x="223" y="298"/>
      <point x="227" y="298" type="curve" smooth="yes"/>
      <point x="390" y="297"/>
      <point x="422" y="291"/>
      <point x="453" y="276" type="curve"/>
      <point x="441" y="269" type="line"/>
      <point x="441" y="432" type="line"/>
      <point x="453" y="425" type="line"/>
      <point x="422" y="409"/>
      <point x="391" y="403"/>
      <point x="227" y="402" type="curve" smooth="yes"/>
      <point x="223" y="402"/>
      <point x="219" y="406"/>
      <point x="219" y="410" type="curve" smooth="yes"/>
      <point x="220" y="472"/>
      <point x="221" y="519"/>
      <point x="223" y="555" type="curve" smooth="yes"/>
      <point x="223" y="560"/>
      <point x="227" y="563"/>
      <point x="231" y="563" type="curve" smooth="yes"/>
      <point x="405" y="566"/>
      <point x="446" y="548"/>
      <point x="480" y="531" type="curve"/>
      <point x="468" y="524" type="line"/>
      <point x="468" y="680" type="line"/>
      <point x="476" y="672" type="line"/>
      <point x="57" y="672" type="line"/>
      <point x="64" y="684" type="line"/>
      <point x="84" y="644"/>
      <point x="92" y="592"/>
      <point x="92" y="349" type="curve" smooth="yes"/>
      <point x="92" y="92"/>
      <point x="84" y="37"/>
      <point x="64" y="-4" type="curve"/>
    </contour>
  </outline>
</glyph>
<glyph name="eogonek" format="2">
  <advance width="484"/>
  <unicode hex="0119"/>
  <outline>
    <contour>
      <point x="50" y="-8" type="line" smooth="yes"/>
      <point x="44" y="-8"/>
      <point x="40" y="-2"/>
      <point x="43" y="4" type="curve" smooth="yes"/>
      <point x="61" y="38"/>
      <point x="69" y="84"/>
      <point x="69" y="299" type="curve" smooth="yes"/>
      <point x="69" y="499"/>
      <point x="61" y="542"/>
      <point x="43" y="576" type="curve" smooth="yes"/>
      <point x="40" y="582"/>
      <point x="44" y="588"/>
      <point x="50" y="588" type="curve" smooth="yes"/>
      <point x="420" y="588" type="line" smooth="yes"/>
      <point x="424" y="588"/>
      <point x="428" y="584"/>
      <point x="428" y="580" type="curve" smooth="yes"/>
      <point x="428" y="430" type="line" smooth="yes"/>
      <point x="428" y="424"/>
      <point x="422" y="420"/>
      <point x="416" y="423" type="curve" smooth="yes"/>
      <point x="389" y="438"/>
      <point x="358" y="454"/>
      <point x="217" y="453" type="curve"/>
      <point x="225" y="461" type="line"/>
      <point x="224" y="434"/>
      <point x="223" y="400"/>
      <point x="222" y="357" type="curve"/>
      <point x="214" y="365" type="line"/>
      <point x="339" y="367"/>
      <point x="364" y="372"/>
      <point x="389" y="386" type="curve" smooth="yes"/>
      <point x="395" y="389"/>
      <point x="401" y="385"/>
      <point x="401" y="379" type="curve" smooth="yes"/>
      <point x="401" y="222" type="line" smooth="yes"/>
      <point x="401" y="216"/>
      <point x="395" y="212"/>
      <point x="389" y="215" type="curve" smooth="yes"/>
      <point x="365" y="228"/>
      <point x="339" y="233"/>
      <point x="214" y="235" type="curve"/>
      <point x="222" y="243" type="line"/>
      <point x="223" y="190"/>
      <point x="224" y="151"/>
      <point x="226" y="119" type="curve"/>
      <point x="218" y="127" type="line"/>
      <point x="364" y="125"/>
      <point x="401" y="141"/>
      <point x="433" y="166" type="curve" smooth="yes"/>
      <point x="439" y="171"/>
      <point x="447" y="166"/>
      <point x="446" y="159" type="curve" smooth="yes"/>
      <point x="426" y="-1" type="line" smooth="yes"/>
      <point x="426" y="-4"/>
      <point x="423" y="-7"/>
      <point x="420" y="-8" type="curve" smooth="yes"/>
      <point x="364" y="-25"/>
      <point x="329" y="-39"/>
      <point x="329" y="-62" type="curve" smooth="yes"/>
      <point x="329" y="-88"/>
      <point x="367" y="-86"/>
      <point x="414" y="-59" type="curve" smooth="yes"/>
      <point x="420" y="-56"/>
      <point x="427" y="-60"/>
      <point x="426" y="-67" type="curve" smooth="yes"/>
      <point x="416" y="-180" type="line" smooth="yes"/>
      <point x="416" y="-183"/>
      <point x="414" y="-186"/>
      <point x="411" y="-187" type="curve" smooth="yes"/>
      <point x="269" y="-235"/>
      <point x="185" y="-182"/>
      <point x="185" y="-84" type="curve" smooth="yes"/>
      <point x="185" y="-52"/>
      <point x="192" y="-23"/>
      <point x="213" y="5" type="curve"/>
      <point x="219" y="-8" type="line"/>
    </contour>
    <contour>
      <point x="50" y="8" type="line"/>
      <point x="219" y="8" type="line" smooth="yes"/>
      <point x="226" y="8"/>
      <point x="229" y="1"/>
      <point x="225" y="-5" type="curve" smooth="yes"/>
      <point x="207" y="-29"/>
      <point x="201" y="-56"/>
      <point x="201" y="-84" type="curve" smooth="yes"/>
      <point x="201" y="-172"/>
      <point x="277" y="-215"/>
      <point x="405" y="-171" type="curve"/>
      <point x="400" y="-178" type="line"/>
      <point x="410" y="-65" type="line"/>
      <point x="422" y="-73" type="line"/>
      <point x="356" y="-111"/>
      <point x="313" y="-99"/>
      <point x="313" y="-62" type="curve" smooth="yes"/>
      <point x="313" y="-32"/>
      <point x="341" y="-15"/>
      <point x="416" y="8" type="curve"/>
      <point x="410" y="1" type="line"/>
      <point x="430" y="161" type="line"/>
      <point x="443" y="154" type="line"/>
      <point x="409" y="127"/>
      <point x="370" y="109"/>
      <point x="218" y="111" type="curve" smooth="yes"/>
      <point x="214" y="111"/>
      <point x="210" y="114"/>
      <point x="210" y="119" type="curve" smooth="yes"/>
      <point x="208" y="151"/>
      <point x="207" y="190"/>
      <point x="206" y="243" type="curve" smooth="yes"/>
      <point x="206" y="247"/>
      <point x="210" y="251"/>
      <point x="214" y="251" type="curve" smooth="yes"/>
      <point x="345" y="249"/>
      <point x="371" y="242"/>
      <point x="397" y="229" type="curve"/>
      <point x="385" y="222" type="line"/>
      <point x="385" y="379" type="line"/>
      <point x="397" y="372" type="line"/>
      <point x="370" y="358"/>
      <point x="345" y="351"/>
      <point x="214" y="349" type="curve" smooth="yes"/>
      <point x="210" y="349"/>
      <point x="206" y="353"/>
      <point x="206" y="357" type="curve" smooth="yes"/>
      <point x="207" y="400"/>
      <point x="208" y="434"/>
      <point x="209" y="461" type="curve" smooth="yes"/>
      <point x="209" y="466"/>
      <point x="213" y="469"/>
      <point x="217" y="469" type="curve" smooth="yes"/>
      <point x="362" y="470"/>
      <point x="395" y="452"/>
      <point x="424" y="437" type="curve"/>
      <point x="412" y="430" type="line"/>
      <point x="412" y="580" type="line"/>
      <point x="420" y="572" type="line"/>
      <point x="50" y="572" type="line"/>
      <point x="57" y="584" type="line"/>
      <point x="75" y="548"/>
      <point x="85" y="505"/>
      <point x="85" y="299" type="curve" smooth="yes"/>
      <point x="85" y="78"/>
      <point x="75" y="32"/>
      <point x="57" y="-4" type="curve"/>
    </contour>
  </outline>
</glyph>
<glyph name="Hbar" format="2">
  <advance width="723"/>
  <unicode hex="0126"/>
  <outline>
    <contour>
      <point x="67" y="-8" type="line" smooth="yes"/>
      <point x="61" y="-8"/>
      <point x="57" y="-2"/>
      <point x="60" y="4" type="curve" smooth="yes"/>
      <point x="80" y="43"/>
      <point x="86" y="99"/>
      <point x="86" y="417" type="curve"/>
      <point x="94" y="409" type="line"/>
      <point x="24" y="409" type="line" smooth="yes"/>
      <point x="20" y="409"/>
      <point x="16" y="413"/>
      <point x="16" y="417" type="curve"/>
      <point x="16" y="537" type="line" smooth="yes"/>
      <point x="16" y="541"/>
      <point x="20" y="545"/>
      <point x="24" y="545" type="curve" smooth="yes"/>
      <point x="91" y="545" type="line"/>
      <point x="83" y="537" type="line"/>
      <point x="80" y="621"/>
      <point x="73" y="651"/>
      <point x="60" y="676" type="curve" smooth="yes"/>
      <point x="57" y="682"/>
      <point x="61" y="688"/>
      <point x="67" y="688" type="curve" smooth="yes"/>
      <point x="264" y="688" type="line" smooth="yes"/>
      <point x="270" y="688"/>
      <point x="274" y="682"/>
      <point x="271" y="676" type="curve" smooth="yes"/>
      <point x="258" y="651"/>
      <point x="251" y="621"/>
      <point x="248" y="537" type="curve"/>
      <point x="240" y="545" type="line"/>
      <point x="483" y="545" type="line"/>
      <point x="475" y="537" type="line"/>
      <point x="472" y="621"/>
      <point x="465" y="651"/>
      <point x="452" y="676" type="curve" smooth="yes"/>
      <point x="449" y="682"/>
      <point x="453" y="688"/>
      <point x="459" y="688" type="curve" smooth="yes"/>
      <point x="656" y="688" type="line" smooth="yes"/>
      <point x="662" y="688"/>
      <point x="666" y="682"/>
      <point x="663" y="676" type="curve" smooth="yes"/>
      <point x="650" y="651"/>
      <point x="643" y="621"/>
      <point x="640" y="537" type="curve"/>
      <point x="632" y="545" type="line"/>
      <point x="699" y="545" type="line" smooth="yes"/>
      <point x="703" y="545"/>
      <point x="707" y="541"/>
      <point x="707" y="537" type="curve" smooth="yes"/>
      <point x="707" y="417" type="line" smooth="yes"/>
      <point x="707" y="413"/>
      <point x="703" y="409"/>
      <point x="699" y="409" type="curve" smooth="yes"/>
      <point x="629" y="409" type="line"/>
      <point x="637" y="417" type="line"/>
      <point x="637" y="186"/>
      <point x="641" y="47"/>
      <point x="663" y="4" type="curve" smooth="yes"/>
      <point x="666" y="-2"/>
      <point x="662" y="-8"/>
      <point x="656" y="-8" type="curve" smooth="yes"/>
      <point x="459" y="-8" type="line" smooth="yes"/>
      <point x="453" y="-8"/>
      <point x="449" y="-2"/>
      <point x="452" y="4" type="curve" smooth="yes"/>
      <point x="468" y="35"/>
      <point x="475" y="77"/>
      <point x="477" y="221" type="curve"/>
      <point x="485" y="213" type="line"/>
      <point x="238" y="213" type="line"/>
      <point x="246" y="221" type="line"/>
      <point x="248" y="77"/>
      <point x="255" y="35"/>
      <point x="271" y="4" type="curve" smooth="yes"/>
      <point x="274" y="-2"/>
      <point x="270" y="-8"/>
      <point x="264" y="-8" type="curve" smooth="yes"/>
    </contour>
    <contour>
      <point x="237" y="409" type="line"/>
      <point x="245" y="417" type="line"/>
      <point x="245" y="348" type="line"/>
      <point x="237" y="356" type="line"/>
      <point x="486" y="356" type="line"/>
      <point x="478" y="348" type="line"/>
      <point x="478" y="417" type="line"/>
      <point x="486" y="409" type="line"/>
    </contour>
    <contour>
      <point x="67" y="8" type="line"/>
      <point x="264" y="8" type="line"/>
      <point x="257" y="-4" type="line"/>
      <point x="241" y="29"/>
      <point x="232" y="71"/>
      <point x="230" y="221" type="curve" smooth="yes"/>
      <point x="230" y="225"/>
      <point x="234" y="229"/>
      <point x="238" y="229" type="curve" smooth="yes"/>
      <point x="485" y="229" type="line" smooth="yes"/>
      <point x="489" y="229"/>
      <point x="493" y="225"/>
      <point x="493" y="221" type="curve" smooth="yes"/>
      <point x="491" y="71"/>
      <point x="482" y="29"/>
      <point x="466" y="-4" type="curve"/>
      <point x="459" y="8" type="line"/>
      <point x="656" y="8" type="line"/>
      <point x="649" y="-4" type="line"/>
      <point x="627" y="41"/>
      <point x="621" y="180"/>
      <point x="621" y="417" type="curve" smooth="yes"/>
      <point x="621" y="421"/>
      <point x="625" y="425"/>
      <point x="629" y="425" type="curve" smooth="yes"/>
      <point x="699" y="425" type="line"/>
      <point x="691" y="417" type="line"/>
      <point x="691" y="537" type="line"/>
      <point x="699" y="529" type="line"/>
      <point x="632" y="529" type="line" smooth="yes"/>
      <point x="627" y="529"/>
      <point x="624" y="533"/>
      <point x="624" y="537" type="curve" smooth="yes"/>
      <point x="627" y="625"/>
      <point x="636" y="657"/>
      <point x="649" y="684" type="curve"/>
      <point x="656" y="672" type="line"/>
      <point x="459" y="672" type="line"/>
      <point x="466" y="684" type="line"/>
      <point x="479" y="657"/>
      <point x="488" y="625"/>
      <point x="491" y="537" type="curve" smooth="yes"/>
      <point x="491" y="533"/>
      <point x="488" y="529"/>
      <point x="483" y="529" type="curve" smooth="yes"/>
      <point x="240" y="529" type="line" smooth="yes"/>
      <point x="235" y="529"/>
      <point x="232" y="533"/>
      <point x="232" y="537" type="curve" smooth="yes"/>
      <point x="235" y="625"/>
      <point x="244" y="657"/>
      <point x="257" y="684" type="curve"/>
      <point x="264" y="672" type="line"/>
      <point x="67" y="672" type="line"/>
      <point x="74" y="684" type="line"/>
      <point x="87" y="657"/>
      <point x="96" y="625"/>
      <point x="99" y="537" type="curve" smooth="yes"/>
      <point x="99" y="533"/>
      <point x="96" y="529"/>
      <point x="91" y="529" type="curve" smooth="yes"/>
      <point x="24" y="529" type="line"/>
      <point x="32" y="537" type="line"/>
      <point x="32" y="417" type="line"/>
      <point x="24" y="425" type="line"/>
      <point x="94" y="425" type="line" smooth="yes"/>
      <point x="98" y="425"/>
      <point x="102" y="421"/>
      <point x="102" y="417" type="curve" smooth="yes"/>
      <point x="102" y="92"/>
      <point x="94" y="37"/>
      <point x="74" y="-4" type="curve"/>
    </contour>
    <contour>
      <point x="237" y="425" type="curve" smooth="yes"/>
      <point x="486" y="425" type="line" smooth="yes"/>
      <point x="490" y="425"/>
      <point x="494" y="421"/>
      <point x="494" y="417" type="curve" smooth="yes"/>
      <point x="494" y="348" type="line" smooth="yes"/>
      <point x="494" y="344"/>
      <point x="490" y="340"/>
      <point x="486" y="340" type="curve" smooth="yes"/>
      <point x="237" y="340" type="line" smooth="yes"/>
      <point x="233" y="340"/>
      <point x="229" y="344"/>
      <point x="229" y="348" type="curve" smooth="yes"/>
      <point x="229" y="417" type="line" smooth="yes"/>
      <point x="229" y="421"/>
      <point x="233" y="425"/>
    </contour>
  </outline>
</glyph>
